<?xml version="1.0" encoding="UTF-8"?>
                <svg xmlns="http://www.w3.org/2000/svg" viewBox="0 0 32 32">
                    
  
    <path d="M24.428 18.884l-0.856-0.27 3.47-10.727c0.135-0.496 0.090-1.037-0.135-1.487s-0.631-0.811-1.127-0.946l-12.935-4.192c-0.496-0.135-1.037-0.135-1.487 0.135-0.451 0.225-0.811 0.631-0.946 1.127l-0.586 1.803-0.856-0.27 0.586-1.803c0.225-0.721 0.721-1.307 1.397-1.668s1.442-0.406 2.163-0.18l12.935 4.146c0.721 0.225 1.307 0.721 1.668 1.397s0.406 1.442 0.18 2.163l-3.47 10.772z"></path>
    <path d="M19.651 31.82h-12.98c-1.758 0-3.155-1.397-3.155-3.155v-20.597c0-1.758 1.397-3.155 3.155-3.155h12.98c1.758 0 3.155 1.397 3.155 3.155v20.642c0 1.713-1.442 3.11-3.155 3.11zM6.67 5.814c-1.262 0-2.254 0.992-2.254 2.254v20.642c0 1.262 0.992 2.254 2.254 2.254h12.98c1.262 0 2.254-0.992 2.254-2.254v-20.642c0-1.262-0.992-2.254-2.254-2.254h-12.98z"></path>
    <path d="M6.806 8.203h0.901v2.524h-0.901v-2.524z"></path>
    <path d="M18.569 26.051h0.901v2.524h-0.901v-2.524z"></path>
    <path d="M13.161 24.744c-0.135 0-0.225-0.045-0.316-0.135l-4.777-4.777c-0.316-0.316-0.586-0.676-0.721-1.082-0.18-0.406-0.27-0.856-0.27-1.307s0.090-0.901 0.225-1.307c0.18-0.406 0.406-0.766 0.721-1.082s0.676-0.541 1.082-0.721c0.406-0.18 0.856-0.27 1.307-0.225 0.451 0 0.856 0.090 1.307 0.27 0.406 0.18 0.766 0.406 1.082 0.766l0.361 0.361 0.406-0.406c0.631-0.631 1.487-0.992 2.344-0.992 0.901 0 1.758 0.316 2.389 0.946 0 0 0 0 0 0 0.631 0.631 0.946 1.487 0.946 2.389s-0.361 1.713-0.992 2.344l-4.777 4.823c-0.090 0.090-0.225 0.135-0.316 0.135zM10.366 15.008c-0.316 0-0.631 0.045-0.901 0.18-0.316 0.135-0.586 0.316-0.811 0.541s-0.406 0.496-0.541 0.811c-0.135 0.316-0.18 0.631-0.18 0.946s0.090 0.631 0.18 0.946c0.135 0.316 0.316 0.541 0.541 0.766l4.462 4.462 4.462-4.462c0.451-0.451 0.721-1.082 0.721-1.713 0-0.676-0.225-1.262-0.676-1.758-0.451-0.451-1.082-0.676-1.713-0.676 0 0 0 0-0.045 0-0.676 0-1.262 0.27-1.713 0.721l-0.721 0.721c-0.18 0.18-0.451 0.18-0.631 0l-0.676-0.721c-0.225-0.225-0.496-0.406-0.811-0.541-0.27-0.135-0.586-0.225-0.946-0.225 0 0 0 0 0 0z"></path>
  
                </svg>