<?xml version="1.0" encoding="UTF-8"?>
                <svg xmlns="http://www.w3.org/2000/svg" viewBox="0 0 32 32">
                    
  
    <path d="M12.124 25.825c-0.316 0-0.676-0.045-0.992-0.135l-8.293-2.479c0 0 0 0 0 0-0.946-0.27-1.713-0.946-2.208-1.848-0.451-0.901-0.586-1.893-0.316-2.884l2.389-8.563c0.27-0.992 0.901-1.758 1.758-2.254s1.893-0.631 2.794-0.361l8.293 2.479c0.946 0.27 1.713 0.946 2.208 1.848 0.451 0.901 0.586 1.893 0.316 2.885l-2.389 8.563c-0.27 0.992-0.901 1.803-1.758 2.254-0.586 0.316-1.172 0.496-1.803 0.496zM3.065 22.355l8.293 2.434c0.721 0.225 1.442 0.135 2.118-0.27 0.631-0.361 1.127-0.992 1.352-1.713l2.389-8.563c0.225-0.766 0.135-1.532-0.225-2.208s-0.946-1.172-1.668-1.397l-8.248-2.479c-0.721-0.225-1.442-0.135-2.118 0.27-0.631 0.361-1.127 0.992-1.352 1.713l-2.389 8.563c-0.225 0.766-0.135 1.532 0.225 2.208 0.316 0.721 0.901 1.217 1.623 1.442v0zM19.741 24.608c-0.541 0-1.037-0.135-1.532-0.361-0.811-0.361-1.442-1.037-1.803-1.848-0.090-0.225 0-0.496 0.225-0.586s0.496 0 0.586 0.225c0.27 0.631 0.766 1.127 1.352 1.397s1.262 0.316 1.893 0.135l8.293-2.479c0.721-0.225 1.307-0.721 1.668-1.397s0.451-1.487 0.225-2.208l-2.389-8.563c-0.225-0.721-0.676-1.352-1.352-1.713-0.631-0.361-1.397-0.451-2.118-0.27l-8.158 2.434c-0.225 0.090-0.496-0.045-0.541-0.316-0.090-0.225 0.045-0.496 0.316-0.541l8.158-2.434c0.946-0.27 1.938-0.135 2.839 0.361 0.856 0.496 1.487 1.307 1.758 2.254l2.389 8.563c0.27 0.992 0.135 1.983-0.316 2.884-0.496 0.901-1.262 1.532-2.208 1.848l-8.293 2.479c-0.316 0.045-0.631 0.135-0.992 0.135zM11.042 24.068c-0.18 0-0.361-0.045-0.586-0.090 0 0 0 0 0 0-0.541-0.18-0.992-0.541-1.262-1.037s-0.316-1.082-0.18-1.623c0.090-0.27 0.18-0.496 0.361-0.721s0.361-0.406 0.631-0.541c0.225-0.135 0.496-0.225 0.766-0.27s0.541 0 0.811 0.090c0.541 0.18 0.992 0.541 1.262 1.037s0.316 1.082 0.18 1.623c-0.090 0.27-0.18 0.496-0.361 0.721s-0.361 0.406-0.631 0.541c-0.225 0.135-0.496 0.225-0.766 0.27-0.090 0-0.18 0-0.225 0zM10.727 23.121c0.135 0.045 0.316 0.045 0.451 0.045s0.316-0.045 0.451-0.135c0.135-0.090 0.27-0.18 0.361-0.316s0.18-0.27 0.225-0.406c0.090-0.316 0.045-0.676-0.090-0.946s-0.406-0.496-0.721-0.586c-0.135-0.045-0.316-0.045-0.451-0.045s-0.316 0.045-0.451 0.135c-0.135 0.090-0.27 0.18-0.361 0.316s-0.18 0.27-0.225 0.406c-0.090 0.316-0.045 0.676 0.090 0.946s0.406 0.496 0.721 0.586zM4.777 22.22c-0.18 0-0.361-0.045-0.541-0.090 0 0 0 0-0.045 0-0.541-0.18-0.992-0.541-1.217-1.037-0.27-0.496-0.316-1.082-0.18-1.623 0.090-0.27 0.18-0.496 0.361-0.721s0.361-0.406 0.631-0.541c0.225-0.135 0.496-0.225 0.766-0.27s0.541 0 0.811 0.045c0.541 0.18 0.992 0.541 1.262 1.037s0.316 1.082 0.18 1.623c-0.090 0.27-0.18 0.496-0.361 0.721s-0.361 0.406-0.631 0.541c-0.225 0.135-0.496 0.225-0.766 0.27-0.090 0.045-0.18 0.045-0.27 0.045zM4.462 21.273c0 0 0 0 0 0 0.18 0.045 0.316 0.045 0.451 0.045s0.316-0.045 0.451-0.135c0.135-0.090 0.27-0.18 0.361-0.316s0.18-0.27 0.225-0.406c0.090-0.316 0.045-0.676-0.090-0.946s-0.406-0.496-0.721-0.586c-0.135-0.045-0.316-0.045-0.451-0.045s-0.316 0.045-0.451 0.135c-0.135 0.090-0.27 0.18-0.361 0.316s-0.18 0.27-0.225 0.406c-0.090 0.316-0.045 0.676 0.090 0.946 0.18 0.27 0.451 0.496 0.721 0.586zM12.259 19.515c-0.18 0-0.361-0.045-0.586-0.090 0 0 0 0 0 0-0.541-0.18-0.992-0.541-1.217-1.037-0.27-0.496-0.316-1.082-0.18-1.623 0.090-0.27 0.18-0.496 0.361-0.721s0.361-0.406 0.631-0.541c0.225-0.135 0.496-0.225 0.766-0.27s0.541 0 0.811 0.045c0.541 0.18 0.992 0.541 1.262 1.037s0.316 1.082 0.18 1.623c-0.090 0.27-0.18 0.496-0.361 0.721s-0.361 0.406-0.631 0.541c-0.225 0.135-0.496 0.225-0.766 0.27-0.090 0.045-0.18 0.045-0.27 0.045zM11.944 18.569c0.135 0.045 0.316 0.045 0.451 0.045s0.316-0.045 0.451-0.135c0.135-0.090 0.27-0.18 0.361-0.316s0.18-0.27 0.225-0.406c0.090-0.316 0.045-0.676-0.090-0.946s-0.406-0.496-0.721-0.586c-0.135-0.045-0.316-0.045-0.451-0.045s-0.316 0.045-0.451 0.135c-0.135 0.090-0.27 0.18-0.361 0.316s-0.18 0.27-0.225 0.406c-0.090 0.316-0.045 0.676 0.090 0.946 0.18 0.316 0.451 0.496 0.721 0.586zM6.039 17.668c-0.18 0-0.406-0.045-0.586-0.090 0 0 0 0 0 0-0.541-0.18-0.992-0.541-1.217-1.037-0.27-0.496-0.316-1.082-0.18-1.623 0.090-0.27 0.18-0.496 0.361-0.721s0.361-0.406 0.631-0.541c0.225-0.135 0.496-0.225 0.766-0.27s0.541 0 0.811 0.045c0.541 0.18 0.992 0.541 1.262 1.037s0.315 1.082 0.18 1.623c-0.090 0.27-0.18 0.496-0.361 0.721s-0.361 0.406-0.631 0.541c-0.225 0.135-0.496 0.225-0.766 0.27-0.090 0.045-0.18 0.045-0.27 0.045zM5.724 16.721c0.135 0.045 0.316 0.045 0.451 0.045s0.316-0.045 0.451-0.135c0.135-0.090 0.27-0.18 0.361-0.316s0.18-0.27 0.225-0.406c0.090-0.316 0.045-0.676-0.090-0.946s-0.406-0.496-0.721-0.586c-0.135-0.045-0.316-0.045-0.451-0.045s-0.316 0.045-0.451 0.135c-0.135 0.090-0.27 0.18-0.361 0.316s-0.18 0.27-0.225 0.406c-0.090 0.316-0.045 0.676 0.090 0.946 0.18 0.316 0.451 0.496 0.721 0.586zM22.715 17.397c-0.090 0-0.18 0-0.225 0-0.27-0.045-0.541-0.135-0.766-0.27s-0.451-0.316-0.631-0.541c-0.18-0.225-0.27-0.451-0.361-0.721-0.135-0.541-0.090-1.127 0.18-1.623s0.721-0.856 1.217-1.037c0.27-0.090 0.541-0.090 0.811-0.090 0.27 0.045 0.541 0.135 0.766 0.27s0.451 0.316 0.631 0.541c0.18 0.225 0.27 0.451 0.361 0.721 0.135 0.541 0.090 1.127-0.18 1.623s-0.721 0.856-1.217 1.037c0 0 0 0 0 0-0.225 0.045-0.406 0.090-0.586 0.090zM23.166 16.856v0 0zM22.715 14.017c-0.090 0-0.225 0-0.316 0.045-0.316 0.090-0.541 0.316-0.721 0.586-0.135 0.27-0.18 0.631-0.090 0.946 0.045 0.135 0.135 0.316 0.225 0.406 0.090 0.135 0.225 0.225 0.361 0.316s0.27 0.135 0.451 0.135c0.135 0 0.316 0 0.451-0.045 0.316-0.090 0.541-0.316 0.721-0.586 0.135-0.27 0.18-0.631 0.090-0.946-0.045-0.135-0.135-0.316-0.225-0.406-0.090-0.135-0.225-0.225-0.361-0.316s-0.27-0.135-0.451-0.135c-0.045 0-0.090 0-0.135 0zM13.521 15.008c-0.18 0-0.361-0.045-0.586-0.090 0 0 0 0 0 0-0.541-0.18-0.992-0.541-1.217-1.037-0.27-0.496-0.316-1.082-0.18-1.623 0.090-0.27 0.18-0.496 0.361-0.721s0.361-0.406 0.631-0.541c0.225-0.135 0.496-0.225 0.766-0.27s0.541 0 0.811 0.045c0.541 0.18 0.992 0.541 1.262 1.037s0.316 1.082 0.18 1.623c-0.090 0.27-0.18 0.496-0.361 0.721s-0.361 0.406-0.631 0.541c-0.225 0.135-0.496 0.225-0.766 0.27-0.090 0.045-0.18 0.045-0.27 0.045zM13.206 14.062c0.135 0.045 0.316 0.045 0.451 0.045s0.316-0.045 0.451-0.135c0.135-0.090 0.27-0.18 0.361-0.316s0.18-0.27 0.225-0.406c0.090-0.316 0.045-0.676-0.090-0.946s-0.406-0.496-0.721-0.586c-0.135-0.045-0.316-0.045-0.451-0.045s-0.316 0.045-0.451 0.135c-0.135 0.090-0.27 0.18-0.361 0.316s-0.18 0.27-0.225 0.406c-0.090 0.316-0.045 0.676 0.090 0.946 0.18 0.27 0.406 0.496 0.721 0.586zM7.301 13.161c-0.18 0-0.361-0.045-0.586-0.090 0 0 0 0 0 0-0.541-0.18-0.992-0.541-1.217-1.037-0.27-0.496-0.316-1.082-0.18-1.623 0.090-0.27 0.18-0.496 0.361-0.721s0.361-0.406 0.631-0.541c0.225-0.135 0.496-0.225 0.766-0.27s0.541 0 0.811 0.045c0.541 0.18 0.992 0.541 1.262 1.037s0.316 1.082 0.18 1.623c-0.090 0.27-0.18 0.496-0.361 0.721s-0.361 0.406-0.631 0.541c-0.225 0.135-0.496 0.225-0.766 0.27-0.135 0.045-0.18 0.045-0.27 0.045zM6.986 12.214c0.135 0.045 0.316 0.045 0.451 0.045s0.316-0.045 0.451-0.135c0.135-0.090 0.27-0.18 0.361-0.316s0.18-0.27 0.225-0.406c0.090-0.316 0.045-0.676-0.090-0.946s-0.406-0.496-0.721-0.586c-0.135-0.045-0.316-0.045-0.451-0.045s-0.316 0.045-0.451 0.135c-0.135 0.090-0.27 0.18-0.361 0.316s-0.18 0.27-0.225 0.406c-0.090 0.316-0.045 0.676 0.090 0.946 0.18 0.27 0.406 0.496 0.721 0.586z"></path>
  
                </svg>