<?xml version="1.0" encoding="UTF-8"?>
<svg xmlns="http://www.w3.org/2000/svg" viewBox="0 0 32 32">
    <path d="M15.955 31.684c-0.045 0-0.045 0 0 0-2.118 0-4.101-0.406-5.994-1.172-1.893-0.811-3.606-1.938-5.048-3.38s-2.614-3.155-3.38-5.048c-0.811-1.893-1.172-3.921-1.172-5.994s0.406-4.056 1.172-5.994 1.938-3.606 3.38-5.048c1.442-1.442 3.155-2.614 5.048-3.38s3.921-1.172 5.949-1.172c0 0 0.045 0 0.045 0 2.073 0 4.056 0.406 5.949 1.172 1.893 0.811 3.606 1.938 5.048 3.38s2.614 3.155 3.38 5.048c0.811 1.893 1.217 3.876 1.217 5.949s-0.406 4.056-1.172 5.994c-0.811 1.893-1.938 3.606-3.38 5.048s-3.155 2.614-5.048 3.38c-1.938 0.811-3.966 1.217-5.994 1.217zM15.91 30.918c0 0 0.045 0 0 0 1.983 0 3.876-0.361 5.679-1.127s3.425-1.848 4.823-3.245c1.397-1.397 2.479-3.020 3.245-4.823s1.127-3.741 1.127-5.679c0-1.983-0.361-3.876-1.127-5.679s-1.848-3.425-3.245-4.823c-1.352-1.397-2.975-2.479-4.777-3.245s-3.741-1.127-5.679-1.127c0 0 0 0 0 0-1.938 0-3.876 0.361-5.679 1.127s-3.425 1.848-4.823 3.245c-1.442 1.397-2.524 3.020-3.29 4.823s-1.127 3.741-1.127 5.679c0 1.983 0.361 3.876 1.127 5.679s1.848 3.425 3.245 4.823c1.397 1.397 3.020 2.479 4.823 3.245s3.696 1.127 5.679 1.127c0 0 0 0 0 0zM15.955 30.017c-0.045 0-0.045 0 0 0-1.848 0-3.651-0.361-5.363-1.082s-3.245-1.713-4.507-3.020c-1.307-1.307-2.344-2.839-3.020-4.507-0.721-1.713-1.082-3.515-1.082-5.363s0.361-3.651 1.082-5.363c0.721-1.713 1.713-3.245 3.020-4.507 1.307-1.307 2.839-2.344 4.507-3.020 1.713-0.721 3.47-1.082 5.318-1.082 0 0 0.045 0 0.045 0 1.848 0 3.606 0.361 5.318 1.082s3.245 1.713 4.507 3.020c1.307 1.307 2.344 2.839 3.020 4.507 0.721 1.713 1.082 3.515 1.082 5.363s-0.361 3.651-1.082 5.363c-0.721 1.713-1.713 3.245-3.020 4.507-1.307 1.307-2.839 2.344-4.507 3.020-1.713 0.721-3.515 1.082-5.318 1.082zM15.91 29.251c0 0 0 0 0 0 1.758 0 3.425-0.316 5.048-0.992s3.065-1.623 4.282-2.884c1.217-1.217 2.208-2.659 2.884-4.282s0.992-3.29 0.992-5.048c0-1.758-0.316-3.425-0.992-5.048s-1.623-3.065-2.884-4.282c0 0 0 0 0 0-1.217-1.217-2.659-2.208-4.282-2.885-1.577-0.631-3.29-0.992-5.003-0.992 0 0 0 0-0.045 0-1.758 0-3.425 0.316-5.048 0.992s-3.065 1.623-4.282 2.885c-1.217 1.217-2.208 2.659-2.885 4.282-0.631 1.623-0.946 3.335-0.946 5.048 0 1.758 0.316 3.425 0.992 5.048s1.623 3.065 2.884 4.282c1.217 1.217 2.659 2.208 4.282 2.884 1.577 0.631 3.245 0.992 5.003 0.992 0 0 0 0 0 0zM16.225 26.907l-1.127-0.045c-0.18 0-0.316-0.090-0.361-0.27 0-0.045-0.045-0.090 0-0.18l0.135-1.487c0-0.225 0.18-0.361 0.406-0.361h1.352c0.225 0 0.406 0.135 0.451 0.361 0 0 0 0 0 0l0.135 1.487c0 0.090-0.045 0.225-0.090 0.27s-0.18 0.135-0.27 0.135l-0.631 0.090zM15.504 26.141h0.811l-0.090-0.766h-0.676l-0.045 0.766zM18.344 26.637c-0.090 0-0.225-0.045-0.27-0.090v0c-0.045-0.045-0.090-0.135-0.090-0.18l-0.361-1.487c-0.045-0.090 0-0.225 0.045-0.27 0.045-0.090 0.135-0.135 0.225-0.18l1.262-0.406c0.18-0.090 0.406 0 0.496 0.225l0.586 1.397c0.045 0.090 0.045 0.18 0 0.316-0.045 0.090-0.135 0.18-0.225 0.225l-1.577 0.406c-0.045 0.045-0.045 0.045-0.090 0.045zM18.434 25.059l0.18 0.721 0.766-0.27-0.27-0.721-0.676 0.27zM13.431 26.592c-0.045 0-0.045 0-0.090 0l-1.532-0.496c-0.045 0-0.090-0.045-0.090-0.045-0.18-0.090-0.225-0.316-0.18-0.496l0.586-1.397c0.090-0.18 0.316-0.27 0.496-0.225l1.262 0.406c0.090 0 0.18 0.045 0.225 0.135 0.090 0.090 0.090 0.225 0.090 0.316l-0.361 1.487c-0.045 0.090-0.090 0.18-0.18 0.225-0.045 0.090-0.135 0.090-0.225 0.090zM12.394 25.51l0.766 0.27 0.18-0.721-0.676-0.27-0.27 0.721zM21.363 25.375c-0.135 0-0.27-0.045-0.316-0.18l-0.811-1.307c-0.090-0.18-0.045-0.406 0.135-0.541l1.082-0.766c0.18-0.135 0.451-0.135 0.586 0.045l0.992 1.172c0.045 0.090 0.090 0.18 0.090 0.27s-0.045 0.18-0.135 0.27l-1.352 0.992c0 0-0.045 0-0.045 0.045-0.090 0-0.18 0-0.225 0zM21.093 23.842l0.406 0.631 0.676-0.496-0.541-0.541-0.541 0.406zM10.456 25.375c-0.090 0-0.135 0-0.18-0.045l-1.352-0.992c-0.090-0.045-0.135-0.090-0.18-0.18-0.045-0.135-0.045-0.27 0.045-0.406l0.992-1.172c0.045-0.090 0.18-0.135 0.27-0.135s0.18 0.045 0.27 0.090l1.082 0.766c0.18 0.090 0.27 0.361 0.135 0.541l-0.811 1.307c-0.045 0.090-0.135 0.135-0.225 0.18 0 0-0.045 0.045-0.045 0.045zM9.645 23.932l0.676 0.496 0.406-0.631-0.586-0.406-0.496 0.541zM23.842 23.256c-0.090 0-0.18-0.045-0.27-0.090l-1.172-0.992c-0.18-0.135-0.18-0.361-0.045-0.541l0.811-1.082c0.090-0.18 0.361-0.225 0.541-0.135l1.307 0.811c0.090 0.045 0.135 0.135 0.18 0.225s0 0.225-0.045 0.27l-0.992 1.352c-0.090 0.135-0.18 0.18-0.316 0.18 0.045 0 0 0 0 0zM23.256 21.859l0.586 0.496 0.496-0.676-0.631-0.406-0.451 0.586zM7.932 23.211c0 0 0 0 0 0-0.135 0-0.225-0.045-0.316-0.135l-0.992-1.352c0 0-0.045-0.045-0.045-0.045-0.090-0.18-0.045-0.406 0.135-0.541l1.307-0.811c0.090-0.045 0.18-0.090 0.27-0.045s0.18 0.090 0.225 0.18l0.766 1.082c0.135 0.18 0.135 0.406-0.045 0.541l-1.172 0.992c0.045 0.135-0.045 0.135-0.135 0.135zM7.527 21.634l0.496 0.676 0.586-0.496-0.406-0.586-0.676 0.406zM15.91 22.761c-0.361 0-0.721-0.135-0.946-0.406-0.27-0.27-0.406-0.586-0.406-0.946 0-0.27 0.090-0.496 0.225-0.721 0.090-0.135 0.225-0.27 0.361-0.361v-2.479c-0.225-0.090-0.406-0.225-0.586-0.406s-0.316-0.361-0.406-0.586h-2.479c-0.090 0.135-0.225 0.27-0.361 0.361-0.541 0.316-1.262 0.27-1.668-0.18-0.27-0.27-0.406-0.586-0.406-0.946s0.135-0.721 0.406-0.946c0.27-0.27 0.586-0.406 0.946-0.406 0 0 0 0 0 0 0.27 0 0.496 0.090 0.721 0.225 0.135 0.090 0.27 0.225 0.361 0.361h2.479c0.090-0.225 0.225-0.406 0.406-0.586s0.361-0.316 0.586-0.406v-2.479c-0.135-0.090-0.27-0.225-0.361-0.361-0.135-0.225-0.225-0.451-0.225-0.721 0-0.18 0.045-0.361 0.090-0.496 0.090-0.18 0.18-0.316 0.316-0.451s0.27-0.225 0.451-0.316c0.496-0.225 1.082-0.090 1.487 0.316 0.27 0.27 0.406 0.586 0.406 0.946 0 0.27-0.090 0.496-0.225 0.721-0.090 0.135-0.225 0.27-0.361 0.361v2.479c0.225 0.090 0.406 0.225 0.586 0.406s0.316 0.361 0.406 0.586h2.479c0.090-0.135 0.225-0.27 0.361-0.361 0.541-0.316 1.262-0.27 1.668 0.18 0.27 0.27 0.406 0.586 0.406 0.946s-0.135 0.721-0.406 0.946c-0.451 0.451-1.172 0.496-1.713 0.18-0.135-0.090-0.27-0.225-0.361-0.361h-2.479c-0.090 0.225-0.225 0.406-0.406 0.586s-0.361 0.316-0.586 0.406v2.434c0.135 0.090 0.27 0.225 0.361 0.361 0.135 0.225 0.225 0.451 0.225 0.721 0 0.361-0.135 0.721-0.406 0.946-0.225 0.27-0.586 0.451-0.946 0.451zM11.448 16.090h2.975c0.18 0 0.316 0.135 0.361 0.27 0.045 0.18 0.135 0.361 0.316 0.541 0.135 0.135 0.316 0.225 0.541 0.316 0.18 0.045 0.27 0.18 0.27 0.361v2.975c0 0.135-0.090 0.27-0.225 0.361-0.090 0.045-0.18 0.135-0.27 0.225-0.045 0.045-0.090 0.135-0.090 0.27s0.045 0.316 0.18 0.406c0.225 0.225 0.586 0.225 0.811 0 0.090-0.090 0.18-0.27 0.18-0.406s-0.045-0.225-0.090-0.316c-0.045-0.090-0.135-0.18-0.27-0.225s-0.225-0.18-0.225-0.361v-2.975c0-0.18 0.135-0.316 0.27-0.361 0.18-0.045 0.361-0.135 0.541-0.316 0.135-0.135 0.27-0.316 0.316-0.541 0.045-0.18 0.18-0.27 0.361-0.27h2.975c0.135 0 0.27 0.090 0.361 0.225 0.045 0.090 0.135 0.18 0.225 0.27 0.225 0.135 0.541 0.090 0.721-0.090 0.090-0.090 0.18-0.27 0.18-0.406s-0.045-0.316-0.18-0.406c-0.18-0.18-0.496-0.225-0.721-0.090-0.090 0.045-0.18 0.135-0.225 0.27s-0.18 0.225-0.361 0.225h-2.975c-0.18 0-0.316-0.135-0.361-0.27-0.045-0.18-0.135-0.361-0.316-0.541-0.135-0.135-0.316-0.225-0.496-0.316-0.18-0.045-0.316-0.18-0.316-0.361v-2.975c0-0.135 0.090-0.27 0.225-0.361 0.090-0.045 0.18-0.135 0.27-0.225s0.090-0.225 0.090-0.316c0-0.135-0.045-0.316-0.18-0.406-0.18-0.18-0.406-0.225-0.631-0.135-0.090 0.045-0.135 0.090-0.18 0.135s-0.090 0.135-0.135 0.18c-0.045 0.090-0.045 0.135-0.045 0.225 0 0.135 0.045 0.225 0.090 0.316s0.135 0.18 0.27 0.225c0.135 0.045 0.225 0.18 0.225 0.361v2.975c0 0.18-0.135 0.316-0.27 0.361-0.18 0.045-0.361 0.135-0.541 0.316-0.135 0.135-0.225 0.316-0.316 0.541-0.045 0.18-0.18 0.27-0.361 0.27l-2.975 0.045c-0.135-0.045-0.27-0.135-0.361-0.27-0.045-0.090-0.135-0.18-0.225-0.27-0.090-0.045-0.225-0.090-0.316-0.090 0 0 0 0 0 0-0.135 0-0.316 0.045-0.406 0.18-0.090 0.090-0.18 0.27-0.18 0.406s0.045 0.316 0.18 0.406c0.18 0.18 0.496 0.225 0.721 0.090 0.090-0.045 0.18-0.135 0.225-0.27 0.090-0.135 0.225-0.18 0.361-0.18zM25.555 20.507c-0.045 0-0.090 0-0.135-0.045l-1.397-0.586c-0.135-0.045-0.225-0.18-0.225-0.361 0-0.045 0-0.090 0.045-0.135l0.406-1.217c0.045-0.225 0.27-0.361 0.451-0.316l1.487 0.361c0.090 0.045 0.18 0.090 0.225 0.18s0.090 0.18 0.045 0.27l-0.541 1.577c0 0 0 0 0 0v0c-0.045 0.090-0.090 0.18-0.225 0.225 0 0-0.045 0.045-0.135 0.045zM24.654 19.335l0.676 0.27 0.27-0.766-0.721-0.18-0.225 0.676zM6.265 20.417c-0.135 0-0.27-0.090-0.361-0.225l-0.541-1.577c-0.045-0.090 0-0.18 0-0.225 0.045-0.135 0.135-0.225 0.27-0.225l1.487-0.361c0.090-0.045 0.225 0 0.27 0.045 0.090 0.045 0.135 0.135 0.18 0.225l0.406 1.262c0.090 0.18 0 0.451-0.18 0.541l-1.397 0.586c-0.045-0.045-0.090-0.045-0.135-0.045zM6.22 18.794l0.27 0.766 0.676-0.27-0.225-0.676-0.721 0.18zM26.366 17.307c-0.045 0-0.045 0 0 0l-1.577-0.135c-0.18 0-0.361-0.18-0.361-0.361l0.045-1.082v-0.27c0 0 0-0.045 0-0.045 0-0.18 0.135-0.361 0.361-0.361l1.532-0.135c0.090 0 0.18 0.045 0.27 0.090s0.135 0.18 0.135 0.27l0.045 1.127-0.045 0.541c0 0.090-0.045 0.225-0.18 0.27-0.090 0.090-0.18 0.090-0.225 0.090zM25.239 16.451l0.766 0.045v-0.811l-0.766 0.090v0.676zM5.499 17.262c-0.18 0-0.361-0.135-0.361-0.361l-0.045-1.217 0.045-0.496c0-0.090 0.045-0.18 0.135-0.27 0.090-0.045 0.18-0.090 0.27-0.090l1.532 0.135c0.18 0 0.361 0.18 0.361 0.361v1.352c0 0.225-0.135 0.406-0.361 0.451l-1.577 0.135c0 0 0 0 0 0zM5.859 15.639v0.811l0.766-0.045v-0.676l-0.766-0.090zM24.654 14.423c-0.090 0-0.135 0-0.225-0.045s-0.135-0.135-0.18-0.225l-0.406-1.262c-0.090-0.18 0-0.451 0.225-0.496l1.397-0.586c0.090-0.045 0.18-0.045 0.316 0 0.090 0.045 0.18 0.135 0.225 0.225l0.496 1.623c0.045 0.18-0.045 0.316-0.18 0.406v0c-0.045 0-0.045 0.045-0.090 0.045l-1.487 0.361c-0.045-0.045-0.090-0.045-0.090-0.045zM24.699 12.89l0.225 0.676 0.721-0.18-0.225-0.766-0.721 0.27zM7.211 14.332c-0.045 0-0.045 0-0.090 0l-1.487-0.361c-0.090-0.045-0.18-0.090-0.225-0.18s-0.090-0.18-0.045-0.27l0.541-1.623c0.045-0.135 0.225-0.225 0.361-0.225 0.045 0 0.135 0 0.18 0.045l1.352 0.586c0.090 0.045 0.18 0.135 0.225 0.225s0.045 0.18 0 0.316l-0.406 1.217c-0.045 0.135-0.225 0.27-0.406 0.27zM6.22 13.341l0.721 0.18 0.225-0.676-0.721-0.27-0.225 0.766zM23.572 11.808c-0.045 0-0.045 0-0.090 0-0.090-0.045-0.18-0.090-0.225-0.18l-0.766-1.082c-0.135-0.18-0.135-0.406 0.045-0.541l1.172-0.992c0.090-0.045 0.18-0.090 0.27-0.090s0.18 0.045 0.27 0.135l0.992 1.397c0 0.045 0.045 0.090 0.045 0.135v0c0.045 0.18-0.045 0.316-0.18 0.406l-1.307 0.811c-0.090 0-0.135 0-0.225 0zM23.301 10.366l0.406 0.586 0.631-0.406-0.451-0.676-0.586 0.496zM8.293 11.763c-0.045 0-0.090 0-0.090 0-0.045 0-0.090-0.045-0.135-0.045l-1.307-0.811c-0.090-0.045-0.135-0.135-0.18-0.27 0-0.090 0-0.225 0.045-0.316l0.946-1.307c0.045-0.090 0.135-0.135 0.225-0.18 0.135-0.045 0.27 0 0.361 0.090l1.172 0.992c0.090 0.045 0.135 0.18 0.135 0.27s-0.045 0.18-0.090 0.27l-0.811 1.082c-0.045 0.18-0.135 0.225-0.27 0.225zM7.527 10.456l0.631 0.406 0.406-0.586-0.586-0.496-0.451 0.676zM21.814 9.69c-0.090 0-0.18-0.045-0.27-0.090l-1.082-0.811c-0.18-0.135-0.225-0.361-0.135-0.541l0.811-1.307c0.045-0.090 0.135-0.135 0.225-0.18s0.225 0 0.27 0.045l1.307 0.946c0.045 0.045 0.090 0.090 0.135 0.135 0.090 0.135 0.045 0.315-0.045 0.451l-0.946 1.217c-0.090 0.090-0.18 0.135-0.27 0.135zM21.183 8.338l0.586 0.406 0.496-0.586-0.676-0.496-0.406 0.676zM10.096 9.645c-0.090 0-0.225-0.045-0.27-0.135l-0.992-1.172c-0.045-0.090-0.090-0.18-0.090-0.27s0.045-0.18 0.135-0.27l1.352-0.992c0.045-0.045 0.135-0.045 0.18-0.045v0c0.135 0 0.27 0.090 0.316 0.18l0.811 1.307c0.045 0.090 0.090 0.18 0.045 0.316s-0.090 0.18-0.18 0.225l-1.037 0.721c-0.090 0.090-0.18 0.135-0.27 0.135zM9.645 8.158l0.496 0.586 0.586-0.406-0.406-0.676-0.676 0.496zM19.425 8.203c-0.045 0-0.090 0-0.135-0.045l-1.262-0.406c-0.090 0-0.18-0.045-0.225-0.135-0.090-0.090-0.090-0.225-0.090-0.316l0.361-1.487c0.045-0.225 0.27-0.316 0.451-0.27l1.577 0.541c0 0 0.090 0.045 0.090 0.045v0c0.18 0.090 0.225 0.316 0.135 0.451l-0.586 1.397c-0.045 0.090-0.135 0.18-0.225 0.225 0 0-0.045 0-0.090 0zM18.569 7.076l0.676 0.225 0.27-0.676-0.766-0.27-0.18 0.721zM12.485 8.158c-0.18 0-0.316-0.090-0.361-0.27l-0.586-1.352c-0.045-0.135-0.045-0.27 0.045-0.361 0.045-0.090 0.135-0.135 0.225-0.135l1.577-0.496c0.045 0 0.090 0 0.135 0v0c0.18 0 0.316 0.135 0.316 0.27l0.361 1.487c0.045 0.225-0.090 0.406-0.27 0.451l-1.262 0.361c-0.090 0.045-0.135 0.045-0.18 0.045zM12.394 6.58l0.316 0.676 0.496-0.18c0 0 0.045 0 0.045 0l0.090-0.045-0.18-0.721-0.766 0.27zM16.721 7.527c-0.045 0-0.045 0 0 0l-0.451-0.045h-1.037c-0.225 0.045-0.406-0.135-0.451-0.361 0 0 0 0 0 0l-0.135-1.487c0-0.090 0.045-0.225 0.090-0.27 0.090-0.090 0.18-0.135 0.27-0.135h0.045c0 0 0.045 0 0.045 0h1.082l0.541 0.045c0.090 0 0.225 0.045 0.27 0.135s0.135 0.18 0.090 0.27l-0.135 1.532c0 0.090-0.045 0.18-0.135 0.27 0.090 0 0 0.045-0.090 0.045zM15.639 6.715h0.721l0.045-0.766h-0.946l0.045 0.766h0.135z"></path>
</svg>