<svg width="20" height="20" viewBox="0 0 20 20" fill="none" xmlns="http://www.w3.org/2000/svg">
<path fill-rule="evenodd" clip-rule="evenodd" d="M9.16699 1.66699C8.06192 1.66699 7.00212 2.10598 6.22071 2.88738C5.43931 3.66878 5.00033 4.72859 5.00033 5.83366C5.00033 6.93873 5.43931 7.99854 6.22071 8.77994C7.00212 9.56134 8.06192 10.0003 9.16699 10.0003C10.2721 10.0003 11.3319 9.56134 12.1133 8.77994C12.8947 7.99854 13.3337 6.93873 13.3337 5.83366C13.3337 4.72859 12.8947 3.66878 12.1133 2.88738C11.3319 2.10598 10.2721 1.66699 9.16699 1.66699ZM9.16699 10.8337C7.17116 10.8337 5.35449 11.412 4.01866 12.2262C3.35199 12.6345 2.78199 13.1137 2.37033 13.6345C1.96533 14.1478 1.66699 14.7612 1.66699 15.417C1.66699 16.1212 2.00949 16.6762 2.50283 17.072C2.96949 17.447 3.58533 17.6953 4.23949 17.8687C5.55449 18.2162 7.30949 18.3337 9.16699 18.3337C9.35866 18.3337 9.55033 18.332 9.73783 18.3295C9.87739 18.3276 10.0142 18.2906 10.1358 18.2221C10.2574 18.1535 10.3598 18.0555 10.4336 17.937C10.5074 17.8186 10.5503 17.6835 10.5583 17.5441C10.5664 17.4048 10.5392 17.2656 10.4795 17.1395C10.1628 16.4709 9.99909 15.7401 10.0003 15.0003C10.0003 13.957 10.3195 12.9903 10.8645 12.1895C10.9455 12.0705 10.9943 11.9325 11.0061 11.789C11.018 11.6456 10.9924 11.5015 10.932 11.3708C10.8716 11.2401 10.7783 11.1273 10.6613 11.0434C10.5444 10.9595 10.4076 10.9073 10.2645 10.892C9.90616 10.8537 9.53949 10.8337 9.16699 10.8337Z" fill="#7AA16D"/>
<path d="M15.5918 11.9238C15.7476 12.077 15.8371 12.2852 15.8409 12.5037L15.8409 14.1701L17.5073 14.1701C17.7257 14.1739 17.934 14.2634 18.0871 14.4192C18.2403 14.5751 18.3261 14.7848 18.3261 15.0033C18.3261 15.2218 18.2403 15.4316 18.0871 15.5874C17.934 15.7433 17.7257 15.8327 17.5073 15.8365L15.8409 15.8365L15.8409 17.503C15.8428 17.6136 15.8226 17.7235 15.7816 17.8263C15.7406 17.929 15.6796 18.0226 15.602 18.1015C15.5244 18.1805 15.4319 18.2432 15.3299 18.2859C15.2278 18.3287 15.1183 18.3508 15.0076 18.3508C14.897 18.3508 14.7874 18.3287 14.6854 18.2859C14.5834 18.2432 14.4909 18.1805 14.4133 18.1015C14.3357 18.0226 14.2747 17.929 14.2337 17.8263C14.1926 17.7235 14.1725 17.6136 14.1744 17.503L14.1744 15.8365L12.508 15.8365C12.3974 15.8385 12.2875 15.8183 12.1847 15.7773C12.0819 15.7363 11.9883 15.6752 11.9094 15.5977C11.8305 15.5201 11.7678 15.4276 11.725 15.3256C11.6822 15.2235 11.6602 15.114 11.6602 15.0033C11.6602 14.8927 11.6822 14.7831 11.725 14.6811C11.7678 14.579 11.8305 14.4865 11.9094 14.409C11.9883 14.3314 12.0819 14.2703 12.1847 14.2293C12.2875 14.1883 12.3974 14.1682 12.508 14.1701H14.1744V12.5037C14.1782 12.2852 14.2677 12.077 14.4235 11.9238C14.5794 11.7707 14.7891 11.6849 15.0076 11.6849C15.2262 11.6849 15.4359 11.7707 15.5918 11.9238Z" fill="#7AA16D"/>
</svg>
