<?xml version="1.0" encoding="utf-8"?>
<!-- Generator: Adobe Illustrator 27.2.0, SVG Export Plug-In . SVG Version: 6.00 Build 0)  -->
<svg version="1.1" id="Layer_1" xmlns="http://www.w3.org/2000/svg" xmlns:xlink="http://www.w3.org/1999/xlink" x="0px" y="0px"
	 viewBox="0 0 71 71" style="enable-background:new 0 0 71 71;" xml:space="preserve">
<g>
	<g>
		<g>
			<g>
				<path class="st0" d="M57.9,58.3H13.1c-2.9,0-5.3-2.4-5.3-5.3v-5.3c0-1.4,0.6-2.8,1.6-3.8l1.7-1.7c0.6-0.6,0.9-1.4,0.9-2.2V8.2
					c0-2.9,2.4-5.3,5.3-5.3h36.4c2.9,0,5.3,2.4,5.3,5.3v31.9c0,0.8,0.3,1.6,0.9,2.2l1.7,1.7c1,1,1.6,2.3,1.6,3.8V53
					C63.2,55.9,60.8,58.3,57.9,58.3z M17.3,5.1c-1.7,0-3.1,1.4-3.1,3.1v31.9c0,1.4-0.6,2.8-1.6,3.8l-1.7,1.7
					c-0.6,0.6-0.9,1.4-0.9,2.2V53c0,1.7,1.4,3.1,3.1,3.1h44.8c1.7,0,3.1-1.4,3.1-3.1v-5.3c0-0.8-0.3-1.6-0.9-2.2l-1.7-1.7
					c-1-1-1.6-2.3-1.6-3.8V8.2c0-1.7-1.4-3.1-3.1-3.1H17.3z"/>
				<path class="st0" d="M49.6,43.7H21.4c-2,0-3.6-1.6-3.6-3.6V12.3c0-2,1.6-3.6,3.6-3.6h28.1c2,0,3.6,1.6,3.6,3.6v27.7
					C53.2,42.1,51.6,43.7,49.6,43.7z M21.4,10.5c-1,0-1.8,0.8-1.8,1.8v27.7c0,1,0.8,1.8,1.8,1.8h28.1c1,0,1.8-0.8,1.8-1.8V12.3
					c0-1-0.8-1.8-1.8-1.8H21.4z"/>
				<path class="st0" d="M52.3,68.1h-35c-2.9,0-5.3-2.4-5.3-5.3V60h2.2v2.8c0,1.7,1.4,3.1,3.1,3.1h35c1.7,0,3.1-1.4,3.1-3.1V60h2.2
					v2.8C57.6,65.7,55.2,68.1,52.3,68.1z"/>
			</g>
			<g>
				<g>
					<path class="st0" d="M40.8,33.3C40.8,33.3,40.8,33.3,40.8,33.3c-1.7,0-3.3-0.7-4.5-1.8l-0.4-0.4l-0.5,0.5
						c-1.2,1.2-2.7,1.8-4.4,1.8c-1.7,0-3.2-0.6-4.4-1.8c-1.2-1.2-1.8-2.7-1.8-4.4c0-1.7,0.7-3.2,1.8-4.4c0,0,0,0,0,0l8.4-8.4
						c0.4-0.4,1.1-0.4,1.6,0l8.4,8.4c2.4,2.4,2.5,6.4,0.1,8.8C44,32.7,42.5,33.3,40.8,33.3z M35.9,28.4c0.3,0,0.6,0.1,0.8,0.3
						l1.2,1.2c1.6,1.6,4.1,1.6,5.6,0.1c1.5-1.5,1.5-4.1-0.1-5.6l-7.6-7.6l-7.6,7.6c-0.8,0.8-1.2,1.8-1.2,2.8c0,1.1,0.4,2.1,1.1,2.8
						s1.7,1.2,2.8,1.1c1.1,0,2.1-0.4,2.8-1.2l1.2-1.2C35.4,28.5,35.7,28.4,35.9,28.4z"/>
					<path class="st0" d="M40,36.7h-8c-0.6,0-1.1-0.5-1.1-1.1s0.5-1.1,1.1-1.1h8c0.6,0,1.1,0.5,1.1,1.1S40.6,36.7,40,36.7z"/>
				</g>
			</g>
		</g>
		<g>
			<path class="st0" d="M25.2,51.6h-5.9c-0.8,0-1.4-0.6-1.4-1.4v-1.9c0-0.8,0.6-1.4,1.4-1.4h5.9c0.8,0,1.4,0.6,1.4,1.4v1.9
				C26.5,50.9,25.9,51.6,25.2,51.6z"/>
			<path class="st0" d="M38.5,51.6h-5.9c-0.8,0-1.4-0.6-1.4-1.4v-1.9c0-0.8,0.6-1.4,1.4-1.4h5.9c0.8,0,1.4,0.6,1.4,1.4v1.9
				C39.8,50.9,39.2,51.6,38.5,51.6z"/>
			<path class="st0" d="M51.8,51.6h-5.9c-0.8,0-1.4-0.6-1.4-1.4v-1.9c0-0.8,0.6-1.4,1.4-1.4h5.9c0.8,0,1.4,0.6,1.4,1.4v1.9
				C53.2,50.9,52.5,51.6,51.8,51.6z"/>
		</g>
	</g>
</g>
</svg>
