<svg width="34" height="33" viewBox="0 0 34 33" fill="none" xmlns="http://www.w3.org/2000/svg">
<path d="M4.00762 21.7275C4.00762 21.1752 3.55991 20.7275 3.00762 20.7275H0.982422V28.7035V32.6627V32.6914H13.058V30.7035C13.058 30.1512 12.6103 29.7035 12.058 29.7035H4.00762V21.7275Z" fill="#332FF8"/>
<path d="M30.1588 29.7035H22.1084C21.5561 29.7035 21.1084 30.1512 21.1084 30.7035V32.6914H33.184V32.6627V28.7035V20.7275H31.1588C30.6065 20.7275 30.1588 21.1752 30.1588 21.7275V29.7035Z" fill="#332FF8"/>
<path d="M0.982422 0.825649V4.77534V12.7609H3.00762C3.55991 12.7609 4.00762 12.3132 4.00762 11.7609V3.77534H12.058C12.6103 3.77534 13.058 3.32763 13.058 2.77534V0.796936H0.982422V0.825649Z" fill="#332FF8"/>
<path d="M21.1084 0.796936V2.77534C21.1084 3.32763 21.5561 3.77534 22.1084 3.77534H30.1588V11.7609C30.1588 12.3132 30.6065 12.7609 31.1588 12.7609H33.184V4.77534V0.825649V0.796936H21.1084Z" fill="#332FF8"/>
</svg>
