<svg xmlns="http://www.w3.org/2000/svg" viewBox="0 0 400 230" style="enable-background:new 0 0 400 230" xml:space="preserve"><path d="M96.2 105c-1.5 0-2.9.3-4.3.8s-2.7 1.2-3.8 2.2c-1.1 1-2 2.1-2.7 3.5-.7 1.4-1 2.9-1 4.7 0 1.7.3 3.4 1 4.7.7 1.4 1.5 2.5 2.7 3.5 1.1 1 2.4 1.7 3.8 2.2s2.8.8 4.3.8 2.9-.3 4.3-.8 2.7-1.2 3.8-2.2c1.1-1 2-2.1 2.7-3.5.7-1.4 1-2.9 1-4.7 0-1.7-.3-3.3-1-4.7-.7-1.4-1.6-2.5-2.7-3.5s-2.4-1.7-3.8-2.2c-1.3-.5-2.8-.8-4.3-.8m0 28.9c-2.7 0-5.2-.3-7.6-1-2.4-.7-4.5-1.7-6.3-3.2-1.7-1.5-3.2-3.4-4.2-5.6-1-2.3-1.5-4.8-1.5-7.8s.5-5.6 1.5-7.9c1-2.3 2.4-4.1 4.2-5.6 1.7-1.5 3.8-2.6 6.2-3.3 2.4-.7 4.9-1.1 7.6-1.1s5.2.4 7.6 1.1c2.4.7 4.5 1.9 6.2 3.3 1.7 1.5 3.2 3.4 4.2 5.6 1 2.3 1.5 4.9 1.5 7.9s-.5 5.6-1.5 7.8c-1 2.3-2.4 4.1-4.2 5.6-1.7 1.5-3.8 2.5-6.3 3.2-2.2.7-4.7 1-7.4 1m75.7-28.9c-1.5 0-2.9.3-4.3.8s-2.7 1.2-3.8 2.2c-1.1 1-2 2.1-2.7 3.5-.7 1.4-1 2.9-1 4.7 0 1.8.3 3.4 1 4.7s1.5 2.5 2.7 3.5c1.1 1 2.4 1.7 3.8 2.2s2.9.8 4.3.8c1.5 0 2.9-.3 4.3-.8s2.7-1.2 3.8-2.2c1.1-1 2-2.1 2.7-3.5.7-1.4 1-2.9 1-4.7 0-1.8-.3-3.3-1-4.7-.7-1.4-1.6-2.5-2.7-3.5s-2.4-1.7-3.8-2.2c-1.4-.5-2.9-.8-4.3-.8m0 28.9c-2.7 0-5.2-.3-7.6-1-2.4-.7-4.5-1.7-6.3-3.2-1.7-1.5-3.2-3.4-4.2-5.6-1-2.3-1.6-4.8-1.6-7.8s.5-5.6 1.6-7.9c1-2.3 2.4-4.1 4.2-5.6 1.7-1.5 3.8-2.6 6.2-3.3 2.4-.7 4.9-1.1 7.6-1.1s5.2.4 7.6 1.1c2.4.7 4.5 1.9 6.2 3.3 1.7 1.5 3.2 3.4 4.2 5.6 1 2.3 1.5 4.9 1.5 7.9s-.5 5.6-1.5 7.8c-1 2.3-2.4 4.1-4.2 5.6-1.7 1.5-3.8 2.5-6.3 3.2-2.2.7-4.7 1-7.4 1m-108.5 3.9-27.9-32.3v32.3H27V92.5h8.9l26.8 31v-31h8.5v45.3zm74.3-4.2h-7.4l-15.1-34.8h8.4L134 123l10.4-24.2h8.4zm148.2 0v-28.2h-12.1v-6.6H306v6.6h-12.2v28.2zm25.9-34.8h8v34.8h-8zm-48.5 19.7-4.8-11.2-4.8 11.2h9.6zm6.5 15.1-3.6-8.5H251l-3.6 8.5h-7.8L255 98.8h7.3l15.4 34.8h-7.9zm81.5 4.5c-3.3 0-6.6-.5-9.7-1.4-3.1-.9-5.9-2.4-8.2-4.3-2.4-1.9-4.3-4.3-5.6-7.2-1.4-2.8-2.1-6.3-2.1-10.1s.7-7.2 2.1-10c1.4-2.9 3.3-5.4 5.6-7.3 2.4-1.9 5.1-3.4 8.2-4.4 3.1-1 6.3-1.5 9.7-1.5 6.8 0 13.1 2.3 17.3 4 .5.2 3.2 1.4 3.2 1.4l-4.3 7.2-.6-.4c-4.2-2.5-9-4.2-13.4-4.7-.8-.1-1.5-.1-2.1-.1h-.6c-2 .1-4.1.4-5.9 1-2 .7-3.8 1.7-5.4 3-1.5 1.3-2.8 3-3.7 4.8-.9 1.9-1.4 4.1-1.4 6.6s.5 4.7 1.4 6.6c.9 1.9 2.1 3.6 3.7 4.8s3.3 2.3 5.4 3c2 .7 4.2 1 6.5 1 7.3 0 13.4-3.3 17.2-6.1l.7-.5 3.8 6.6-.6.4c-4.8 3-12.1 6.8-19.7 7.3-.6.2-1.1.3-1.5.3M227.4 98.8l-11.3 20.7-11.4-20.7H197v34.8h6.9V112l12.2 21.7 12.1-21.7v21.6h6.9V98.8z" style="fill:#00285a"/></svg>