<svg xmlns="http://www.w3.org/2000/svg" xmlns:xlink="http://www.w3.org/1999/xlink" viewBox="0 0 400 230" style="enable-background:new 0 0 400 230" xml:space="preserve"><defs><path id="a" d="M9 29.3h382v171.4H9z"/></defs><clipPath id="b"><use xlink:href="#a" style="overflow:visible"/></clipPath><g style="clip-path:url(#b)"><defs><path id="c" d="M9 29.3h382v171.4H9z"/></defs><clipPath id="d"><use xlink:href="#c" style="overflow:visible"/></clipPath><path d="M115.8 148.7c-1.5 0-2.7.6-3.5 1.7-.8 1.1-1.2 2.7-1.2 4.7 0 4.2 1.6 6.3 4.7 6.3 1.3 0 2.9-.3 4.8-1v3.3c-1.5.6-3.3 1-5.2 1-2.7 0-4.8-.8-6.3-2.5-1.4-1.7-2.2-4-2.2-7.1 0-1.9.4-3.7 1.1-5.1.7-1.5 1.7-2.6 3.1-3.4 1.3-.8 2.9-1.2 4.7-1.2 1.8 0 3.7.4 5.5 1.3L120 150l-2.1-.9c-.7-.3-1.4-.4-2.1-.4m54.7-3h4v18.7h-4zm61.9 18.7h-4V149h-5.1v-3.3h14.2v3.3h-5.1zm59.8-11 3.9-7.7h4.3l-6.3 11.4v7.3h-3.9v-7.1l-6.2-11.6h4.3zm9.1-57.5h-4.4c-.8 0-.9 0-1-.8-.2-1.7-.6-3.4-1.3-5-1.7-3.7-4.7-5.8-8.8-6.3-2.3-.3-4.5-.1-6.7.6-3.2 1-5.3 3.1-6.7 6.1-.6 1.4-1 2.9-1.2 4.4v.5c0 .3-.2.4-.5.5H261c-.3 0-.4-.2-.5-.4-.1-.6-.2-1.1-.3-1.7-.4-1.9-1.1-3.7-2.3-5.3-2-3-4.9-4.5-8.5-4.7-1.5-.1-3.1 0-4.6.4-3.9.9-6.5 3.3-8 7-.5 1.3-.9 2.6-1 4-.1.9-.1.9-1.1.9h-9c-.5 0-.6-.1-.6-.7.1-.6.1-1.2.2-1.8.7-3.9 2-7.6 4.2-10.9 3.3-4.9 7.8-7.9 13.6-9 1.8-.3 3.6-.5 5.4-.5 4.5 0 8.5 1.5 12 4.3 1.6 1.3 3 2.8 4.3 4.4.2.3.4.6.7.9.2.2.3.2.5 0 .3-.3.5-.6.8-.9 1.3-1.6 2.8-3.1 4.5-4.4 3.6-2.7 7.6-4.1 12.1-4.2 2.8-.1 5.6.3 8.3 1.2 4.5 1.5 7.9 4.3 10.5 8.3 2 3.2 3.3 6.7 4 10.4.1.7.2 1.4.3 2.2.1.8.1.8-.8.9h-4.4zM93 98.8h4.6c.6 0 .6.1.7.6v2.6c.1 1.9.4 3.7 1.1 5.4 1.3 3.1 3.3 5.7 6.3 7.3 1.8 1 3.8 1.6 5.9 1.8 2.5.2 4.9.2 7.4-.4 5.7-1.4 9.3-5 11.1-10.5.4-1.1.4-2.1.5-3.5v-2.8c0-.4.1-.5.5-.5h9.6c.4 0 .5.1.5.5.1 3.1 0 6.2-.8 9.3-.9 3.4-2.4 6.6-4.5 9.5-2.9 3.7-6.6 6.3-11.1 7.7-2.9.9-5.9 1.4-9 1.5-3.2.1-6.3-.2-9.4-.9-7.7-2-13.1-6.7-16.3-13.9-1.2-2.7-1.9-5.4-2.2-8.3-.1-1.6 0-3.2-.1-4.9 0-.3.2-.4.5-.4h2.2c.7-.2 1.6-.1 2.5-.1zm37.6-3c-.2-.3-.2-.6-.3-1-1-4.9-3.8-8.2-8.5-10-1.9-.7-3.8-1.1-5.8-1.2-2.6-.1-5.3 0-7.8.7-3.4 1-6.1 2.8-8 5.8-1 1.5-1.5 3.2-1.9 5-.1.6-.1.6-.7.6h-9.4c-.6 0-.7-.1-.6-.6.1-.8.2-1.5.4-2.3.8-3.7 2.3-7.1 4.5-10.1 3.1-4.3 7.3-7.1 12.4-8.6 2.5-.7 5-1.1 7.5-1.2 3.5-.2 6.9.1 10.3 1 4.5 1.1 8.4 3.3 11.5 6.7 2.6 2.8 4.4 6.2 5.6 9.9.4 1.2.7 2.4.9 3.7.1.4.1.7.1 1.1 0 .5-.1.6-.6.6h-9c-.1 0-.3-.1-.6-.1M45.1 73.3h8.8c2 0 3.9.2 5.8.8 3.4.9 6.6 2.4 9.4 4.6 4 3.2 6.5 7.3 7.4 12.3.2 1.1.3 2.2.4 3.4v.8c0 .6-.1.7-.7.7h-9.5c-.3 0-.5-.2-.5-.4 0-.8-.1-1.6-.3-2.4-.3-1.8-1-3.5-2.1-5-1.7-2.3-4.1-3.5-6.8-4.1-1-.2-1.9-.3-2.9-.3h-9.5c-.2 0-.4.2-.4.4v10.7c0 1.1 0 1.1-1.1 1.1h-9.2c-.2 0-.3-.1-.3-.3v-21c0-1.3 0-1.2 1.3-1.2 3.4-.1 6.8-.1 10.2-.1m124.3 54h-15.9c-.2 0-.4-.1-.4-.4v-26.7c0-1.5-.1-1.4 1.4-1.4h8.8c.2 0 .4.1.4.4v16c0 1.5-.1 1.4 1.4 1.4h19.6c1.5 0 1.4-.1 1.4 1.4v8.9c0 .2-.2.4-.4.4h-16.3M360.1 73h17.3c.2 0 .4.1.4.4v9.8c0 .2-.2.4-.4.4h-10.7c-1.1 0-1.1 0-1.1 1.1v10.6c0 .5-.1.6-.6.6h-9.5c-.3 0-.5-.1-.5-.4v-11c0-.8-.1-.8-.8-.8h-10c-2 0-1.7.3-1.8-1.7v-8.5c0-.2.2-.4.4-.4h1.1c5.4-.1 10.8-.1 16.2-.1m-40.5 40V99.7c0-1.1-.1-1.1 1.1-1.1h9.1c.3 0 .4.2.4.5v27.1c0 .9 0 .9-1 .9H320c-.5 0-.5-.1-.5-.6v-1l.1-12.5zm-23.6 0V99.9c0-1.1-.1-1.1 1.1-1.1h9.1c.2 0 .3.1.3.3v27.7c0 .4-.1.5-.5.5h-9.7c-.2 0-.3-.1-.3-.3v-14zm-24.9 0v13c0 1.3.1 1.2-1.2 1.2h-9.1c-.2 0-.3-.1-.3-.3v-27c0-1.2-.1-1.2 1.2-1.2h9.1c.2 0 .3.1.3.3v14zm-71.2 0V99.6c0-.9 0-.9 1-.9h9.3c.3 0 .4.2.4.5v27.4c0 .6-.1.7-.7.7h-9.3c-.4 0-.5-.1-.5-.6v-1c-.2-4.2-.2-8.4-.2-12.7zM44.2 126.7c-.3.2-.5.2-.8.2h-9.3c-.3 0-.5-.1-.5-.4V99.3c0-.5.1-.5.6-.6h9.6c.2 0 .4.1.4.4v26.5c.1.4.2.8 0 1.1m32.7-13.5v13.4c0 .6-.1.7-.7.7h-9.6c-.2 0-.3-.2-.3-.3v-26.6c0-1.1 0-1.1 1.1-1.1h9c.4 0 .5.1.6.6v1.1c-.1 3.9-.1 8.1-.1 12.2m148.2-.2V99.1c0-.2.1-.4.4-.4h9.6c.4 0 .5.1.5.5v27.6c0 .2-.1.4-.4.4h-9.5c-.6 0-.6-.1-.7-.6v-1c.1-4.1.1-8.3.1-12.6zm140.5.2v12.9c0 1.3.1 1.2-1.2 1.2h-9c-.2 0-.4-.2-.4-.4v-26.7c0-1.7-.2-1.5 1.5-1.5h8.7c.2 0 .4.2.4.4v14.1zm-35.4-28.7v10.8c0 .6-.1.7-.7.7h-9.2c-.5 0-.6-.1-.6-.6V73.5c0-.5.1-.5.6-.6h9.3c.6 0 .6.1.7.6v.9c-.1 3.4-.1 6.8-.1 10.1m-130.3-.1V74.1c0-1.1 0-1.1 1.1-1.1h9.2c.2 0 .3.1.3.3v21.2c0 1.2 0 1.2-1.2 1.2h-9.1c-.2 0-.3-.1-.3-.3v-11m-36.3 0v10.3c0 1.1 0 1.1-1 1.1h-9.1c-.2 0-.4-.2-.4-.4V74.3c0-1.5-.1-1.4 1.4-1.4h8.7c.3 0 .4.2.4.5v11" style="clip-path:url(#d);fill:#231f20"/></g></svg>