<svg xmlns="http://www.w3.org/2000/svg" viewBox="0 0 400 230" style="enable-background:new 0 0 400 230" xml:space="preserve"><style>.st2{fill:#161f49}</style><g id="Layer_1"><path class="st2" d="M114.7 99.5c-4.8-11.8-24.8-14.5-46.5-6.8l-9.6-6c-3-1.7-6.4.4-6.6 3.8v9.8c-18.7 11.2-29.5 27.2-24.9 38.6 5.3 13.1 29.2 14.9 53.4 4.1 24.2-11 39.5-30.4 34.2-43.5zm-53.2-5.2 23 14.5c1.7 1 1.9 3.7.1 4.8l-23.2 14.1c-1.8 1-4.3-.2-4.2-2.8l-.1-28.1c.1-2.3 2.4-3.7 4.4-2.5zM49.3 147c-10.5-.8-14.7-7.7-11.9-17.2 0 1.6.2 3.1.8 4.5 4.1 10.1 22.5 11.5 41.2 3.1.4-.2.8-.4 1.1-.5-10.5 6.8-22.1 10.8-31.2 10.1zm43.6-25.5c-9.3 11.8-26.2 20-37.6 19.2-11.4-.9-13.2-11.2-3.8-23 .2-.2.4-.5.6-.7v14.9c-.1 3.8 3.6 5.6 6.2 4.1l34.2-21c2.7-1.7 2.4-5.6-.1-7.1l-13.9-8c3.8-1.1 7.4-1.7 10.6-1.4 11.4.8 13.1 11.1 3.8 23zm13-17.1c-.1-.1-.1-.3-.1-.4-3.3-8.1-15.9-10.6-30.4-6.9L73 95.6c7.2-3.1 14.3-4.7 20.2-4.2 8.8.7 13.2 5.8 12.7 13zm248.6 22.2-1.4-1.2c-1.3 1.6-2.6 2.8-3.8 3.7-1.2.9-2.1 1.7-2.8 1.6-.3 0-.6-.4-.9-.6-.2-.2-.4-.5-.4-.8 0-.5 0-1.1.1-1.6l.3-1.5 6.9-23.2c.2-.7.3-1.3.4-1.9.1-.6.2-1 .2-1.4 0-1.3-.3-2.2-.9-2.8-.6-.6-1.5-.9-2.8-.9-2.4 0-5.6 1.4-9.7 4-4 2.7-8.5 6.5-13.3 11.4l9.5-34h-2.5c-1.9.8-4 1.3-6.1 1.8-2.2.4-4.5.7-7 .8l-.5 2.2h3.1c2 0 3.3.2 3.7.5.4.3.6.9.6 1.8 0 .3 0 .6-.1.9 0 .3-.1.6-.2.9l-9.2 33.3c-3.5 5.4-6.8 7.9-8.8 9.2-2 1.3-4 2.2-6.1 2.2-2.6 0-4.7-1.2-6.2-2.9s-2.3-4.1-2.3-7.1c0-2.7.5-5.3 1.4-8.1 1-2.8 2.3-5.4 4.1-7.8 1.4-2 3.1-3.6 5-4.8 1.9-1.2 3.8-1.7 5.7-1.7.9 0 1.6.1 2.1.4.5.3.8.7.8 1.1 0 .3-.2.9-.8 1.9-.5 1-.8 1.9-.8 2.7 0 1.1.3 2 1 2.7.6.7 1.5 1 2.5 1 1.3 0 2.4-.5 3.3-1.5.9-1 1.4-2.2 1.4-3.5 0-2.3-.9-4.1-2.7-5.5-1.8-1.4-4.2-2.1-7.2-2.1-2.9 0-5.6.6-8.4 1.9-2.7 1.2-5.2 3.1-7.4 5.4-2.4 2.6-4.3 5.5-5.7 8.7-1.4 3.2-2.1 6.4-2.1 9.5 0 .6 0 1.1.1 1.7-3 2.5-5.8 4.5-8.2 5.8-2.7 1.4-5.1 2.4-7.2 2.4-2.1 0-3.8-.9-4.9-2.1-1.1-1.2-1.7-2.9-1.7-5.2 0-.7 0-1.5.2-2.4.1-.9.3-1.8.5-2.8 7.6-.6 13.7-2.4 18.4-5.3 4.7-2.9 7-6.5 7-10.5 0-2.2-.8-4-2.4-5.3-1.6-1.3-3.8-1.9-6.6-1.9-3 0-5.9.7-8.8 2.1-2.8 1.4-5.5 3.4-7.9 6.1-2.5 2.8-4.4 6-5.9 9.5-1.4 3.6-2.1 7.1-2.2 10.6-1.6 2-2.9 3.5-4 4.4-1.2 1.1-2.2 1.6-3.1 1.6-.7 0-1.2-.2-1.6-.7-.4-.5-.6-1.1-.6-2 0-.4.1-.8.1-1.3.1-.5.2-1 .4-1.6l6.7-26.1h6.9l.7-2.9h-6.6l3.3-13.6h-2.5c-1.9 4.1-4.1 7.3-6.5 9.6-2.4 2.3-5.2 3.8-8.3 4.5l-.1.3c-.9-.6-2-.9-3.3-.9-1.7 0-3.1.5-4.1 1.5-1.1 1-1.6 2.4-1.6 4.1 0 1.5.8 2.8 2.3 4 1.5 1.1 2.2 2.2 2.2 3 0 1.1-.4 2.7-1.3 5s-2.6 5.9-5 10.8c-.5-2.7-1.2-6.4-2-10.9-2-11.4-3.7-17-5-17.1-.2 0-2 .2-5.2.7-2 .3-4 .6-6 .8l.2-.6h-11.2l-1.2 4.7c-.4-2-1.1-3.6-2.3-4.6-1.2-1-2.8-1.5-4.8-1.5-2.1 0-4.4.6-6.7 2-2.3 1.3-4.5 3.2-6.7 5.7-2.7 3.1-4.9 6.6-6.5 10.6-1.5 3.7-2.3 7.2-2.4 10.6-1 1.5-1.7 2.5-2.1 2.9-.6.6-1.1.9-1.5.9-.4 0-.8-.2-1-.5-.2-.3-.3-.8-.3-1.3 0-.2.1-.6.2-1.2.1-.4.2-.7.3-1l12.1-47.7c-2.7.6-5.6 1.1-8.6 1.5-3 .4-6.2.8-9.5 1v2h.7c1.2 0 2 .2 2.5.6.5.4.8.9.8 1.7 0 .6-.2 1.9-.7 3.9-.1.6-.2 1-.3 1.3l-5.3 20.4c.1-.8.1-1.6.1-2.4 0-3.6-.8-6.3-2.5-8.3-1.6-1.9-4-2.9-7.1-2.9-2.2 0-4.4.7-6.4 2.2-2.1 1.4-4.3 3.8-6.6 7l2.3-8.2c-2.7.5-5.6 1-8.5 1.3-2.9.4-6 .7-9.3 1v2c1.6 0 2.7.2 3.3.6.6.4.9 1 .9 2 0 .3-.1.7-.1 1.3-.1.6-.2 1.1-.4 1.7l-8.8 35.6c-.7 3-1.4 4.9-2.1 5.6-.7.7-1.7 1.1-3.1 1.1h-.6v2.2h21.9v-2.1c-1.9-.1-3.2-.4-3.9-.8-.6-.4-.9-1.2-.9-2.3 0-.6 0-1.1.1-1.7.1-.6.2-1.1.4-1.7l2.4-8.9c.9.7 1.9 1.2 2.9 1.6 1.1.4 2.3.5 3.5.5 3 0 5.9-.8 8.6-2.5 2.7-1.7 5.2-4.2 7.6-7.5 1.6-2.3 3-4.7 4-7.3l-.4 1.5-.1.5c-1.2 4.7-1.8 7.5-1.8 8.6 0 2.2.6 3.9 1.7 5.1 1.1 1.2 2.8 1.8 4.9 1.8 2.4 0 4.7-.9 6.8-2.7 1.3-1.1 2.7-2.6 4.1-4.6.4 1.8 1.1 3.3 2.2 4.5 1.7 1.8 4 2.7 6.8 2.7s5.3-.9 7.6-2.6c2.3-1.7 4.4-4.3 6.4-7.9-.2 1.3-.4 2.3-.5 3.1-.1.8-.2 1.5-.2 2 0 1.8.5 3.1 1.6 4 1.1.9 2.6 1.4 4.7 1.4 2.5 0 4.8-.9 6.9-2.6 2.1-1.7 4.2-4.5 6.3-8.1l-1.9-1.5c-.3.4-.6 1-1.1 1.7-1.6 2.5-3 3.8-4 3.8-.4 0-.6-.2-.9-.5-.2-.4-.3-.8-.3-1.4 0-.6.5-2.7 1.5-6.4v-.1l5.5-20.1c.4.1.7.3 1 .6.6.6 1.1 1.9 1.7 3.8.6 2.3 1.3 5.4 2.1 9.4s1.5 8.4 2.3 13.2c.4 2.3.6 4.2.8 5.7.2 1.5.3 2.8.3 3.8 0 1.4-.6 2.8-1.8 4.3-1.1 1.5-2.2 2.2-3.1 2.2-.5 0-1.5-.5-3-1.5s-2.9-1.6-4.2-1.6c-1.7 0-3 .5-4.1 1.5-1.1 1-1.6 2.3-1.6 3.8 0 1.7.6 3.1 1.9 4 1.3 1 3 1.5 5.2 1.5 3.3 0 6.7-1.7 10.3-5.1 3.6-3.4 7.5-8.8 11.9-16.1 3.8-6.5 6.9-12.3 9.1-17.4 2.2-5.2 3.3-8.9 3.3-11.2 0-1.1-.2-2.1-.6-3h5.1l-6.9 27c-.2.9-.4 1.7-.5 2.4-.1.7-.2 1.4-.2 2 0 1.7.4 3 1.3 4s2.1 1.5 3.6 1.5c1.9 0 4-.9 6.3-2.7 1.8-1.4 3.5-3.2 5.4-5.5.4 2.2 1.2 4 2.5 5.3 1.8 2 4.4 3 7.7 3 3.4 0 6.8-.8 10.3-2.6 3-1.4 6.1-3.5 9.4-6.3.6 1.9 1.5 3.6 2.8 4.9 2.4 2.6 5.6 3.9 9.4 3.9 3.5 0 6.8-.9 9.7-2.7 2.1-1.3 4.1-3.1 6-5.4l-2.3 8.1c.6-.1 1.1-.1 1.7-.2h2c.6 0 2.4.1 3 .2l4.7-16.5c.5-1.6 1.3-3.1 2.3-4.6 1.1-1.5 2.8-3.2 5.1-5.3 2.6-2.3 4.8-4.1 6.8-5.4 2-1.3 3.4-1.9 4.4-1.9.6 0 1.1.2 1.5.5.4.3.5.8.5 1.4 0 .2 0 .5-.1.7 0 .3-.1.7-.3 1.2l-7.1 24c-.2.5-.3.9-.4 1.4-.1.4-.1.8-.1 1.2 0 1 .3 1.8 1 2.4.7.6 1.6.9 2.9.9 1.8 0 3.9-.8 6.1-2.3 2.8-.6 5.1-2.8 7.5-5.8zm-81.6-22.9c2.8-3 5.8-4.5 9-4.5 1.2 0 2 .3 2.6.8.6.6.9 1.4.9 2.6 0 3.4-1.8 6.4-5.5 9.1-3.6 2.6-8.1 4.1-13.5 4.3 1.6-5.2 3.7-9.3 6.5-12.3zm-128.3 10.6c-.9 3.3-2.1 6.5-3.6 9.8-1.2 2.6-2.5 4.6-3.8 5.9-1.3 1.4-2.6 2.1-3.8 2.1-.8 0-1.4-.2-1.9-.7-.5-.5-.7-1.1-.7-1.9 0-.4.1-1.1.3-2.1.2-.9.4-2 .7-3.2l2.1-7.7c1.3-4.9 2.7-8.4 4.2-10.8 1.5-2.3 3.2-3.5 5-3.5.8 0 1.5.4 2 1.2.5.8.8 1.8.8 3.2 0 1.9-.4 4.5-1.3 7.7zm53-3.6c-.8 2.9-1.8 6-3.1 9.2-1.2 2.8-2.5 5-3.9 6.6-1.4 1.6-2.7 2.3-4 2.3-.9 0-1.6-.4-2.1-1.1-.5-.8-.8-1.8-.8-3.1 0-2.1.5-4.7 1.4-7.8.9-3 2.2-6.1 3.9-9.3 1.4-2.6 2.6-4.5 3.7-5.7 1.1-1.1 2.2-1.7 3.3-1.7.8 0 1.5.3 1.9 1 .5.7.7 1.6.7 2.7.2 1.7-.2 3.9-1 6.9z"/><path class="st2" d="M237.4 147.5c-.4-.2-.9-.5-1.6-.8-.6-.3-1.2-.5-1.7-.8-.8-.4-1.2-1-1.2-1.6 0-1.1.7-1.6 2-1.6 1 0 1.6.4 1.7 1.3v.9h2v-.2c0-1.2-.2-2-.7-2.5-.6-.5-1.6-.8-3-.8-1.1 0-2 .2-2.7.5-.9.5-1.3 1.3-1.3 2.4 0 1 .4 1.8 1.2 2.4.4.3.8.5 1.4.8l1.4.6c.5.2.9.4 1.2.7.5.3.7.8.7 1.4 0 .9-.4 1.4-1.1 1.6-.3.1-.7.2-1.1.2-1.1 0-1.7-.4-1.9-1.2-.1-.3-.1-.6-.1-.9v-.6h-2v1.4c.1.9.5 1.6 1.2 2 .6.4 1.6.6 2.7.6 2.8 0 4.2-1.1 4.2-3.1.2-1.3-.3-2.1-1.3-2.7zm8.9-5.8c-.7-.2-1.3-.3-2.1-.3-.7 0-1.4.1-2.1.3-.9.3-1.5.8-1.7 1.5-.2.4-.3 1.1-.3 2.1v3.9c0 1.5.2 2.5.7 3 .6.7 1.7 1.1 3.5 1.1 2.4 0 3.7-.8 3.9-2.3.1-.5.1-1.1.1-1.8v-3.9c0-.9-.1-1.6-.3-2.1-.2-.7-.8-1.2-1.7-1.5zm0 7.4c0 .5 0 .9-.1 1.3-.1.6-.4 1.1-1 1.3-.3.1-.7.2-1 .2-.4 0-.8-.1-1.1-.3-.4-.2-.6-.4-.8-.7-.1-.3-.2-.9-.2-1.9v-3.9c0-.4 0-.8.1-1.1.1-.7.4-1.1 1.1-1.3.3-.1.6-.2 1-.2.9 0 1.5.3 1.8.8.2.3.3.9.3 1.8l-.1 4zm9.8.2c0 .4 0 .8-.1 1.1-.1 1.1-.8 1.6-2 1.6s-1.9-.6-1.9-1.7v-8.7h-2v9.3c0 .5.3 1 .6 1.4.7.7 1.8 1 3.3 1 1.5 0 2.6-.3 3.3-1 .4-.4.6-.8.7-1.3 0-.4.1-.8.1-1.5v-7.8h-2v7.6zm11.3 1.7-.1-1.4c0-.4-.1-.8-.1-1.1-.1-.5-.4-.8-.8-1-.3-.1-.8-.2-1.4-.3 1-.2 1.8-.4 2.1-.8.4-.5.6-1.1.6-1.9 0-1.6-.7-2.5-2.2-2.8-.4-.1-.8-.1-1.2-.1h-4.5v11.5h2v-5.2h1.4c.4 0 .7 0 1 .1.7.2 1.1.7 1.2 1.5l.1 1.1.1 1c0 .3.1.6.1.8l.2.7h2c-.2-.4-.2-.7-.3-.9-.1-.3-.1-.7-.2-1.2zm-4.2-4.4h-1.4v-3.7h1.5c.9 0 1.5.1 1.8.3.4.2.7.7.7 1.3 0 .6-.1 1-.2 1.3-.2.4-.6.6-1.2.7-.4.1-.7.1-1.2.1zm11.9 3.2-.1.7c-.1 1-.7 1.5-1.8 1.5-.8 0-1.4-.3-1.7-.7-.1-.2-.2-.8-.2-1.6v-5.4c0-.2.1-.5.3-.7.3-.5.9-.7 1.8-.7 1.1 0 1.6.5 1.6 1.4v.8h2v-1.3c-.2-1.4-1.4-2.1-3.6-2.1-1.6 0-2.7.4-3.4 1.2-.3.3-.5.8-.5 1.3-.1.4-.1.9-.1 1.4v4.6c0 1.9.8 2.9 2.4 3.2.5.1 1 .1 1.5.1.6 0 1.2-.1 1.7-.2.4-.1.8-.3 1.1-.6.5-.5.8-1.1.9-2v-1.1h-2l.1.2zm5.6-2 4.2.1v-1.3h-4.2v-3.7h4.5v-1.3h-6.4l-.1 11.5h6.6v-1.3h-4.6zm15.8-6c-.7-.2-1.3-.3-2.1-.3-.7 0-1.4.1-2.1.3-.9.3-1.5.8-1.7 1.5-.2.4-.3 1.1-.3 2.1v3.9c0 1.5.2 2.5.7 3 .6.7 1.7 1.1 3.5 1.1 2.4 0 3.7-.8 3.9-2.3.1-.5.1-1.1.1-1.8v-3.9c0-.9-.1-1.6-.3-2.1-.3-.7-.8-1.2-1.7-1.5zm0 7.4c0 .5 0 .9-.1 1.3-.1.6-.4 1.1-1 1.3-.3.1-.7.2-1 .2-.4 0-.8-.1-1.1-.3-.4-.2-.6-.4-.7-.7-.1-.3-.2-.9-.2-1.9v-3.9c0-.4 0-.8.1-1.1.1-.7.4-1.1 1.1-1.3.3-.1.6-.2 1-.2.9 0 1.5.3 1.8.8.2.3.3.9.3 1.8l-.2 4zm3.7 3.9h2v-5.2h4.1v-1.3h-4.1v-3.7h4.3v-1.3h-6.3zm17.6-5.5c-.4-.2-.9-.5-1.6-.8-.6-.3-1.2-.5-1.7-.8-.8-.4-1.2-1-1.2-1.6 0-1.1.7-1.6 2-1.6 1 0 1.6.4 1.7 1.3v.9h2v-.2c0-1.2-.2-2-.7-2.5-.6-.5-1.6-.8-3-.8-1.1 0-2 .2-2.7.5-.9.5-1.3 1.3-1.3 2.4 0 1 .4 1.8 1.2 2.4.4.3.9.5 1.4.8l1.4.6c.5.2.9.4 1.2.7.5.3.7.8.7 1.4 0 .9-.4 1.4-1.1 1.6-.3.1-.7.2-1.1.2-1.1 0-1.7-.4-1.9-1.2-.1-.3-.1-.6-.1-.9v-.6h-2v1.4c.1.9.5 1.6 1.2 2 .6.4 1.5.6 2.7.6 2.8 0 4.2-1.1 4.2-3.1.1-1.3-.4-2.1-1.3-2.7zm8.8 1.7c0 .4 0 .8-.1 1.1-.1 1.1-.8 1.6-2 1.6s-1.9-.6-1.9-1.7v-8.7h-2v9.3c0 .5.3 1 .6 1.4.7.7 1.8 1 3.3 1 1.5 0 2.6-.3 3.3-1 .4-.4.6-.8.6-1.3 0-.4.1-.8.1-1.5v-7.8h-2l.1 7.6zm7.8-7.8c-1.6 0-2.7.4-3.4 1.2-.3.3-.5.8-.5 1.3-.1.4-.1.9-.1 1.4v4.6c0 1.9.8 2.9 2.4 3.2.5.1 1 .1 1.5.1.6 0 1.2-.1 1.7-.2.4-.1.8-.3 1.1-.6.5-.5.8-1.1.9-2v-1.1h-2v.4l-.1.7c-.1 1-.7 1.5-1.8 1.5-.8 0-1.4-.3-1.7-.7-.2-.2-.2-.8-.2-1.6v-5.4c0-.2.1-.5.3-.7.3-.5.9-.7 1.8-.7 1.1 0 1.6.5 1.6 1.4v.8h2v-1.3c0-1.6-1.2-2.3-3.5-2.3zm11.2 8.4-.1.7c-.1 1-.7 1.5-1.8 1.5-.8 0-1.3-.3-1.7-.7-.1-.2-.2-.8-.2-1.6v-5.4c0-.2.1-.5.3-.7.3-.5.9-.7 1.8-.7 1.1 0 1.6.5 1.6 1.4v.8h2v-1.3c-.2-1.4-1.4-2.1-3.6-2.1-1.6 0-2.7.4-3.4 1.2-.3.3-.5.8-.5 1.3-.1.4-.1.9-.1 1.4v4.6c0 1.9.8 2.9 2.4 3.2.5.1 1 .1 1.5.1.6 0 1.2-.1 1.7-.2.4-.1.8-.3 1.1-.6.5-.5.8-1.1.9-2v-1.1h-2l.1.2zm5.6-2h4.2v-1.3h-4.2V143h4.4v-1.3h-6.3l-.1 11.5h6.6v-1.3h-4.6zm12.2-.3c-.4-.2-.9-.5-1.6-.8-.6-.3-1.2-.5-1.7-.8-.8-.4-1.2-1-1.2-1.6 0-1.1.7-1.6 2-1.6 1 0 1.6.4 1.7 1.3v.9h2v-.2c0-1.2-.2-2-.7-2.5-.6-.5-1.6-.8-3-.8-1.1 0-2 .2-2.7.5-.9.5-1.3 1.3-1.3 2.4 0 1 .4 1.8 1.2 2.4.4.3.8.5 1.4.8l1.4.6c.5.2.9.4 1.2.7.5.3.7.8.7 1.4 0 .9-.4 1.4-1.1 1.6-.3.1-.7.2-1.1.2-1.1 0-1.7-.4-1.9-1.2-.1-.3-.1-.6-.1-.9v-.6h-2v1.4c.1.9.5 1.6 1.2 2 .6.4 1.5.6 2.7.6 2.8 0 4.2-1.1 4.2-3.1.1-1.2-.3-2.1-1.3-2.7zm9.1 0c-.4-.2-.9-.5-1.6-.8-.6-.3-1.2-.5-1.7-.8-.8-.4-1.2-1-1.2-1.6 0-1.1.7-1.6 2-1.6 1 0 1.6.4 1.7 1.3v.9h2v-.2c0-1.2-.2-2-.7-2.5-.6-.5-1.6-.8-3-.8-1.1 0-2 .2-2.7.5-.9.5-1.3 1.3-1.3 2.4 0 1 .4 1.8 1.2 2.4.4.3.8.5 1.4.8l1.4.6c.5.2.9.4 1.2.7.5.3.7.8.7 1.4 0 .9-.4 1.4-1.1 1.6-.3.1-.7.2-1.1.2-1.1 0-1.7-.4-1.9-1.2-.1-.3-.1-.6-.1-.9v-.6h-2v1.4c.1.9.5 1.6 1.2 2 .6.4 1.5.6 2.7.6 2.8 0 4.2-1.1 4.2-3.1.1-1.2-.4-2.1-1.3-2.7z"/></g></svg>