<svg xmlns="http://www.w3.org/2000/svg" viewBox="0 0 400 230" style="enable-background:new 0 0 400 230" xml:space="preserve"><style>.st2{fill-rule:evenodd;clip-rule:evenodd;fill:#d71920}</style><g id="Layer_1"><path id="Logo_Type_White" class="st2" d="m356.8 117.9 9.2 15h-10.5l-8.7-14.1h-.1v14.1h-9.5V96.4h14.2c3.3-.2 6.6.8 9.2 2.7 2.4 2.1 3.7 5.2 3.5 8.4.1 2.4-.7 4.8-2.1 6.8-1.2 1.9-3.1 3.2-5.2 3.6zm-3.2-12.1c-.4-.6-.9-1.1-1.5-1.4-.7-.3-1.4-.6-2.1-.7-.8-.1-1.6-.2-2.4-.2h-.9v9.1h.9c.8 0 1.6-.1 2.4-.2.7-.1 1.4-.3 2.1-.7.6-.3 1.1-.8 1.5-1.4.7-1.3.7-3 0-4.5zm-43.1-9.4h20.8v8.1H320v5.9h11.2v8.3H320v5.9h11.2v8.3h-20.8V96.4zm-137.4 8.1h-11.2v5.9h11.2v8.3h-11.2v5.9h11.2v8.3h-20.8V96.4h20.8v8.1zm-35.3 28.4-8.7-14.1h-.1v14.1h-9.5V96.4h14.2c3.3-.2 6.6.8 9.2 2.7 2.4 2.1 3.7 5.2 3.5 8.4.1 2.4-.7 4.8-2.1 6.8-1.4 1.9-3.5 3.2-5.9 3.5l10 15-10.6.1zm-1.8-27.1c-.4-.6-.9-1.1-1.5-1.4-.7-.3-1.4-.6-2.1-.7-.8-.1-1.6-.2-2.4-.2h-1v9.1h.9c.8 0 1.6-.1 2.4-.2.7-.1 1.4-.3 2.1-.7.6-.3 1.1-.8 1.5-1.4.8-1.3.8-3 .1-4.5zm62-8c2.1.9 3.9 2.2 5.5 3.9 1.6 1.7 2.8 3.7 3.7 5.9 1.8 4.6 1.8 9.6 0 14.2-.9 2.2-2.1 4.1-3.7 5.8-1.6 1.6-3.4 3-5.5 3.9-2.1.9-4.3 1.4-6.6 1.4H179V96.4h12.4c2.3 0 4.5.5 6.6 1.4zm-10.3 6.7v20.4h2c1.3 0 2.5-.2 3.8-.6 2.4-.8 4.3-2.7 5.2-5.1.5-1.4.8-3 .8-4.5.2-2.8-.8-5.5-2.6-7.5-1.8-1.8-4.4-2.8-7-2.7h-2.2zm60.4 0h-7.9v28.4h-9.5v-28.4h-7.9v-8H248v8zm15.3 28.4h-9.5V96.3h9.5v36.6zm10.9-31.4c1.7-1.6 3.6-2.9 5.8-3.7 2.4-.9 4.9-1.3 7.4-1.3 3.2-.1 6.4.8 9.2 2.4 2.7 1.7 4.8 4.2 6.1 7.2l-8.3 3.5c-.5-1.6-1.5-3-2.8-4-1.3-1-2.9-1.5-4.5-1.5-1.3 0-2.6.3-3.7.9-1.1.6-2.1 1.4-2.8 2.5-.8 1.1-1.3 2.2-1.7 3.5-.8 2.6-.8 5.3 0 7.8.4 1.2 1 2.4 1.7 3.5.7 1 1.7 1.8 2.8 2.4 1.2.6 2.5.9 3.8.9 1.8.1 3.5-.5 4.9-1.5 1.3-1.1 2.1-2.7 2.2-4.4h-7.2v-7h17.5c0 2.5-.3 5-.7 7.5-.5 2.2-1.4 4.2-2.7 6-1.5 2.2-3.6 3.9-6 5.1-2.5 1.1-5.2 1.7-7.9 1.7-2.5 0-4.9-.4-7.3-1.3-2.2-.8-4.1-2.1-5.7-3.7-1.6-1.6-2.9-3.6-3.7-5.7-.9-2.3-1.3-4.8-1.3-7.3 0-2.6.4-5.1 1.3-7.5.6-2.4 1.9-4.4 3.6-6z"/><path id="Logo_Symbol_Red_on_Black" class="st2" d="M80.1 104.4c0 1 0 2.1-1.5 2.6-.9.3-2-1-2.1-1.8.5-.6 1.1-1.1 1.8-1.3 1.4-.6 1.8-.7 1.8.5zM53.4 107c-1.6-.5-1.5-1.6-1.5-2.6 0-1.2.4-1.1 1.8-.6.7.3 1.3.7 1.8 1.3 0 1-1.1 2.2-2.1 1.9zm35.2 29.1c.9-.5 1.8-1.1 2.5-1.8 3.6-3.9 4.3-8.3 4.8-13.5.1-1.3.1-2.7.2-4.1 0-.2 0-1.2.1-1.2.3.3.5.7.7 1.1.4 1.2.7 2.5.8 3.7.4 2.5.5 5.1.2 7.6-.1.9-.4 1.7-.9 2.5-2.3 3.8-4.8 7.3-7.2 11-.2.3-.3-.3-.5-.4l-.2-.2c-.5-.3-.8-.3-1-.1-.1.2-.2.3-.2.5-.6 1.2-1.6 3.2-2.3 4.5-.1.2-.4.3-.6.2-.1-.1-.2-.2-.2-.4v-4.3c0-.9 0-2-1.2-2s-1.2 1-1.2 2v2.6c0 .2-.2.4-.4.4-.1 0-.2 0-.2-.1-1-.8-2.1-1.4-3.3-1.8-1.9-.8-4.1-.5-5.8.6l.3-.2c1.4-1.3 3.4-1.8 5.4-1.4.5.1 1.1.2 1.6.1.2 0 .4-.2.4-.4v-.1c-.7-2-3.1-9.2 1.7-11.7.1-.1.2-.2.2-.3.2-1.3 2.6-7.1-4-10.8-1 .9-2.3 3.1-3.9 4.4 2.9.6 4.4-1.1 5.8-2.3-.6 3.3-3.2 3.6-5.2 4.8 1.8-.8 3.6.3 5.7-.8-1.5 2.9-4.6 1.5-6.4 3 1.8 1.2 3.4.5 5.1.3.5-.1.9 0 1.4.1-.4.6-.8 1.1-1.3 1.5-.6.5-1.4.8-2.1 1.1-.8.2-1.6.3-2.4.1-2.3-.7-4.6-1.6-6.9-2.5-.4-.2-.8-.6-.9-1.1-.1-.7 0-1.5 0-2.3-.2-1 .5-1.9 1.4-2.1 2.2-.6 4-1.9 5.4-3.7.4-.6.8-1.4.9-2.1 0-.7-.1-1.4-.4-2.1-.1-.5-.1-1.1 0-1.6v-.2l.5-2c.2-.6.5-1.2 1-1.5l.1-.1c.1 0 .1-.1.2-.1.9-.5 1.8-.8 2.7-1.1 3.3-1.3 5.9-4.1 7-7.5.4-1.1.5-2.4.3-3.5-.3.6-.8 1.9-1.1 2.6-.4 1-1.4 1.7-2.5 1.6-3 0-6 .5-7.7 3.7-.7 1.7-2 3.1-3.6 3.9 0-.9.1-1.8.4-2.7-1.4-.6-.9-1.4-.1-2.2 1-1.1 2.1-2.2 3.2-3.4-.9-.2-1.8-.7-2.4-1.4h6v-.2c-1.8-.3-3.6-1-5.2-1.9 2.8-1.7 8.5-.9 9.5-1.2 0-.2-.8-.4-1.6-.7-1.9-.5-2.6-.6-4.5-1.2-1.9-.5-3.7-1.3-5.4-2.2h7.8c-2.7-1.5-5.6-2.5-8.6-2.9-1.7-.1-3-.1-4-.1V88v.5c-1.1 0-2.3 0-4 .1-3 .4-6 1.4-8.6 2.9h7.8c-1.7.9-3.5 1.7-5.4 2.2-1.9.5-2.6.7-4.5 1.2-.8.3-1.6.4-1.6.7 1 .3 6.7-.5 9.5 1.2-1.6.9-3.4 1.5-5.2 1.9v.2h6c-.7.7-1.5 1.1-2.4 1.4 1.1 1.2 2.1 2.3 3.2 3.4.8.8 1.3 1.6-.1 2.2.3.9.4 1.8.4 2.7-1.6-.8-2.9-2.2-3.6-3.9-1.7-3.2-4.6-3.7-7.7-3.7-1.1.1-2.1-.5-2.5-1.6-.3-.7-.8-2-1.1-2.6-.2 1.2-.1 2.4.3 3.5 1.1 3.4 3.6 6.2 7 7.5.9.3 1.9.7 2.7 1.1.1 0 .1.1.2.1l.1.1c.5.4.9.9 1 1.5l.5 2v.2c.2.5.2 1.1 0 1.6-.2.7-.4 1.4-.4 2.1.2.8.5 1.5.9 2.1 1.3 1.8 3.2 3.1 5.4 3.7 1 .2 1.6 1.1 1.4 2.1-.1.8.1 1.6 0 2.3-.1.5-.5.9-.9 1.1-2.3.9-4.6 1.8-6.9 2.5-.8.2-1.6.2-2.4-.1-.8-.2-1.5-.6-2.1-1.1-.5-.5-.9-1-1.3-1.5.5-.1.9-.1 1.4-.1 1.6.2 3.3.8 5.1-.3-1.9-1.6-4.9-.1-6.4-3 2.1 1.1 3.9.1 5.7.8-2.1-1.2-4.7-1.5-5.2-4.8 1.4 1.2 2.9 2.9 5.8 2.3-1.6-1.4-2.9-3.5-3.9-4.4-6.6 3.7-4.2 9.5-4 10.8 0 .1.1.3.2.3 4.8 2.5 2.4 9.7 1.7 11.7v.4c.1.1.2.2.3.2.5 0 1.1 0 1.6-.1 1.9-.4 3.9.1 5.4 1.4l.3.2c-1.7-1.2-3.9-1.4-5.8-.6-1.2.4-2.3 1-3.3 1.8-.2.1-.5.1-.6-.1 0-.1-.1-.1-.1-.2v-2.6c0-.9-.1-2-1.2-2-1.2 0-1.2 1.1-1.2 2v4.3c0 .2-.2.4-.4.4-.1 0-.3-.1-.4-.2-.7-1.3-1.7-3.3-2.3-4.5-.1-.2-.2-.3-.2-.5-.3-.2-.5-.1-1 .1l-.2.2c-.1.1-.3.7-.5.4-2.4-3.7-4.9-7.2-7.2-11-.4-.8-.7-1.6-.9-2.5-.3-2.5-.2-5.1.2-7.6.1-1.3.4-2.5.8-3.7.2-.4.4-.8.7-1.1.1 0 .1 1 .1 1.2.1 1.4 0 2.7.2 4.1.4 5.2 1.1 9.6 4.8 13.5.7.8 1.6 1.4 2.5 1.8.2.1.5 0 .5-.2v-.3c-1.1-2.2-2.3-4.5-3.2-6.8-.9-2.4-1.5-4.9-2.2-7.3-.1-.2.1-.4.3-.5h.2c.5.2 1.2.5 1.8.7.2.1.5 0 .5-.2v-.3c-.7-2.4-2.9-9.3-2.9-9.3.1.2 1.4 2.1 1.5 2.2 1.1 1.7 2 3.5 2.8 5.3.4 1 .7 1.7.8 2 .1.2.1.3 0 .5-1.9 1.6-.4 4.6.4 5.5 1.1 1.3 1.9 2.8 2.3 4.5.1.3.3.8.4 1.3.1.2.3.3.5.2.2-.1.3-.2.3-.4-.1-2.1-.5-5-1.2-5.7-1.1-1-.9-4.5.4-5.1 1.1-.6 1.4-1.2.8-2.2-.1-.2-.1-.5.1-.6l5.2-3c.2-.1.3-.4.2-.6-.1-.1-.2-.2-.3-.2-1.8-.2-3.6.4-5 1.5-1.1.6-2.5.3-3.1-.8-.1-.1-.2-.3-.2-.5-.1-.3-.2-.5-.3-.8-.1-.2.1-.4.4-.5 2.5-.6 2.9-.8 3.1-1.5 0-.2-.1-.4-.3-.5h-.1c-.9.1-1.8 0-2.6-.3-.5-.5-.8-1.1-.9-1.8-.1-.2.1-.4.3-.5h.3c.9.4 1.1.4 1.6 0 .2-.1.2-.4.1-.6-.1-.1-.2-.3-.4-.4-1.9-1.5-4.7-9.5-4.6-11.9-.7.6-1.3 1.5-1.6 2.4-2-.8-3.5-1.1-3.2-3.8l2.2 1.1s.1-.8-1.1-1.8c-2.5-2.1-2.9-4.9-3-7.9-.1-1.5 1-2.8 2.4-2.9.6 0 1.1.1 1.6.4 4.9 2.3 11.6 4.6 17.1 3.9h.2c3.5-.7 7-1.1 10.5-1.1s7 .4 10.5 1.1h.2c5.5.7 12.3-1.6 17.1-3.9 1.3-.8 2.9-.4 3.7.9.3.5.4 1.1.4 1.6-.1 3-.5 5.8-3 7.9-1.2 1-1.1 1.8-1.1 1.8l2.2-1.1c.3 2.8-1.2 3-3.2 3.8-.3-.9-.9-1.8-1.6-2.4.1 2.4-2.8 10.4-4.6 11.9-.1.1-.3.2-.4.4-.1.1-.1.2-.1.3 0 .1.1.2.2.3.5.4.7.4 1.6 0 .2-.1.5 0 .5.2v.3c-.1.7-.4 1.3-.9 1.8-.8.3-1.7.4-2.6.3-.2 0-.4.2-.4.4v.1c.1.8.5.9 3.1 1.5.2.1.4.2.4.5-.1.3-.2.5-.3.8-.4 1.2-1.7 1.9-2.9 1.5-.2-.1-.3-.1-.5-.2-1.4-1.1-3.2-1.6-5-1.5-.2 0-.4.2-.3.5 0 .1.1.2.2.3l5.2 3c.2.1.3.4.1.6-.6 1-.3 1.6.8 2.2 1.2.6 1.4 4.1.4 5.1-.7.7-1.1 3.5-1.2 5.7 0 .2.2.4.4.4s.3-.1.4-.3c.2-.5.3-1 .4-1.3.4-1.6 1.2-3.2 2.3-4.5.8-.9 2.3-3.9.4-5.5-.1-.1-.1-.3 0-.5.2-.4.5-1.1.8-2 .8-1.8 1.7-3.6 2.8-5.3.1-.2 1.4-2.1 1.5-2.2 0 0-2.2 6.9-2.9 9.3-.1.2.1.4.3.5h.3c.5-.2 1.2-.5 1.8-.7.2-.1.4 0 .5.3v.2c-.7 2.5-1.3 4.9-2.2 7.3-.9 2.3-2.1 4.5-3.2 6.8-.1.2 0 .5.2.6-.8-.1-.6-.1-.5-.1zm-34.1-18.4-.2.1c.1 0 .2 0 .2-.1zm-9.3-30.3 1.2.3-1.2-.3zm-.5.6c-5.7-.5-4.7 3.8-3.6 6.3l.9 1.5c.1.1.1.1.1.2 1.4 3.4 2.6 10.6 9.5 13.3-.3-.2-.5-.3-.8-.5-2-1.7-3.6-3.8-4.8-6.1-3.1-6.2-2.3-10.1-2.6-11.6.6.2 2.7.7 3.1.8 0-.1-3.7-1.7-4.8-2.3.5-.3 1-.5 1.6-.6 2.4-.3 3.3.5 4.9.7 1.1.1 2.1 0 3.1-.2L44.7 88zm32.8 29.7c.1 0 .1.1.2.1l-.2-.1zm8.1-30 1.2-.3-1.2.3zm4.2 8.4s.1 0 0 0c.1-.1.1-.2.2-.2l.9-1.5c1.1-2.5 2.2-6.8-3.6-6.3l-6.8 1.7c1 .3 2.1.3 3.1.2 1.6-.2 2.5-1 4.9-.7.6.1 1.1.3 1.6.6-1.1.6-4.8 2.2-4.8 2.3.4-.1 2.5-.6 3.1-.8-.4 1.6.4 5.4-2.6 11.6-1.2 2.3-2.8 4.4-4.8 6.1-.3.2-.5.4-.8.5 7-2.9 8.2-10.1 9.6-13.5zm-23.8 22h-2.9c-1 0-2.1-.2-3-.6-.5-.4-.8-1-.7-1.7.1-.9 1.2-1.5 1.2-1.5 0 2 1.7 2.6 5.4 2.6s5.4-.6 5.4-2.6c0 0 1.1.6 1.2 1.5.1.6-.1 1.3-.7 1.7-1 .4-2 .6-3 .6H66zm0 21.8c.1 2.7-4.5 2.9-8.4.6-.2-.8.2-2.3-.2-2.6-.7-.5-1.7.1-2.4.6s-1.1 1.3-1.8 1.8c.3-4.1 4.4-7.9 10.8-8.2.7 0 1.4-.1 2.1-.1s1.4 0 2.1.1c6.3.4 10.5 4.1 10.8 8.2-.7-.5-1.1-1.3-1.8-1.8-.7-.4-1.7-1-2.4-.6-.5.3 0 1.7-.2 2.6-4.1 2.3-8.7 2-8.6-.6z"/></g></svg>