<svg xmlns="http://www.w3.org/2000/svg" viewBox="0 0 630 360" style="enable-background:new 0 0 630 360" xml:space="preserve"><path style="fill:none" d="M76.4 2.5h1196.5v274.7H76.4z"/><path d="M139.1 314v-28.5c0-10.7-6.8-18-17.9-18.1-6.4-.4-12.5 2.7-16 8.1-3.2-5.2-8.9-8.3-15-8.1-5.3-.2-10.3 2.3-13.3 6.8v-5.7H67V314h10v-25.3c0-7.9 4.4-12.1 11.1-12.1 6.8 0 9.9 4.3 9.9 12V314h9.9v-25.2c0-7.9 4.5-12.1 11.1-12.1s10 4.3 10 12V314h10.1zm147.7-45.5h-16.2v-13.8h-9.9v13.8h-9.3v9h9.3v20.7c0 10.6 4.1 16.8 15.8 16.8 4.4 0 8.6-1.2 12.4-3.5l-2.8-8.5c-2.6 1.6-5.6 2.4-8.7 2.5-4.9 0-6.6-3-6.6-7.6v-20.5h16.1l-.1-8.9zm84.3-1.1c-4.9-.1-9.5 2.4-12 6.7v-5.5h-9.8V314h9.9v-25.5c0-7.6 3.2-11.7 9.7-11.7 2.1 0 4.2.4 6.2 1.1l3-9.3c-2.3-.8-4.6-1.2-7-1.2zm-127.4 4.7c-5.6-3.3-12-5-18.5-4.7-11.5 0-19 5.5-19 14.5 0 7.4 5.5 12 15.7 13.4l4.6.6c5.4.8 8 2.2 8 4.7 0 3.5-3.6 5.5-10.4 5.5-5.5.2-10.8-1.5-15.2-4.7l-4.5 7.7c5.7 4 12.7 6.1 19.7 5.9 13.1 0 20.7-6.2 20.7-14.8 0-8-6-12.2-15.9-13.6l-4.6-.7c-4.3-.6-7.7-1.4-7.7-4.4 0-3.3 3.2-5.3 8.7-5.3 5 .1 9.8 1.4 14.2 3.9l4.2-8zm264.7-4.7c-4.9-.1-9.5 2.4-12 6.7v-5.5h-9.9V314h9.9v-25.5c0-7.6 3.2-11.7 9.7-11.7 2.1 0 4.2.4 6.2 1.1l3-9.3c-2.2-.8-4.6-1.2-6.9-1.2zm-127.3 23.9c0 13.8 9.6 23.8 24.2 23.8 5.9.3 11.8-1.6 16.3-5.4l-4.7-8c-3.4 2.6-7.6 4.1-11.9 4.1-7.9 0-13.7-5.8-13.7-14.5s5.8-14.5 13.7-14.5c4.3 0 8.5 1.5 11.9 4.1l4.7-8c-4.6-3.8-10.4-5.7-16.3-5.4-14.6-.1-24.2 10-24.2 23.8zm92.5 0v-22.8h-9.9v5.5c-3.4-4.4-8.8-6.9-14.3-6.6-12.7 0-22.8 10-22.8 23.8 0 13.9 10 23.8 22.8 23.8 5.6.2 10.9-2.2 14.3-6.7v5.5h9.9v-22.5zm-36.7 0c0-8 5.2-14.5 13.8-14.5 8.2 0 13.7 6.3 13.7 14.5s-5.5 14.5-13.7 14.5c-8.6 0-13.9-6.6-13.8-14.5zm-119.2-23.9c-13.3 0-22.6 9.7-22.6 23.8 0 14.2 9.7 23.8 23.3 23.8 6.8.2 13.4-2 18.6-6.4l-4.8-7.3c-3.8 3-8.4 4.7-13.3 4.7-6.4 0-12.2-2.9-13.6-11.1H339c0-1.2.2-2.5.2-3.8 0-14.2-8.8-23.8-21.6-23.8l.1.1zm-.2 8.8c6.4 0 10.5 4 11.5 11h-23.6c1-6.5 4.9-11 12.1-11zm247.8 15.1v-41h-10V274c-3.4-4.4-8.8-6.9-14.3-6.6-12.7 0-22.8 10-22.8 23.8 0 13.9 10 23.8 22.8 23.8 5.6.2 10.9-2.2 14.3-6.7v5.5h9.9l.1-22.5zm11.6 18.5c.4 0 .8.1 1.1.2.3.1.7.4.9.6.3.3.5.6.6.9.3.7.3 1.5 0 2.2-.1.3-.4.6-.6.9-.3.3-.6.5-.9.6-1.5.6-3.2-.1-3.9-1.5-.3-.7-.3-1.5 0-2.2.3-.7.8-1.3 1.5-1.6.5-.1.9-.2 1.3-.1zm0 5.1c.3 0 .6 0 .9-.2.3-.1.5-.3.7-.5.9-.9.9-2.3 0-3.2-.2-.2-.4-.4-.7-.5-.3-.1-.6-.2-.9-.2-.3 0-.6 0-.9.2-1.1.5-1.7 1.8-1.2 2.9.1.3.3.5.5.7.2.2.5.4.7.5.3.3.6.3.9.3zm.1-3.6c.3 0 .6.1.8.2.3.3.3.9 0 1.2l-.6.3.9 1h-.7l-.8-1h-.3v1h-.7v-2.7h1.4zm-.6.5v.7h1.1c.1-.1.1-.2.1-.3 0-.1-.1-.2-.1-.3h-.5l-.6-.1zm-47.8-20.5c0-8 5.2-14.5 13.8-14.5 8.2 0 13.7 6.3 13.7 14.5s-5.5 14.5-13.7 14.5c-8.6 0-13.9-6.6-13.8-14.5zm-333.7 0v-22.8h-10v5.5c-3.4-4.4-8.7-6.8-14.3-6.6-12.7 0-22.8 10-22.8 23.8 0 13.9 10 23.8 22.8 23.8 5.6.2 10.9-2.2 14.3-6.7v5.5h9.9l.1-22.5zm-36.8 0c0-8 5.2-14.5 13.8-14.5 8.2 0 13.7 6.3 13.7 14.5s-5.5 14.5-13.7 14.5c-8.6 0-13.8-6.6-13.8-14.5z"/><path style="fill:#ff5f00" d="M277.4 69.2h78.7v141.4h-78.7z"/><path d="M282.4 139.9c0-27.6 12.6-53.6 34.3-70.7-39-30.7-95.6-23.9-126.3 15.1s-23.9 95.6 15.1 126.3c32.6 25.6 78.5 25.6 111.2 0-21.6-17-34.3-43.1-34.3-70.7z" style="fill:#eb001b"/><path d="M462.3 139.9c0 49.7-40.2 89.9-89.9 89.9-20.2 0-39.7-6.8-55.6-19.2 39-30.7 45.8-87.2 15.1-126.3-4.4-5.6-9.5-10.7-15.1-15.1 39-30.7 95.6-23.9 126.3 15.1 12.4 15.9 19.2 35.4 19.2 55.6zm-8.7 55.7v-2.9h1.2v-.5h-2.9v.6h1.2v2.9l.5-.1zm5.7 0v-3.5h-.8l-1 2.5-1-2.5h-.9v3.5h.5V193l1 2.3h.7l1-2.3v2.6h.5z" style="fill:#f79e1b"/></svg>