<svg id="Layer_1" data-name="Layer 1" xmlns="http://www.w3.org/2000/svg" viewBox="0 0 630 360"><defs><style>.cls-1{fill:#83ba3b}</style></defs><g id="Layer_2" data-name="Layer 2"><g id="Layer_5" data-name="Layer 5"><path class="cls-1" d="M519.46 146.83c-5.81-4-14.52-6-26-6h-30l-11.15 60.5h-39.19l2.53-13.73h23.65l2.81-15.41h-23.64l2.53-13.62h24.37l3.23-17.69h-49.48l-10.58 57.39h-18.15L381 140.88h-25.83l-10.57 57.39h-17.69l10.66-57.39h-25.84l-11.17 60.5H261l2.51-13.73h23.74l2.81-15.32h-23.72l2.49-13.72h24.68l3.2-17.73h-154.2l-8.75 47.91-17.48-47.91H89.42L75 219.12h25.63l8.71-49.26 17 49.26h91.88l11.16-60.51h14.37l-11.18 60.51H474.2l7-38.2 11.34 38.2h25.64l-11.74-31.22 2.68-.56c5.92-1.26 10.53-4 13.75-8.07s4.84-9.44 4.84-15.77c.02-7.42-2.71-12.87-8.25-16.67Zm-323.59 54.55h-39.2l2.53-13.73h24.61l2.8-15.46H162.2l2.35-13.58h39.2ZM498.32 175c-2.58 1.8-6.32 2.68-11.43 2.68h-5.08l3.88-21h3.73c4.25 0 7.34.68 9.48 2.07 1.67 1.08 3.63 3.24 3.63 7.32.06 4.93-2.27 7.6-4.21 8.93Zm40.98 39.06-.63-12.34 5.45-.28a7.4 7.4 0 0 1 2.52.2 2.71 2.71 0 0 1 1.45 1.11 3.51 3.51 0 0 1 .61 1.83 3.14 3.14 0 0 1-.73 2.25 4.33 4.33 0 0 1-2.55 1.3 4.34 4.34 0 0 1 1 .56 8.38 8.38 0 0 1 1.45 1.58l2.3 3.24-2 .1-1.76-2.48c-.52-.72-.94-1.26-1.26-1.63a3.85 3.85 0 0 0-.87-.79 2.78 2.78 0 0 0-.76-.29 6.55 6.55 0 0 0-1 0l-1.88.09.28 5.47Zm1.27-6.95 3.5-.18a5.35 5.35 0 0 0 1.73-.32 1.82 1.82 0 0 0 .92-.79 2.09 2.09 0 0 0 .27-1.12 1.8 1.8 0 0 0-.72-1.4 2.92 2.92 0 0 0-2-.47l-3.88.2Z"/><path class="cls-1" d="M542.9 196.13A11.5 11.5 0 1 0 555 207a11.51 11.51 0 0 0-12.1-10.87Zm-8.94 12a9.54 9.54 0 0 1 19-1.37v.89a9.54 9.54 0 0 1-19.07.48Z"/></g></g></svg>