<svg data-name="Layer 1" xmlns="http://www.w3.org/2000/svg" viewBox="0 0 630 360"><defs><linearGradient id="a" x1="-108.62" y1="927.16" x2="-107.88" y2="927.16" gradientTransform="matrix(566.9 0 0 -193.7 61684 179771.4)" gradientUnits="userSpaceOnUse"><stop offset="0" stop-color="#872166"/><stop offset="1" stop-color="#4f2455"/></linearGradient></defs><path d="m439 122.32 35-6.22v134.17h-35Zm51 0V250.2h35V116.1ZM389.27 250.2h35v-98.09h-35ZM158.19 166c-4.44-.3-14.66-1-14.66-10.15 0-11.11 14.74-11.11 20.22-11.11 9.71 0 22.3 2.89 31.27 5.55 0 0 5 1.78 9.26 3.56l.37.07v-30.41l-.52-.15c-10.6-3.7-22.89-7.26-45.79-7.26-39.41 0-53.34 23-53.34 42.6 0 11.34 4.89 38 50 41.12 3.85.22 14 .81 14 10.37 0 7.85-8.3 12.52-22.3 12.52a109.69 109.69 0 0 1-39.19-7.63v31.34c13.48 3.56 28.74 5.33 46.6 5.33 38.53 0 55.79-21.7 55.79-43.26.01-24.49-19.26-40.31-51.71-42.49Zm211.38-15.3c-32.31 1-48.68 15.56-48.68 44.38v55.19h35.27v-45c0-17.27 2.22-24.67 22.74-25.34v-28.79a54.36 54.36 0 0 0-9.33-.44Zm-94.84 1.3a120.69 120.69 0 0 1-19.93 34.16V116.1l-36.08 7.11v127h36.08v-39.28c10.45 15.71 15.64 39.27 15.64 39.27h43.19c-4.3-17.78-23-50.53-23-50.53A159.29 159.29 0 0 0 316 152h-41.27Zm132-9.33a17.23 17.23 0 1 0-17.19-17.19 17.27 17.27 0 0 0 17.14 17.22Z" style="fill:url(#a)"/></svg>