<svg xmlns="http://www.w3.org/2000/svg" viewBox="0 0 630 360" style="enable-background:new 0 0 630 360" xml:space="preserve"><linearGradient id="a" gradientUnits="userSpaceOnUse" x1="186.578" y1="256.861" x2="188.422" y2="256.861" gradientTransform="matrix(256 0 0 82.6684 -47685 -21054.307)"><stop offset="0" style="stop-color:#222357"/><stop offset="1" style="stop-color:#254aa5"/></linearGradient><path d="M323.1 152.5c-.3 21.2 18.9 33.1 33.4 40.1 14.9 7.2 19.9 11.9 19.8 18.3-.1 9.9-11.9 14.3-22.8 14.4-19.2.3-30.3-5.2-39.2-9.3l-6.9 32.3c8.9 4.1 25.4 7.7 42.4 7.8 40.1 0 66.3-19.8 66.4-50.5.2-38.9-53.8-41.1-53.5-58.5.1-5.3 5.2-10.9 16.2-12.3 5.5-.7 20.5-1.3 37.6 6.6l6.7-31.3c-9.2-3.3-21-6.6-35.7-6.6-37.6.2-64.2 20.3-64.4 49m164.6-46.1c-7.3 0-13.5 4.3-16.2 10.8L414.3 254h40l8-22h48.9l4.6 22h35.3l-30.8-147.5h-32.6m5.6 39.8 11.6 55.4h-31.7l20.1-55.4m-218.7-39.9L243 254h38.2l31.6-147.5h-38.2m-56.5-.1-39.7 100.4-16.1-85.4c-1.9-9.5-9.3-15-17.6-15H79.8l-.9 4.3c13.3 2.9 28.5 7.6 37.7 12.6 5.6 3 7.2 5.7 9.1 13L156 254h40.3l61.8-147.5h-40" style="fill:url(#a)"/></svg>