<svg xmlns="http://www.w3.org/2000/svg" xmlns:xlink="http://www.w3.org/1999/xlink" width="235" height="80" xml:space="preserve"><g fill="#3D2600"><circle cx="39.874" cy="5.129" r="1.88"/><path d="M61.777 9.961A35.964 35.964 0 0 0 45.033 3.36l-.341 3.986c5.342.688 10.261 2.712 14.458 5.69l2.627-3.075zm-45.733 7.266a1.878 1.878 0 1 0 0-3.758c-.488 0-.93.19-1.262.495-.077.078-.145.164-.221.242-.243.318-.395.71-.395 1.143a1.879 1.879 0 0 0 1.878 1.878zm19.108-9.693-.524-3.954c-5.933.99-11.371 3.443-15.956 6.956l2.445 3.107a32 32 0 0 1 14.035-6.109zm37.22 26.705 3.961-.35a35.972 35.972 0 0 0-7.196-16.81l-2.985 2.693a32.098 32.098 0 0 1 6.22 14.467zM14.437 20.481l-3.15-2.37a35.956 35.956 0 0 0-6.438 15.781l3.894.441a32.088 32.088 0 0 1 5.694-13.852z"/><circle cx="64.31" cy="14.744" r="1.879"/><path d="M74.783 37.211a1.877 1.877 0 0 0-1.878 1.879c0 1.039.84 1.879 1.878 1.879a1.879 1.879 0 1 0 0-3.758zM64.487 61.898a1.879 1.879 0 1 0 0 3.758c.49 0 .932-.191 1.266-.496l.122-.123a1.86 1.86 0 0 0 .494-1.26c0-1.039-.84-1.879-1.882-1.879zM6.462 40.986a1.875 1.875 0 0 0 1.877-1.831c0-.022.004-.043.004-.064a1.877 1.877 0 0 0-1.88-1.863 1.878 1.878 0 0 0-1.879 1.88 1.878 1.878 0 0 0 1.878 1.878zM44.865 71.21l.172 3.871a35.935 35.935 0 0 0 16.851-6.658l-2.649-2.903a32.042 32.042 0 0 1-14.374 5.69zM66.25 58.67l3.01 2.545a35.998 35.998 0 0 0 7.154-17.113l-3.971-.165c-.794 5.481-2.996 10.505-6.193 14.733zM39.874 71.575a1.877 1.877 0 0 0-1.878 1.88c0 1.038.84 1.878 1.878 1.878a1.878 1.878 0 1 0 0-3.758zM18.43 67.752a35.984 35.984 0 0 0 16.352 7.156l.329-3.856c-5.228-.895-10.012-3.074-14.063-6.169l-2.618 2.869zM8.695 44.058l-3.879.161a35.956 35.956 0 0 0 6.514 16.198l2.952-2.495a32.046 32.046 0 0 1-5.587-13.864zm7.327 17.027a1.877 1.877 0 0 0-1.878 1.879c0 1.039.84 1.879 1.878 1.879a1.879 1.879 0 1 0 0-3.758z"/></g><path fill="#115417" d="M69.828 39.297c0-16.141-13.131-29.271-29.271-29.271-16.139 0-29.27 13.131-29.27 29.271 0 16.139 13.131 29.27 29.27 29.27 16.141 0 29.271-13.131 29.271-29.27z"/><path fill="#020202" d="M39.327 1.271C17.697 1.271.1 18.869.1 40.5c0 21.632 17.597 39.232 39.227 39.232 21.633 0 39.232-17.6 39.232-39.232 0-21.631-17.599-39.229-39.232-39.229zM67.865 18.35a35.948 35.948 0 0 1 7.196 16.81l-3.961.35a32.074 32.074 0 0 0-6.221-14.466l2.986-2.694zm7.529 22.012c0 1.039-.84 1.879-1.882 1.879a1.877 1.877 0 0 1-1.878-1.879c0-1.04.84-1.879 1.878-1.879a1.877 1.877 0 0 1 1.882 1.879zM13.29 15.477c.076-.078.144-.164.221-.242a1.864 1.864 0 0 1 1.262-.495 1.879 1.879 0 1 1 0 3.758 1.877 1.877 0 0 1-1.878-1.878c.001-.434.152-.826.395-1.143zm25.996-4.181c16.141 0 29.271 13.131 29.271 29.271 0 16.139-13.131 29.27-29.271 29.27-16.139 0-29.27-13.131-29.27-29.27 0-16.14 13.131-29.271 29.27-29.271zm23.753 2.84a1.879 1.879 0 1 1 0 3.758 1.878 1.878 0 0 1-1.879-1.878c0-1.041.841-1.88 1.879-1.88zM43.762 4.631a35.964 35.964 0 0 1 16.744 6.601l-2.628 3.075c-4.197-2.978-9.115-5.002-14.458-5.69l.342-3.986zm-5.159-.111a1.88 1.88 0 1 1 .004 3.76 1.88 1.88 0 0 1-.004-3.76zm-4.722 4.285a31.99 31.99 0 0 0-14.034 6.108l-2.445-3.107c4.585-3.513 10.023-5.965 15.956-6.956l.523 3.955zM10.016 19.383l3.15 2.37a32.096 32.096 0 0 0-5.695 13.852l-3.894-.441a35.958 35.958 0 0 1 6.439-15.781zM5.191 38.498c1.035 0 1.871.83 1.88 1.863 0 .021-.004.042-.004.064a1.878 1.878 0 1 1-1.876-1.927zm4.868 23.19A35.967 35.967 0 0 1 3.545 45.49l3.879-.161a32.046 32.046 0 0 0 5.587 13.864l-2.952 2.495zm4.692 4.426a1.877 1.877 0 0 1-1.878-1.879c0-1.04.84-1.879 1.878-1.879a1.879 1.879 0 1 1 0 3.758zm18.76 10.065a35.978 35.978 0 0 1-16.352-7.156l2.618-2.87c4.051 3.094 8.835 5.274 14.063 6.169l-.329 3.857zm5.092.426a1.877 1.877 0 0 1-1.878-1.878c0-1.041.84-1.88 1.878-1.88a1.879 1.879 0 1 1 0 3.758zm5.164-.252-.172-3.871a32.042 32.042 0 0 0 14.374-5.69l2.649 2.903a35.94 35.94 0 0 1-16.851 6.658zm20.837-10.045c-.04.041-.079.082-.122.123a1.871 1.871 0 0 1-1.266.496 1.878 1.878 0 1 1 0-3.758c1.041 0 1.882.84 1.882 1.879 0 .488-.19.927-.494 1.26zm3.385-3.822-3.01-2.545c3.197-4.229 5.399-9.252 6.194-14.733l3.971.165a36.013 36.013 0 0 1-7.155 17.113z"/><path fill="#D3B775" d="M40.598 0C18.968 0 1.371 17.598 1.371 39.229c0 21.632 17.597 39.232 39.227 39.232 21.633 0 39.232-17.6 39.232-39.232C79.83 17.598 62.231 0 40.598 0zm28.538 17.079a35.948 35.948 0 0 1 7.196 16.81l-3.961.35a32.074 32.074 0 0 0-6.221-14.466l2.986-2.694zm7.529 22.012c0 1.039-.84 1.879-1.882 1.879a1.877 1.877 0 0 1-1.878-1.879c0-1.04.84-1.879 1.878-1.879a1.877 1.877 0 0 1 1.882 1.879zM14.561 14.206c.076-.078.144-.164.221-.242a1.864 1.864 0 0 1 1.262-.495 1.879 1.879 0 1 1 0 3.758 1.877 1.877 0 0 1-1.878-1.878c.001-.434.152-.826.395-1.143zm25.996-4.181c16.141 0 29.271 13.131 29.271 29.271 0 16.139-13.131 29.27-29.271 29.27-16.139 0-29.27-13.131-29.27-29.27 0-16.14 13.131-29.271 29.27-29.271zm23.753 2.84a1.879 1.879 0 1 1 0 3.758 1.878 1.878 0 0 1-1.879-1.878c0-1.041.841-1.88 1.879-1.88zM45.033 3.36a35.964 35.964 0 0 1 16.744 6.601l-2.628 3.075c-4.197-2.978-9.115-5.002-14.458-5.69l.342-3.986zm-5.159-.111a1.88 1.88 0 1 1 .004 3.76 1.88 1.88 0 0 1-.004-3.76zm-4.722 4.285a31.99 31.99 0 0 0-14.034 6.108l-2.445-3.107C23.257 7.023 28.695 4.57 34.628 3.58l.524 3.954zM11.287 18.112l3.15 2.37a32.096 32.096 0 0 0-5.695 13.852l-3.894-.441a35.958 35.958 0 0 1 6.439-15.781zM6.462 37.227c1.035 0 1.871.83 1.88 1.863 0 .021-.004.042-.004.064a1.878 1.878 0 1 1-1.876-1.927zm4.868 23.19a35.967 35.967 0 0 1-6.514-16.198l3.879-.161a32.046 32.046 0 0 0 5.587 13.864l-2.952 2.495zm4.692 4.426a1.877 1.877 0 0 1-1.878-1.879c0-1.04.84-1.879 1.878-1.879a1.879 1.879 0 1 1 0 3.758zm18.76 10.065a35.978 35.978 0 0 1-16.352-7.156l2.618-2.87c4.051 3.094 8.835 5.274 14.063 6.169l-.329 3.857zm5.092.426a1.877 1.877 0 0 1-1.878-1.878c0-1.041.84-1.88 1.878-1.88a1.879 1.879 0 1 1 0 3.758zm5.164-.252-.172-3.871a32.042 32.042 0 0 0 14.374-5.69l2.649 2.903a35.94 35.94 0 0 1-16.851 6.658zm20.837-10.045c-.04.041-.079.082-.122.123a1.871 1.871 0 0 1-1.266.496 1.878 1.878 0 1 1 0-3.758c1.041 0 1.882.84 1.882 1.879 0 .488-.19.927-.494 1.26zm3.385-3.822-3.01-2.545c3.197-4.229 5.399-9.252 6.194-14.733l3.971.165a36.013 36.013 0 0 1-7.155 17.113z"/><path fill="#020202" d="m64.341 39.124-1.059 1.43-1.021-.248zm-48.798 0-1.059 1.43 2.128-.909z"/><path fill="#3D2600" d="M39.944 56.241 15.543 39.124l24.401-17.119 24.397 17.119-24.397 17.117z"/><path fill="#020202" d="M38.885 57.671 14.484 40.554l24.401-17.119 24.397 17.119-24.397 17.117zM19.258 40.554l19.627 13.769 19.626-13.769-19.626-13.77-19.627 13.77z"/><path fill="#D3B775" d="M39.944 56.241 15.543 39.124l24.401-17.119 24.397 17.119-24.397 17.117zM20.317 39.124l19.627 13.769L59.57 39.124l-19.626-13.77-19.627 13.77z"/><path fill="#020202" d="M38.747 45.31a5.062 5.062 0 0 1-5.055-5.057 5.06 5.06 0 0 1 5.055-5.054 5.061 5.061 0 0 1 5.056 5.054 5.062 5.062 0 0 1-5.056 5.057zm0-7.37a2.317 2.317 0 0 0-2.315 2.314c0 1.277 1.039 2.316 2.315 2.316s2.315-1.039 2.315-2.316a2.317 2.317 0 0 0-2.315-2.314z"/><path fill="#D3B775" d="M40.018 44.039a5.062 5.062 0 0 1-5.055-5.057 5.06 5.06 0 0 1 5.055-5.054 5.061 5.061 0 0 1 5.056 5.054 5.062 5.062 0 0 1-5.056 5.057zm0-7.37a2.317 2.317 0 0 0-2.315 2.314c0 1.277 1.039 2.316 2.315 2.316s2.315-1.039 2.315-2.316a2.317 2.317 0 0 0-2.315-2.314z"/><path fill="none" d="m39.944 25.354-19.627 13.77 19.627 13.769 12.784-8.969v-2.769h3.947l2.895-2.031z"/><path fill="#020202" d="M57.424 46.904a6.688 6.688 0 0 0-1.557-1.432l-2.601 1.826c.505.098 1.342.484 1.997 1.313.793 1.004.978 2.446.453 3.508-1.086 2.186-3.356 2.691-4.619 2.353-.863-.228-2.87-1.115-2.87-4.379 0-3.281-.845-5.144-2.759-6.032 4.517-2.477 7.638-7.126 7.638-12.326 0-8.684-7.795-14.058-15.017-14.058-5.099 0-10.308 2.929-13.015 7.224-2.01-.148-4.265.514-5.726 2.571-1.182 1.658-1.585 3.626-1.136 5.541.297 1.27.742 2.167 1.656 3.084l2.311-1.621c-.745-.601-1.071-1.167-1.287-2.09-.187-.803-.22-2.029.699-3.319 1.478-2.079 4.193-1.471 5.09-.859.695.475 1.745 1.194 1.745 3.575 0 1.753-.052 7.003-.097 11.618-.036 3.628-.068 6.864-.068 7.71 0 1.357-1.179 2.72-2.868 3.313-1.287.45-3.613-.202-4.476-2.3-.766-1.862.341-4.188 2.136-5.613l-2.311-1.621c-.222.211-.957.983-1.149 1.208-1.755 2.044-2.242 4.592-1.221 7.074 1.118 2.718 3.817 4.132 6.195 4.131.612 0 1.203-.093 1.74-.282 2.815-.989 4.708-3.365 4.708-5.909 0-.813.03-3.849.063-7.309 2.449 1.439 4.785 2.152 7.086 2.152 1.492 0 2.939-.225 4.311-.633 2.074.433 3 1.917 3 4.774 0 4.228 2.539 6.408 4.914 7.039.469.125.976.19 1.499.19 2.297 0 4.931-1.237 6.293-3.98.998-2.015.694-4.602-.757-6.441zm-19.26-3.705c-2.198 0-4.513-.876-7.054-2.652.036-3.75.07-7.368.07-8.765 0-3.833-2.063-5.243-2.96-5.857a4.502 4.502 0 0 0-.359-.218c2.31-3.124 6.374-5.276 10.229-5.276 5.898 0 12.264 4.322 12.264 11.305 0 6.213-5.582 11.463-12.19 11.463z"/><path fill="#D3B775" d="M59.303 45.182a6.704 6.704 0 0 0-1.556-1.432l-2.602 1.826c.505.098 1.342.484 1.997 1.313.793 1.004.978 2.446.453 3.508-1.086 2.186-3.356 2.691-4.619 2.353-.863-.228-2.87-1.115-2.87-4.379 0-3.28-.845-5.144-2.759-6.032 4.517-2.477 7.638-7.126 7.638-12.326 0-8.684-7.795-14.058-15.017-14.058-5.099 0-10.308 2.929-13.015 7.224-2.009-.148-4.265.514-5.726 2.571-1.182 1.658-1.585 3.626-1.136 5.541a6.987 6.987 0 0 0 1.864 3.335l2.311-1.621a4.268 4.268 0 0 1-1.496-2.341c-.187-.803-.22-2.029.699-3.319 1.478-2.079 4.193-1.471 5.09-.859.695.475 1.745 1.194 1.745 3.575 0 1.753-.052 7.003-.097 11.618-.036 3.628-.068 6.864-.068 7.71 0 1.357-1.179 2.72-2.868 3.313-1.287.451-3.613-.202-4.476-2.3-.766-1.862-.186-3.634 1.609-5.059l-2.311-1.621c-2.252 2.139-2.975 4.975-1.843 7.728 1.118 2.718 3.817 4.132 6.195 4.131.612 0 1.203-.093 1.74-.282 2.815-.989 4.708-3.365 4.708-5.909 0-.813.03-3.849.063-7.309 2.449 1.439 4.785 2.152 7.086 2.152 1.492 0 2.939-.225 4.311-.633 2.074.433 3 1.916 3 4.774 0 4.228 2.539 6.408 4.914 7.039.469.125.976.19 1.499.19 2.297 0 4.931-1.237 6.293-3.98.999-2.015.695-4.601-.756-6.441zm-19.26-3.705c-2.198 0-4.513-.876-7.054-2.652.036-3.75.07-7.368.07-8.765 0-3.833-2.063-5.243-2.96-5.857a4.33 4.33 0 0 0-.359-.218c2.31-3.124 6.374-5.276 10.229-5.276 5.898 0 12.264 4.322 12.264 11.305 0 6.213-5.582 11.463-12.19 11.463z"/><path fill="#D3B775" d="m27.971 44.49 1.132.794v3.376l-1.509-1.072.377-3.098zm.39-11.002c.421-.281.802-.521.802-.521v-3.431l-1.003.742.201 3.21zm17.325 18.707c.377-.258.834-.596.834-.596s-.199-.775-.278-1.668c-.067-.752-.02-1.47-.02-1.47s-.775.576-1.092.794c-.318.219.556 2.94.556 2.94zm3.852-20.117c.318.218 1.172.814 1.172.814s.199-.755.278-1.609.04-1.509.04-1.509l-1.231-.854-.259 3.158z"/><path fill="#020202" d="M53.921 35.196c.107-.292.504-1.324.504-1.324l.211 1.987-.715-.663zm-3.76 14.06c-.053-.583-.079-1.96-.079-1.96l.662 1.404-.583.556zM32.58 51.162c.053-.238.238-.69.238-1.219s.076-.556.076-.556l.427 2.252-.741-.477zm.476-20.919a78.458 78.458 0 0 1-.053-1.615l.609 1.35-.556.265z"/><g opacity=".88"><defs><path id="a" d="M90.442 25.35H233.95v28.417H90.442z"/></defs><clipPath id="b"><use xlink:href="#a" overflow="visible"/></clipPath><path clip-path="url(#b)" d="M90.442 51.884V27.233c0-.26.047-.507.142-.738a1.845 1.845 0 0 1 1.741-1.145h6.855c1.196 0 2.324.23 3.384.692a8.853 8.853 0 0 1 2.77 1.882 9 9 0 0 1 1.875 2.78 8.381 8.381 0 0 1 .692 3.383c0 .782-.097 1.543-.294 2.282a8.4 8.4 0 0 1-.869 2.095 8.752 8.752 0 0 1-1.439 1.83 9.523 9.523 0 0 1-1.998 1.482l5.665 9.075a1.946 1.946 0 0 1 .16 1.777 1.837 1.837 0 0 1-1.003.994 1.902 1.902 0 0 1-.737.143c-.664 0-1.202-.309-1.617-.924L99.5 42.809h-5.292v9.075c0 .522-.184.967-.551 1.333s-.811.551-1.332.551c-.522 0-.965-.184-1.333-.551a1.811 1.811 0 0 1-.55-1.333m3.765-22.769v9.929h4.973c.686 0 1.333-.131 1.936-.391a4.86 4.86 0 0 0 1.572-1.074 5.224 5.224 0 0 0 1.057-1.581c.26-.598.391-1.234.391-1.91 0-.686-.131-1.332-.391-1.936a5.017 5.017 0 0 0-1.067-1.581 5.018 5.018 0 0 0-1.58-1.065 4.8 4.8 0 0 0-1.919-.391h-4.972zm26.211 22.77c0 .521-.184.965-.551 1.332a1.81 1.81 0 0 1-1.332.551c-.522 0-.965-.183-1.333-.551a1.816 1.816 0 0 1-.55-1.332V27.232c0-.521.183-.965.55-1.332a1.821 1.821 0 0 1 1.333-.551c.521 0 .965.184 1.332.551.366.366.551.811.551 1.332v24.653zm35.643-12.326c0 3.919-1.393 7.271-4.174 10.052-2.771 2.771-6.116 4.157-10.035 4.157-3.931 0-7.281-1.386-10.052-4.157-2.771-2.77-4.157-6.12-4.157-10.052 0-3.918 1.386-7.264 4.157-10.034 2.781-2.783 6.133-4.174 10.052-4.174 3.908 0 7.253 1.391 10.035 4.174 1.397 1.397 2.441 2.924 3.135 4.582.692 1.657 1.039 3.474 1.039 5.452m-14.209-10.444c-1.468 0-2.809.255-4.023.764-1.213.509-2.336 1.278-3.365 2.308-1.03 1.03-1.797 2.15-2.301 3.357-.504 1.208-.755 2.546-.755 4.014 0 2.889 1.018 5.352 3.055 7.389 2.036 2.036 4.499 3.054 7.388 3.054s5.352-1.018 7.388-3.054c2.037-2.037 3.055-4.5 3.055-7.389 0-2.877-1.018-5.334-3.055-7.371-2.048-2.048-4.51-3.072-7.387-3.072m27.953-3.765c1.007 0 1.956.192 2.851.577A7.432 7.432 0 0 1 175 27.508a7.436 7.436 0 0 1 1.581 2.345c.385.894.578 1.845.578 2.85 0 1.801-.557 3.369-1.671 4.707a8.89 8.89 0 0 1 3.278 3.294c.373.657.655 1.35.843 2.079.19.727.285 1.477.285 2.246a8.39 8.39 0 0 1-.692 3.384 9.017 9.017 0 0 1-1.875 2.78 8.858 8.858 0 0 1-2.77 1.882 8.393 8.393 0 0 1-3.384.692h-6.855c-.26 0-.504-.051-.729-.151s-.424-.234-.595-.4-.308-.364-.408-.595a1.837 1.837 0 0 1-.151-.737V27.232c0-.26.051-.505.151-.737.1-.231.236-.429.408-.595.171-.166.37-.3.595-.4.225-.1.469-.151.729-.151h5.487zm-3.605 3.765v7.194h3.605c.498 0 .963-.096 1.395-.285.433-.19.811-.451 1.137-.782.326-.331.583-.713.772-1.146.19-.433.285-.896.285-1.394 0-.486-.095-.943-.285-1.376a3.72 3.72 0 0 0-1.927-1.928 3.418 3.418 0 0 0-1.377-.284H166.2zm0 10.959v9.929h4.973a4.9 4.9 0 0 0 3.508-1.458 5.064 5.064 0 0 0 1.057-1.58c.26-.604.391-1.25.391-1.937 0-.674-.131-1.313-.391-1.917a4.985 4.985 0 0 0-2.647-2.646 4.8 4.8 0 0 0-1.919-.391H166.2zm38.111 9.928c.521 0 .965.184 1.332.551.368.366.551.811.551 1.332 0 .522-.183.965-.551 1.333-.366.366-.811.55-1.332.55h-16.428c-.273 0-.522-.047-.747-.142a1.856 1.856 0 0 1-1.137-1.741V27.233a1.903 1.903 0 0 1 .542-1.342c.171-.17.37-.304.595-.399s.474-.143.747-.143h16.428c.521 0 .965.184 1.332.551.368.368.551.811.551 1.333 0 .521-.183.965-.551 1.332a1.817 1.817 0 0 1-1.332.551h-14.546v8.561h10.443c.521 0 .965.183 1.332.551.366.366.551.811.551 1.332s-.184.965-.551 1.332a1.81 1.81 0 0 1-1.332.551h-10.443v8.561h14.546zm27.756-20.887h-7.015v22.769c0 .522-.184.967-.551 1.333s-.811.551-1.333.551c-.521 0-.965-.184-1.332-.551s-.551-.811-.551-1.333V29.115h-7.015c-.521 0-.965-.184-1.333-.551-.366-.366-.549-.811-.549-1.332s.183-.965.549-1.333c.368-.366.812-.55 1.333-.55h17.796c.521 0 .965.183 1.332.55.368.368.551.812.551 1.333s-.183.965-.551 1.332c-.366.367-.81.551-1.331.551"/></g><defs><path id="c" d="M91.442 24.35H234.95v28.417H91.442z"/></defs><clipPath id="d"><use xlink:href="#c" overflow="visible"/></clipPath><path clip-path="url(#d)" fill="#D2B77F" d="M91.442 50.884V26.233c0-.26.047-.507.142-.738a1.845 1.845 0 0 1 1.741-1.145h6.855c1.196 0 2.324.23 3.384.692a8.853 8.853 0 0 1 2.77 1.882 9 9 0 0 1 1.875 2.78 8.381 8.381 0 0 1 .692 3.383c0 .782-.097 1.543-.294 2.282a8.4 8.4 0 0 1-.869 2.095 8.752 8.752 0 0 1-1.439 1.83 9.523 9.523 0 0 1-1.998 1.482l5.665 9.075a1.946 1.946 0 0 1 .16 1.777 1.837 1.837 0 0 1-1.003.994 1.902 1.902 0 0 1-.737.143c-.664 0-1.202-.309-1.617-.924L100.5 41.809h-5.292v9.075c0 .522-.184.967-.551 1.333s-.811.551-1.332.551c-.522 0-.965-.184-1.333-.551a1.811 1.811 0 0 1-.55-1.333m3.765-22.769v9.929h4.973c.686 0 1.333-.131 1.936-.391a4.86 4.86 0 0 0 1.572-1.074 5.224 5.224 0 0 0 1.057-1.581c.26-.598.391-1.234.391-1.91 0-.686-.131-1.332-.391-1.936a5.017 5.017 0 0 0-1.067-1.581 5.018 5.018 0 0 0-1.58-1.065 4.8 4.8 0 0 0-1.919-.391h-4.972zm26.211 22.77c0 .521-.184.965-.551 1.332a1.81 1.81 0 0 1-1.332.551c-.522 0-.965-.183-1.333-.551a1.816 1.816 0 0 1-.55-1.332V26.232c0-.521.183-.965.55-1.332a1.821 1.821 0 0 1 1.333-.551c.521 0 .965.184 1.332.551.366.366.551.811.551 1.332v24.653zm35.643-12.326c0 3.919-1.393 7.271-4.174 10.052-2.771 2.771-6.116 4.157-10.035 4.157-3.931 0-7.281-1.386-10.052-4.157-2.771-2.77-4.157-6.12-4.157-10.052 0-3.918 1.386-7.264 4.157-10.034 2.781-2.783 6.133-4.174 10.052-4.174 3.908 0 7.253 1.391 10.035 4.174 1.397 1.397 2.441 2.924 3.135 4.582.692 1.657 1.039 3.474 1.039 5.452m-14.209-10.444c-1.468 0-2.809.255-4.023.764-1.213.509-2.336 1.278-3.365 2.308-1.03 1.03-1.797 2.15-2.301 3.357-.504 1.208-.755 2.546-.755 4.014 0 2.889 1.018 5.352 3.055 7.389 2.036 2.036 4.499 3.054 7.388 3.054s5.352-1.018 7.388-3.054c2.037-2.037 3.055-4.5 3.055-7.389 0-2.877-1.018-5.334-3.055-7.371-2.048-2.048-4.51-3.072-7.387-3.072m27.953-3.765c1.007 0 1.956.192 2.851.577A7.432 7.432 0 0 1 176 26.508a7.436 7.436 0 0 1 1.581 2.345c.385.894.578 1.845.578 2.85 0 1.801-.557 3.369-1.671 4.707a8.89 8.89 0 0 1 3.278 3.294c.373.657.655 1.35.843 2.079.19.727.285 1.477.285 2.246a8.39 8.39 0 0 1-.692 3.384 9.017 9.017 0 0 1-1.875 2.78 8.858 8.858 0 0 1-2.77 1.882 8.393 8.393 0 0 1-3.384.692h-6.855c-.26 0-.504-.051-.729-.151s-.424-.234-.595-.4-.308-.364-.408-.595a1.837 1.837 0 0 1-.151-.737V26.232c0-.26.051-.505.151-.737.1-.231.236-.429.408-.595.171-.166.37-.3.595-.4.225-.1.469-.151.729-.151h5.487zm-3.605 3.765v7.194h3.605c.498 0 .963-.096 1.395-.285.433-.19.811-.451 1.137-.782.326-.331.583-.713.772-1.146.19-.433.285-.896.285-1.394 0-.486-.095-.943-.285-1.376a3.72 3.72 0 0 0-1.927-1.928 3.418 3.418 0 0 0-1.377-.284H167.2zm0 10.959v9.929h4.973a4.9 4.9 0 0 0 3.508-1.458 5.064 5.064 0 0 0 1.057-1.58c.26-.604.391-1.25.391-1.937 0-.674-.131-1.313-.391-1.917a4.985 4.985 0 0 0-2.647-2.646 4.8 4.8 0 0 0-1.919-.391H167.2zm38.111 9.928c.521 0 .965.184 1.332.551.368.366.551.811.551 1.332 0 .522-.183.965-.551 1.333-.366.366-.811.55-1.332.55h-16.428c-.273 0-.522-.047-.747-.142a1.856 1.856 0 0 1-1.137-1.741V26.233a1.903 1.903 0 0 1 .542-1.342c.171-.17.37-.304.595-.399s.474-.143.747-.143h16.428c.521 0 .965.184 1.332.551.368.368.551.811.551 1.333 0 .521-.183.965-.551 1.332a1.817 1.817 0 0 1-1.332.551h-14.546v8.561h10.443c.521 0 .965.183 1.332.551.366.366.551.811.551 1.332s-.184.965-.551 1.332a1.81 1.81 0 0 1-1.332.551h-10.443v8.561h14.546zm27.756-20.887h-7.015v22.769c0 .522-.184.967-.551 1.333s-.811.551-1.333.551c-.521 0-.965-.184-1.332-.551s-.551-.811-.551-1.333V28.115h-7.015c-.521 0-.965-.184-1.333-.551-.366-.366-.549-.811-.549-1.332s.183-.965.549-1.333c.368-.366.812-.55 1.333-.55h17.796c.521 0 .965.183 1.332.55.368.368.551.812.551 1.333s-.183.965-.551 1.332c-.366.367-.81.551-1.331.551"/></svg>