<?xml version="1.0" encoding="utf-8"?>
<!-- Generator: Adobe Illustrator 23.0.0, SVG Export Plug-In . SVG Version: 6.00 Build 0)  -->
<svg version="1.1" xmlns="http://www.w3.org/2000/svg" xmlns:xlink="http://www.w3.org/1999/xlink" x="0px" y="0px"
	 viewBox="0 0 400 230" style="enable-background:new 0 0 400 230;" xml:space="preserve">
<style type="text/css">
	.st0{display:none;}
	.st1{display:inline;}
	.st2{clip-path:url(#SVGID_2_);}
	.st3{clip-path:url(#SVGID_4_);fill:#231F20;}
</style>
<g id="Layer_2" class="st0">
	<rect x="-12" y="-9" class="st1" width="424" height="252"/>
</g>
<g id="Layer_1">
	<g>
		<g>
			<defs>
				<rect id="SVGID_1_" x="9" y="29.3" width="382" height="171.4"/>
			</defs>
			<clipPath id="SVGID_2_">
				<use xlink:href="#SVGID_1_"  style="overflow:visible;"/>
			</clipPath>
			<g class="st2">
				<defs>
					<rect id="SVGID_3_" x="9" y="29.3" width="382" height="171.4"/>
				</defs>
				<clipPath id="SVGID_4_">
					<use xlink:href="#SVGID_3_"  style="overflow:visible;"/>
				</clipPath>
				<path class="st3" d="M115.8,148.7c-1.5,0-2.7,0.6-3.5,1.7c-0.8,1.1-1.2,2.7-1.2,4.7c0,4.2,1.6,6.3,4.7,6.3c1.3,0,2.9-0.3,4.8-1
					v3.3c-1.5,0.6-3.3,1-5.2,1c-2.7,0-4.8-0.8-6.3-2.5c-1.4-1.7-2.2-4-2.2-7.1c0-1.9,0.4-3.7,1.1-5.1c0.7-1.5,1.7-2.6,3.1-3.4
					c1.3-0.8,2.9-1.2,4.7-1.2c1.8,0,3.7,0.4,5.5,1.3L120,150c-0.7-0.3-1.4-0.6-2.1-0.9S116.5,148.7,115.8,148.7"/>
				<rect x="170.5" y="145.7" class="st3" width="4" height="18.7"/>
				<polygon class="st3" points="232.4,164.4 228.4,164.4 228.4,149 223.3,149 223.3,145.7 237.5,145.7 237.5,149 232.4,149 				"/>
				<polygon class="st3" points="292.2,153.4 296.1,145.7 300.4,145.7 294.1,157.1 294.1,164.4 290.2,164.4 290.2,157.3 284,145.7 
					288.3,145.7 				"/>
				<path class="st3" d="M301.3,95.9c-1.5,0-2.9,0-4.4,0c-0.8,0-0.9,0-1-0.8c-0.2-1.7-0.6-3.4-1.3-5c-1.7-3.7-4.7-5.8-8.8-6.3
					c-2.3-0.3-4.5-0.1-6.7,0.6c-3.2,1-5.3,3.1-6.7,6.1c-0.6,1.4-1,2.9-1.2,4.4c0,0.2,0,0.3,0,0.5c0,0.3-0.2,0.4-0.5,0.5
					c-0.2,0-0.4,0-0.6,0c-2.8,0-5.7,0-8.5,0c-0.2,0-0.4,0-0.6,0c-0.3,0-0.4-0.2-0.5-0.4c-0.1-0.6-0.2-1.1-0.3-1.7
					c-0.4-1.9-1.1-3.7-2.3-5.3c-2-3-4.9-4.5-8.5-4.7c-1.5-0.1-3.1,0-4.6,0.4c-3.9,0.9-6.5,3.3-8,7c-0.5,1.3-0.9,2.6-1,4
					c-0.1,0.9-0.1,0.9-1.1,0.9c-2.7,0-5.4,0-8,0c-0.3,0-0.6,0-1,0c-0.5,0-0.6-0.1-0.6-0.7c0.1-0.6,0.1-1.2,0.2-1.8
					c0.7-3.9,2-7.6,4.2-10.9c3.3-4.9,7.8-7.9,13.6-9c1.8-0.3,3.6-0.5,5.4-0.5c4.5,0,8.5,1.5,12,4.3c1.6,1.3,3,2.8,4.3,4.4
					c0.2,0.3,0.4,0.6,0.7,0.9c0.2,0.2,0.3,0.2,0.5,0c0.3-0.3,0.5-0.6,0.8-0.9c1.3-1.6,2.8-3.1,4.5-4.4c3.6-2.7,7.6-4.1,12.1-4.2
					c2.8-0.1,5.6,0.3,8.3,1.2c4.5,1.5,7.9,4.3,10.5,8.3c2,3.2,3.3,6.7,4,10.4c0.1,0.7,0.2,1.4,0.3,2.2c0.1,0.8,0.1,0.8-0.8,0.9
					c-0.9,0-1.7,0-2.6,0H301.3z"/>
				<path class="st3" d="M93,98.8c1.5,0,3.1,0,4.6,0c0.6,0,0.6,0.1,0.7,0.6c0,0.9,0,1.7,0,2.6c0.1,1.9,0.4,3.7,1.1,5.4
					c1.3,3.1,3.3,5.7,6.3,7.3c1.8,1,3.8,1.6,5.9,1.8c2.5,0.2,4.9,0.2,7.4-0.4c5.7-1.4,9.3-5,11.1-10.5c0.4-1.1,0.4-2.1,0.5-3.5
					c0-0.9,0-1.9,0-2.8c0-0.4,0.1-0.5,0.5-0.5c3.2,0,6.4,0,9.6,0c0.4,0,0.5,0.1,0.5,0.5c0.1,3.1,0,6.2-0.8,9.3
					c-0.9,3.4-2.4,6.6-4.5,9.5c-2.9,3.7-6.6,6.3-11.1,7.7c-2.9,0.9-5.9,1.4-9,1.5c-3.2,0.1-6.3-0.2-9.4-0.9
					c-7.7-2-13.1-6.7-16.3-13.9c-1.2-2.7-1.9-5.4-2.2-8.3c-0.1-1.6,0-3.2-0.1-4.9c0-0.3,0.2-0.4,0.5-0.4c0.7,0,1.5,0,2.2,0
					C91.2,98.7,92.1,98.8,93,98.8L93,98.8z"/>
				<path class="st3" d="M130.6,95.8c-0.2-0.3-0.2-0.6-0.3-1c-1-4.9-3.8-8.2-8.5-10c-1.9-0.7-3.8-1.1-5.8-1.2
					c-2.6-0.1-5.3,0-7.8,0.7c-3.4,1-6.1,2.8-8,5.8c-1,1.5-1.5,3.2-1.9,5c-0.1,0.6-0.1,0.6-0.7,0.6c-3.1,0-6.2,0-9.4,0
					c-0.6,0-0.7-0.1-0.6-0.6c0.1-0.8,0.2-1.5,0.4-2.3c0.8-3.7,2.3-7.1,4.5-10.1c3.1-4.3,7.3-7.1,12.4-8.6c2.5-0.7,5-1.1,7.5-1.2
					c3.5-0.2,6.9,0.1,10.3,1c4.5,1.1,8.4,3.3,11.5,6.7c2.6,2.8,4.4,6.2,5.6,9.9c0.4,1.2,0.7,2.4,0.9,3.7c0.1,0.4,0.1,0.7,0.1,1.1
					c0,0.5-0.1,0.6-0.6,0.6c-1.3,0-2.6,0-3.9,0c-1.7,0-3.4,0-5.1,0C131.1,95.9,130.9,95.8,130.6,95.8"/>
				<path class="st3" d="M45.1,73.3c2.9,0,5.8,0,8.8,0c2,0,3.9,0.2,5.8,0.8c3.4,0.9,6.6,2.4,9.4,4.6c4,3.2,6.5,7.3,7.4,12.3
					c0.2,1.1,0.3,2.2,0.4,3.4c0,0.3,0,0.6,0,0.8c0,0.6-0.1,0.7-0.7,0.7c-0.1,0-0.2,0-0.4,0c-2.8,0-5.7,0-8.5,0c-0.2,0-0.4,0-0.6,0
					c-0.3,0-0.5-0.2-0.5-0.4c0-0.8-0.1-1.6-0.3-2.4c-0.3-1.8-1-3.5-2.1-5c-1.7-2.3-4.1-3.5-6.8-4.1c-1-0.2-1.9-0.3-2.9-0.3
					c-3,0-5.9,0-8.9,0c-0.2,0-0.4,0-0.6,0c-0.2,0-0.4,0.2-0.4,0.4c0,0.3,0,0.6,0,1c0,3.2,0,6.5,0,9.7c0,1.1,0,1.1-1.1,1.1
					c-2.8,0-5.7,0-8.5,0c-0.2,0-0.5,0-0.7,0c-0.2,0-0.3-0.1-0.3-0.3c0-0.3,0-0.6,0-0.8c0-6.7,0-13.5,0-20.2c0-1.3,0-1.2,1.3-1.2
					C38.3,73.3,41.7,73.3,45.1,73.3"/>
				<path class="st3" d="M169.4,127.3c-4.9,0-9.9,0-14.8,0c-0.4,0-0.7,0-1.1,0c-0.2,0-0.4-0.1-0.4-0.4c0-0.3,0-0.6,0-0.8
					c0-8.6,0-17.3,0-25.9c0-1.5-0.1-1.4,1.4-1.4c2.6,0,5.3,0,7.9,0c0.3,0,0.6,0,0.9,0c0.2,0,0.4,0.1,0.4,0.4c0,0.4,0,0.8,0,1.2
					c0,4.9,0,9.9,0,14.8c0,1.5-0.1,1.4,1.4,1.4c6.5,0,13.1,0,19.6,0c1.5,0,1.4-0.1,1.4,1.4c0,2.6,0,5.3,0,7.9c0,0.3,0,0.6,0,1
					c0,0.2-0.2,0.4-0.4,0.4c-0.4,0-0.7,0-1.1,0C179.5,127.3,174.4,127.3,169.4,127.3"/>
				<path class="st3" d="M360.1,73c5.4,0,10.8,0,16.2,0c0.4,0,0.7,0,1.1,0c0.2,0,0.4,0.1,0.4,0.4c0,0.2,0,0.5,0,0.7
					c0,2.8,0,5.6,0,8.4c0,0.2,0,0.5,0,0.7c0,0.2-0.2,0.4-0.4,0.4c-0.3,0-0.6,0-1,0c-3.2,0-6.5,0-9.7,0c-1.1,0-1.1,0-1.1,1.1
					c0,3.2,0,6.4,0,9.6c0,0.3,0,0.6,0,1c0,0.5-0.1,0.6-0.6,0.6c-2,0-4.1,0-6.1,0c-1.1,0-2.3,0-3.4,0c-0.3,0-0.5-0.1-0.5-0.4
					c0-0.4,0-0.7,0-1.1c0-3,0-6,0-9c0-0.3,0-0.6,0-0.9c0-0.8-0.1-0.8-0.8-0.8c-3.3,0-6.7,0-10,0c-2,0-1.7,0.3-1.8-1.7
					c0-2.5,0-5,0-7.5c0-0.3,0-0.6,0-1c0-0.2,0.2-0.4,0.4-0.4c0.4,0,0.7,0,1.1,0C349.3,73,354.7,73,360.1,73"/>
				<path class="st3" d="M319.6,113c0-4.4,0-8.8,0-13.3c0-1.1-0.1-1.1,1.1-1.1c2.8,0,5.7,0,8.5,0c0.2,0,0.4,0,0.6,0
					c0.3,0,0.4,0.2,0.4,0.5c0,0.2,0,0.5,0,0.7c0,8.8,0,17.5,0,26.3c0,0,0,0.1,0,0.1c0,0.9,0,0.9-1,0.9c-2.9,0-5.8,0-8.8,0
					c-0.1,0-0.2,0-0.4,0c-0.5,0-0.5-0.1-0.5-0.6c0-0.3,0-0.6,0-1L319.6,113L319.6,113z"/>
				<path class="st3" d="M296,113c0-4.4,0-8.8,0-13.1c0-1.1-0.1-1.1,1.1-1.1c2.8,0,5.5,0,8.3,0c0.3,0,0.6,0,0.8,0
					c0.2,0,0.3,0.1,0.3,0.3c0,0.4,0,0.7,0,1.1c0,6.9,0,13.9,0,20.8c0,1.7,0,3.5,0,5.2c0,0.2,0,0.4,0,0.6c0,0.4-0.1,0.5-0.5,0.5
					c-0.2,0-0.3,0-0.5,0c-2.8,0-5.7,0-8.5,0c-0.2,0-0.5,0-0.7,0c-0.2,0-0.3-0.1-0.3-0.3c0-0.4,0-0.7,0-1.1
					C296,121.5,296,117.2,296,113L296,113z"/>
				<path class="st3" d="M271.1,113c0,4.3,0,8.7,0,13c0,1.3,0.1,1.2-1.2,1.2c-2.8,0-5.6,0-8.4,0c-0.2,0-0.5,0-0.7,0
					c-0.2,0-0.3-0.1-0.3-0.3c0-0.2,0-0.5,0-0.7c0-8.8,0-17.5,0-26.3c0-1.2-0.1-1.2,1.2-1.2c2.8,0,5.6,0,8.4,0c0.2,0,0.5,0,0.7,0
					c0.2,0,0.3,0.1,0.3,0.3c0,0.4,0,0.7,0,1.1C271.1,104.4,271.1,108.7,271.1,113L271.1,113z"/>
				<path class="st3" d="M199.9,113c0-4.3,0-8.5,0-12.8c0-0.2,0-0.4,0-0.6c0-0.9,0-0.9,1-0.9c2.9,0,5.8,0,8.8,0c0.2,0,0.3,0,0.5,0
					c0.3,0,0.4,0.2,0.4,0.5c0,0.2,0,0.4,0,0.6c0,8.8,0,17.6,0,26.4c0,0.1,0,0.2,0,0.4c0,0.6-0.1,0.7-0.7,0.7c-3.1,0-6.2,0-9.2,0
					c0,0-0.1,0-0.1,0c-0.4,0-0.5-0.1-0.5-0.6c0-0.3,0-0.6,0-1C199.9,121.5,199.9,117.3,199.9,113L199.9,113z"/>
				<path class="st3" d="M44.2,126.7c-0.3,0.2-0.5,0.2-0.8,0.2c-2.9,0-5.8,0-8.8,0c-0.2,0-0.3,0-0.5,0c-0.3,0-0.5-0.1-0.5-0.4
					c0-0.3,0-0.6,0-0.9c0-8.4,0-16.8,0-25.2c0-0.4,0-0.7,0-1.1c0-0.5,0.1-0.5,0.6-0.6c0.2,0,0.4,0,0.6,0c2.7,0,5.4,0,8.2,0
					c0.3,0,0.6,0,0.8,0c0.2,0,0.4,0.1,0.4,0.4c0,0.3,0,0.6,0,1c0,8.5,0,17,0,25.5C44.3,126,44.4,126.4,44.2,126.7"/>
				<path class="st3" d="M76.9,113.2c0,4.2,0,8.3,0,12.5c0,0.3,0,0.6,0,0.9c0,0.6-0.1,0.7-0.7,0.7c-3.1,0-6.2,0-9.2,0
					c-0.1,0-0.2,0-0.4,0c-0.2,0-0.3-0.2-0.3-0.3c0-0.3,0-0.6,0-0.8c0-8.5,0-17.1,0-25.6c0-0.1,0-0.2,0-0.2c0-1.1,0-1.1,1.1-1.1
					c2.8,0,5.7,0,8.5,0c0.2,0,0.3,0,0.5,0c0.4,0,0.5,0.1,0.6,0.6c0,0.4,0,0.7,0,1.1C76.9,104.9,76.9,109.1,76.9,113.2"/>
				<path class="st3" d="M225.1,113c0-4.3,0-8.5,0-12.8c0-0.4,0-0.7,0-1.1c0-0.2,0.1-0.4,0.4-0.4c0.2,0,0.4,0,0.6,0
					c2.8,0,5.7,0,8.5,0c0.2,0,0.3,0,0.5,0c0.4,0,0.5,0.1,0.5,0.5c0,0.3,0,0.6,0,0.9c0,8.7,0,17.4,0,26c0,0.2,0,0.5,0,0.7
					c0,0.2-0.1,0.4-0.4,0.4c-0.2,0-0.3,0-0.5,0c-2.9,0-5.8,0-8.8,0c-0.1,0-0.2,0-0.2,0c-0.6,0-0.6-0.1-0.7-0.6c0-0.3,0-0.6,0-1
					C225.1,121.5,225.1,117.3,225.1,113L225.1,113z"/>
				<path class="st3" d="M365.6,113.2v12.9c0,1.3,0.1,1.2-1.2,1.2c-2.8,0-5.5,0-8.3,0c-0.2,0-0.5,0-0.7,0c-0.2,0-0.4-0.2-0.4-0.4
					c0-0.3,0-0.6,0-0.9c0-8.6,0-17.2,0-25.8c0-1.7-0.2-1.5,1.5-1.5c2.6,0,5.1,0,7.7,0c0.3,0,0.6,0,1,0c0.2,0,0.4,0.2,0.4,0.4
					c0,0.4,0,0.7,0,1.1C365.6,104.6,365.6,108.9,365.6,113.2L365.6,113.2z"/>
				<path class="st3" d="M330.2,84.5c0,3.3,0,6.6,0,9.9c0,0.3,0,0.6,0,0.9c0,0.6-0.1,0.7-0.7,0.7c-3.1,0-6.2,0-9.2,0
					c-0.5,0-0.6-0.1-0.6-0.6c0-0.2,0-0.5,0-0.7V74.4c0-0.3,0-0.6,0-0.9c0-0.5,0.1-0.5,0.6-0.6c0,0,0.1,0,0.1,0c3.1,0,6.2,0,9.2,0
					c0.6,0,0.6,0.1,0.7,0.6c0,0.3,0,0.6,0,0.9C330.2,77.8,330.2,81.2,330.2,84.5"/>
				<path class="st3" d="M199.9,84.4c0-3.4,0-6.9,0-10.3c0-1.1,0-1.1,1.1-1.1c2.8,0,5.7,0,8.5,0c0.2,0,0.5,0,0.7,0
					c0.2,0,0.3,0.1,0.3,0.3c0,0.3,0,0.6,0,0.8c0,6.8,0,13.6,0,20.4c0,1.2,0,1.2-1.2,1.2c-2.8,0-5.5,0-8.3,0c-0.3,0-0.6,0-0.8,0
					c-0.2,0-0.3-0.1-0.3-0.3c0-0.3,0-0.6,0-1C199.9,91.2,199.9,87.8,199.9,84.4"/>
				<path class="st3" d="M163.6,84.4c0,3.4,0,6.9,0,10.3c0,1.1,0,1.1-1,1.1c-2.8,0-5.7,0-8.5,0c-0.2,0-0.4,0-0.6,0
					c-0.2,0-0.4-0.2-0.4-0.4c0-0.3,0-0.6,0-1c0-6.7,0-13.4,0-20.1c0-1.5-0.1-1.4,1.4-1.4c2.7,0,5.4,0,8,0c0.2,0,0.5,0,0.7,0
					c0.3,0,0.4,0.2,0.4,0.5c0,0.3,0,0.6,0,1C163.6,77.8,163.6,81.1,163.6,84.4"/>
			</g>
		</g>
	</g>
</g>
</svg>
