<?xml version="1.0" encoding="utf-8"?>
<!-- Generator: Adobe Illustrator 23.0.0, SVG Export Plug-In . SVG Version: 6.00 Build 0)  -->
<svg version="1.1" xmlns="http://www.w3.org/2000/svg" xmlns:xlink="http://www.w3.org/1999/xlink" x="0px" y="0px"
	 viewBox="0 0 400 230" style="enable-background:new 0 0 400 230;" xml:space="preserve">
<style type="text/css">
	.st0{display:none;}
	.st1{display:inline;}
	.st2{fill:#00285A;}
</style>
<g id="Layer_2" class="st0">
	<rect x="-12" y="-9" class="st1" width="424" height="252"/>
</g>
<g id="Layer_1">
	<g>
		<g>
			<path class="st2" d="M96.2,105c-1.5,0-2.9,0.3-4.3,0.8c-1.4,0.5-2.7,1.2-3.8,2.2c-1.1,1-2,2.1-2.7,3.5c-0.7,1.4-1,2.9-1,4.7
				c0,1.7,0.3,3.4,1,4.7c0.7,1.4,1.5,2.5,2.7,3.5c1.1,1,2.4,1.7,3.8,2.2s2.8,0.8,4.3,0.8c1.5,0,2.9-0.3,4.3-0.8
				c1.4-0.5,2.7-1.2,3.8-2.2c1.1-1,2-2.1,2.7-3.5c0.7-1.4,1-2.9,1-4.7c0-1.7-0.3-3.3-1-4.7c-0.7-1.4-1.6-2.5-2.7-3.5
				c-1.1-1-2.4-1.7-3.8-2.2C99.2,105.3,97.7,105,96.2,105 M96.2,133.9c-2.7,0-5.2-0.3-7.6-1c-2.4-0.7-4.5-1.7-6.3-3.2
				c-1.7-1.5-3.2-3.4-4.2-5.6c-1-2.3-1.5-4.8-1.5-7.8c0-3,0.5-5.6,1.5-7.9c1-2.3,2.4-4.1,4.2-5.6c1.7-1.5,3.8-2.6,6.2-3.3
				c2.4-0.7,4.9-1.1,7.6-1.1s5.2,0.4,7.6,1.1c2.4,0.7,4.5,1.9,6.2,3.3c1.7,1.5,3.2,3.4,4.2,5.6c1,2.3,1.5,4.9,1.5,7.9
				c0,3-0.5,5.6-1.5,7.8c-1,2.3-2.4,4.1-4.2,5.6c-1.7,1.5-3.8,2.5-6.3,3.2C101.4,133.6,98.9,133.9,96.2,133.9"/>
			<path class="st2" d="M171.9,105c-1.5,0-2.9,0.3-4.3,0.8c-1.4,0.5-2.7,1.2-3.8,2.2c-1.1,1-2,2.1-2.7,3.5c-0.7,1.4-1,2.9-1,4.7
				c0,1.8,0.3,3.4,1,4.7s1.5,2.5,2.7,3.5c1.1,1,2.4,1.7,3.8,2.2s2.9,0.8,4.3,0.8c1.5,0,2.9-0.3,4.3-0.8c1.4-0.5,2.7-1.2,3.8-2.2
				c1.1-1,2-2.1,2.7-3.5c0.7-1.4,1-2.9,1-4.7c0-1.8-0.3-3.3-1-4.7c-0.7-1.4-1.6-2.5-2.7-3.5c-1.1-1-2.4-1.7-3.8-2.2
				C174.8,105.3,173.3,105,171.9,105 M171.9,133.9c-2.7,0-5.2-0.3-7.6-1c-2.4-0.7-4.5-1.7-6.3-3.2c-1.7-1.5-3.2-3.4-4.2-5.6
				c-1-2.3-1.6-4.8-1.6-7.8c0-3,0.5-5.6,1.6-7.9c1-2.3,2.4-4.1,4.2-5.6c1.7-1.5,3.8-2.6,6.2-3.3c2.4-0.7,4.9-1.1,7.6-1.1
				s5.2,0.4,7.6,1.1c2.4,0.7,4.5,1.9,6.2,3.3c1.7,1.5,3.2,3.4,4.2,5.6c1,2.3,1.5,4.9,1.5,7.9c0,3-0.5,5.6-1.5,7.8
				c-1,2.3-2.4,4.1-4.2,5.6c-1.7,1.5-3.8,2.5-6.3,3.2C177.1,133.6,174.6,133.9,171.9,133.9"/>
		</g>
		<polygon class="st2" points="63.4,137.8 35.5,105.5 35.5,137.8 27,137.8 27,92.5 35.9,92.5 62.7,123.5 62.7,92.5 71.2,92.5 
			71.2,137.8 		"/>
		<polygon class="st2" points="137.7,133.6 130.3,133.6 115.2,98.8 123.6,98.8 134,123 144.4,98.8 152.8,98.8 		"/>
		<polygon class="st2" points="285.9,133.6 285.9,105.4 273.8,105.4 273.8,98.8 306,98.8 306,105.4 293.8,105.4 293.8,133.6 		"/>
		<rect x="311.8" y="98.8" class="st2" width="8" height="34.8"/>
		<path class="st2" d="M263.3,118.5l-4.8-11.2l-4.8,11.2H263.3z M269.8,133.6l-3.6-8.5h-15.2l-3.6,8.5h-7.8l15.4-34.8h7.3l15.4,34.8
			H269.8z"/>
		<g>
			<path class="st2" d="M351.3,138.1c-3.3,0-6.6-0.5-9.7-1.4c-3.1-0.9-5.9-2.4-8.2-4.3c-2.4-1.9-4.3-4.3-5.6-7.2
				c-1.4-2.8-2.1-6.3-2.1-10.1c0-3.8,0.7-7.2,2.1-10c1.4-2.9,3.3-5.4,5.6-7.3c2.4-1.9,5.1-3.4,8.2-4.4c3.1-1,6.3-1.5,9.7-1.5
				c6.8,0,13.1,2.3,17.3,4c0.5,0.2,3.2,1.4,3.2,1.4l-4.3,7.2l-0.6-0.4c-4.2-2.5-9-4.2-13.4-4.7c-0.8-0.1-1.5-0.1-2.1-0.1H351h-0.2
				c-2,0.1-4.1,0.4-5.9,1c-2,0.7-3.8,1.7-5.4,3c-1.5,1.3-2.8,3-3.7,4.8c-0.9,1.9-1.4,4.1-1.4,6.6s0.5,4.7,1.4,6.6
				c0.9,1.9,2.1,3.6,3.7,4.8s3.3,2.3,5.4,3c2,0.7,4.2,1,6.5,1c7.3,0,13.4-3.3,17.2-6.1l0.7-0.5l3.8,6.6l-0.6,0.4
				c-4.8,3-12.1,6.8-19.7,7.3C352.2,138,351.7,138.1,351.3,138.1"/>
		</g>
		<polygon class="st2" points="227.4,98.8 216.1,119.5 204.7,98.8 197,98.8 197,133.6 203.9,133.6 203.9,112 216.1,133.7 228.2,112 
			228.2,133.6 235.1,133.6 235.1,98.8 		"/>
	</g>
</g>
</svg>
