<?xml version="1.0" encoding="utf-8"?>
<!-- Generator: Adobe Illustrator 23.0.0, SVG Export Plug-In . SVG Version: 6.00 Build 0)  -->
<svg version="1.1" xmlns="http://www.w3.org/2000/svg" xmlns:xlink="http://www.w3.org/1999/xlink" x="0px" y="0px"
	 viewBox="0 0 400 230" style="enable-background:new 0 0 400 230;" xml:space="preserve">
<style type="text/css">
	.st0{display:none;}
	.st1{display:inline;}
	.st2{fill:#161F49;}
</style>
<g id="Layer_2" class="st0">
	<rect x="-12" y="-9" class="st1" width="424" height="252"/>
</g>
<g id="Layer_1">
	<g>
		<path class="st2" d="M114.7,99.5L114.7,99.5c-4.8-11.8-24.8-14.5-46.5-6.8l-9.6-6c-3-1.7-6.4,0.4-6.6,3.8l0,9.8
			c-18.7,11.2-29.5,27.2-24.9,38.6c5.3,13.1,29.2,14.9,53.4,4.1C104.7,132,120,112.6,114.7,99.5z M61.5,94.3l23,14.5
			c1.7,1,1.9,3.7,0.1,4.8l-23.2,14.1c-1.8,1-4.3-0.2-4.2-2.8l-0.1-28.1C57.2,94.5,59.5,93.1,61.5,94.3z M49.3,147L49.3,147
			c-10.5-0.8-14.7-7.7-11.9-17.2c0,1.6,0.2,3.1,0.8,4.5c4.1,10.1,22.5,11.5,41.2,3.1c0.4-0.2,0.8-0.4,1.1-0.5
			C70,143.7,58.4,147.7,49.3,147z M92.9,121.5L92.9,121.5c-9.3,11.8-26.2,20-37.6,19.2c-11.4-0.9-13.2-11.2-3.8-23
			c0.2-0.2,0.4-0.5,0.6-0.7l0,14.9c-0.1,3.8,3.6,5.6,6.2,4.1L92.5,115c2.7-1.7,2.4-5.6-0.1-7.1l-13.9-8c3.8-1.1,7.4-1.7,10.6-1.4
			C100.5,99.3,102.2,109.6,92.9,121.5z M105.9,104.4L105.9,104.4c-0.1-0.1-0.1-0.3-0.1-0.4c-3.3-8.1-15.9-10.6-30.4-6.9l-2.4-1.5
			c7.2-3.1,14.3-4.7,20.2-4.2C102,92.1,106.4,97.2,105.9,104.4z"/>
		<path class="st2" d="M354.5,126.6l-1.4-1.2c-1.3,1.6-2.6,2.8-3.8,3.7c-1.2,0.9-2.1,1.7-2.8,1.6c-0.3,0-0.6-0.4-0.9-0.6
			c-0.2-0.2-0.4-0.5-0.4-0.8c0-0.5,0-1.1,0.1-1.6c0.1-0.5,0.2-1,0.3-1.5l6.9-23.2c0.2-0.7,0.3-1.3,0.4-1.9c0.1-0.6,0.2-1,0.2-1.4
			c0-1.3-0.3-2.2-0.9-2.8c-0.6-0.6-1.5-0.9-2.8-0.9c-2.4,0-5.6,1.4-9.7,4c-4,2.7-8.5,6.5-13.3,11.4l9.5-34l-2.5,0
			c-1.9,0.8-4,1.3-6.1,1.8c-2.2,0.4-4.5,0.7-7,0.8l-0.5,2.2l3.1,0c2,0,3.3,0.2,3.7,0.5c0.4,0.3,0.6,0.9,0.6,1.8c0,0.3,0,0.6-0.1,0.9
			c0,0.3-0.1,0.6-0.2,0.9l-9.2,33.3c-3.5,5.4-6.8,7.9-8.8,9.2c-2,1.3-4,2.2-6.1,2.2c-2.6,0-4.7-1.2-6.2-2.9
			c-1.5-1.7-2.3-4.1-2.3-7.1c0-2.7,0.5-5.3,1.4-8.1c1-2.8,2.3-5.4,4.1-7.8c1.4-2,3.1-3.6,5-4.8c1.9-1.2,3.8-1.7,5.7-1.7
			c0.9,0,1.6,0.1,2.1,0.4c0.5,0.3,0.8,0.7,0.8,1.1c0,0.3-0.2,0.9-0.8,1.9c-0.5,1-0.8,1.9-0.8,2.7c0,1.1,0.3,2,1,2.7
			c0.6,0.7,1.5,1,2.5,1c1.3,0,2.4-0.5,3.3-1.5c0.9-1,1.4-2.2,1.4-3.5c0-2.3-0.9-4.1-2.7-5.5c-1.8-1.4-4.2-2.1-7.2-2.1
			c-2.9,0-5.6,0.6-8.4,1.9c-2.7,1.2-5.2,3.1-7.4,5.4c-2.4,2.6-4.3,5.5-5.7,8.7c-1.4,3.2-2.1,6.4-2.1,9.5c0,0.6,0,1.1,0.1,1.7
			c-3,2.5-5.8,4.5-8.2,5.8c-2.7,1.4-5.1,2.4-7.2,2.4c-2.1,0-3.8-0.9-4.9-2.1c-1.1-1.2-1.7-2.9-1.7-5.2c0-0.7,0-1.5,0.2-2.4
			c0.1-0.9,0.3-1.8,0.5-2.8c7.6-0.6,13.7-2.4,18.4-5.3c4.7-2.9,7-6.5,7-10.5c0-2.2-0.8-4-2.4-5.3c-1.6-1.3-3.8-1.9-6.6-1.9
			c-3,0-5.9,0.7-8.8,2.1c-2.8,1.4-5.5,3.4-7.9,6.1c-2.5,2.8-4.4,6-5.9,9.5c-1.4,3.6-2.1,7.1-2.2,10.6c0,0,0,0,0,0
			c-1.6,2-2.9,3.5-4,4.4c-1.2,1.1-2.2,1.6-3.1,1.6c-0.7,0-1.2-0.2-1.6-0.7c-0.4-0.5-0.6-1.1-0.6-2c0-0.4,0.1-0.8,0.1-1.3
			c0.1-0.5,0.2-1,0.4-1.6l6.7-26.1l6.9,0l0.7-2.9l-6.6,0l3.3-13.6l-2.5,0c-1.9,4.1-4.1,7.3-6.5,9.6c-2.4,2.3-5.2,3.8-8.3,4.5
			l-0.1,0.3c-0.9-0.6-2-0.9-3.3-0.9c-1.7,0-3.1,0.5-4.1,1.5c-1.1,1-1.6,2.4-1.6,4.1c0,1.5,0.8,2.8,2.3,4c1.5,1.1,2.2,2.2,2.2,3
			c0,1.1-0.4,2.7-1.3,5c-0.9,2.3-2.6,5.9-5,10.8c-0.5-2.7-1.2-6.4-2-10.9c-2-11.4-3.7-17-5-17.1c-0.2,0-2,0.2-5.2,0.7
			c-2,0.3-4,0.6-6,0.8l0.2-0.6l-11.2,0l-1.2,4.7c-0.4-2-1.1-3.6-2.3-4.6c-1.2-1-2.8-1.5-4.8-1.5c-2.1,0-4.4,0.6-6.7,2
			c-2.3,1.3-4.5,3.2-6.7,5.7c-2.7,3.1-4.9,6.6-6.5,10.6c-1.5,3.7-2.3,7.2-2.4,10.6c-1,1.5-1.7,2.5-2.1,2.9c-0.6,0.6-1.1,0.9-1.5,0.9
			c-0.4,0-0.8-0.2-1-0.5c-0.2-0.3-0.3-0.8-0.3-1.3c0-0.2,0.1-0.6,0.2-1.2c0.1-0.4,0.2-0.7,0.3-1l12.1-47.7c-2.7,0.6-5.6,1.1-8.6,1.5
			c-3,0.4-6.2,0.8-9.5,1l0,2l0.7,0c1.2,0,2,0.2,2.5,0.6c0.5,0.4,0.8,0.9,0.8,1.7c0,0.6-0.2,1.9-0.7,3.9c-0.1,0.6-0.2,1-0.3,1.3
			l-5.3,20.4c0.1-0.8,0.1-1.6,0.1-2.4c0-3.6-0.8-6.3-2.5-8.3c-1.6-1.9-4-2.9-7.1-2.9c-2.2,0-4.4,0.7-6.4,2.2c-2.1,1.4-4.3,3.8-6.6,7
			l2.3-8.2c-2.7,0.5-5.6,1-8.5,1.3c-2.9,0.4-6,0.7-9.3,1l0,2c1.6,0,2.7,0.2,3.3,0.6c0.6,0.4,0.9,1,0.9,2c0,0.3-0.1,0.7-0.1,1.3
			c-0.1,0.6-0.2,1.1-0.4,1.7l-8.8,35.6c-0.7,3-1.4,4.9-2.1,5.6c-0.7,0.7-1.7,1.1-3.1,1.1c-0.1,0-0.2,0-0.3,0c-0.1,0-0.2,0-0.3,0
			l0,2.2l21.9,0l0-2.1c-1.9-0.1-3.2-0.4-3.9-0.8c-0.6-0.4-0.9-1.2-0.9-2.3c0-0.6,0-1.1,0.1-1.7c0.1-0.6,0.2-1.1,0.4-1.7l2.4-8.9
			c0.9,0.7,1.9,1.2,2.9,1.6c1.1,0.4,2.3,0.5,3.5,0.5c3,0,5.9-0.8,8.6-2.5c2.7-1.7,5.2-4.2,7.6-7.5c1.6-2.3,3-4.7,4-7.3l-0.4,1.5
			l-0.1,0.5c-1.2,4.7-1.8,7.5-1.8,8.6c0,2.2,0.6,3.9,1.7,5.1c1.1,1.2,2.8,1.8,4.9,1.8c2.4,0,4.7-0.9,6.8-2.7
			c1.3-1.1,2.7-2.6,4.1-4.6c0.4,1.8,1.1,3.3,2.2,4.5c1.7,1.8,4,2.7,6.8,2.7c2.8,0,5.3-0.9,7.6-2.6c2.3-1.7,4.4-4.3,6.4-7.9
			c-0.2,1.3-0.4,2.3-0.5,3.1c-0.1,0.8-0.2,1.5-0.2,2c0,1.8,0.5,3.1,1.6,4c1.1,0.9,2.6,1.4,4.7,1.4c2.5,0,4.8-0.9,6.9-2.6
			c2.1-1.7,4.2-4.5,6.3-8.1l-1.9-1.5c-0.3,0.4-0.6,1-1.1,1.7c-1.6,2.5-3,3.8-4,3.8c-0.4,0-0.6-0.2-0.9-0.5c-0.2-0.4-0.3-0.8-0.3-1.4
			c0-0.6,0.5-2.7,1.5-6.4l0-0.1l5.5-20.1c0.4,0.1,0.7,0.3,1,0.6c0.6,0.6,1.1,1.9,1.7,3.8c0.6,2.3,1.3,5.4,2.1,9.4
			c0.8,4,1.5,8.4,2.3,13.2c0.4,2.3,0.6,4.2,0.8,5.7c0.2,1.5,0.3,2.8,0.3,3.8c0,1.4-0.6,2.8-1.8,4.3c-1.1,1.5-2.2,2.2-3.1,2.2
			c-0.5,0-1.5-0.5-3-1.5c-1.5-1-2.9-1.6-4.2-1.6c-1.7,0-3,0.5-4.1,1.5c-1.1,1-1.6,2.3-1.6,3.8c0,1.7,0.6,3.1,1.9,4
			c1.3,1,3,1.5,5.2,1.5c3.3,0,6.7-1.7,10.3-5.1c3.6-3.4,7.5-8.8,11.9-16.1c3.8-6.5,6.9-12.3,9.1-17.4c2.2-5.2,3.3-8.9,3.3-11.2
			c0-1.1-0.2-2.1-0.6-3l5.1,0l-6.9,27c-0.2,0.9-0.4,1.7-0.5,2.4c-0.1,0.7-0.2,1.4-0.2,2c0,1.7,0.4,3,1.3,4c0.9,1,2.1,1.5,3.6,1.5
			c1.9,0,4-0.9,6.3-2.7c1.8-1.4,3.5-3.2,5.4-5.5c0.4,2.2,1.2,4,2.5,5.3c1.8,2,4.4,3,7.7,3c3.4,0,6.8-0.8,10.3-2.6
			c3-1.4,6.1-3.5,9.4-6.3c0.6,1.9,1.5,3.6,2.8,4.9c2.4,2.6,5.6,3.9,9.4,3.9c3.5,0,6.8-0.9,9.7-2.7c2.1-1.3,4.1-3.1,6-5.4l-2.3,8.1
			l0,0c0.6-0.1,1.1-0.1,1.7-0.2c0.6,0,1.1,0,1.7,0c0.6,0-0.2,0,0.3,0c0.6,0,2.4,0.1,3,0.2l4.7-16.5c0.5-1.6,1.3-3.1,2.3-4.6
			c1.1-1.5,2.8-3.2,5.1-5.3c2.6-2.3,4.8-4.1,6.8-5.4c2-1.3,3.4-1.9,4.4-1.9c0.6,0,1.1,0.2,1.5,0.5c0.4,0.3,0.5,0.8,0.5,1.4
			c0,0.2,0,0.5-0.1,0.7c0,0.3-0.1,0.7-0.3,1.2l-7.1,24c-0.2,0.5-0.3,0.9-0.4,1.4c-0.1,0.4-0.1,0.8-0.1,1.2c0,1,0.3,1.8,1,2.4
			c0.7,0.6,1.6,0.9,2.9,0.9c1.8,0,3.9-0.8,6.1-2.3C349.8,131.8,352.1,129.6,354.5,126.6z M272.9,103.7c2.8-3,5.8-4.5,9-4.5
			c1.2,0,2,0.3,2.6,0.8c0.6,0.6,0.9,1.4,0.9,2.6c0,3.4-1.8,6.4-5.5,9.1c-3.6,2.6-8.1,4.1-13.5,4.3
			C268,110.8,270.1,106.7,272.9,103.7z M144.6,114.3c-0.9,3.3-2.1,6.5-3.6,9.8c-1.2,2.6-2.5,4.6-3.8,5.9c-1.3,1.4-2.6,2.1-3.8,2.1
			c-0.8,0-1.4-0.2-1.9-0.7c-0.5-0.5-0.7-1.1-0.7-1.9c0-0.4,0.1-1.1,0.3-2.1c0.2-0.9,0.4-2,0.7-3.2l2.1-7.7h0
			c1.3-4.9,2.7-8.4,4.2-10.8c1.5-2.3,3.2-3.5,5-3.5c0.8,0,1.5,0.4,2,1.2c0.5,0.8,0.8,1.8,0.8,3.2
			C145.9,108.5,145.5,111.1,144.6,114.3z M197.6,110.7c-0.8,2.9-1.8,6-3.1,9.2c-1.2,2.8-2.5,5-3.9,6.6c-1.4,1.6-2.7,2.3-4,2.3
			c-0.9,0-1.6-0.4-2.1-1.1c-0.5-0.8-0.8-1.8-0.8-3.1c0-2.1,0.5-4.7,1.4-7.8c0.9-3,2.2-6.1,3.9-9.3c1.4-2.6,2.6-4.5,3.7-5.7
			c1.1-1.1,2.2-1.7,3.3-1.7c0.8,0,1.5,0.3,1.9,1c0.5,0.7,0.7,1.6,0.7,2.7C198.8,105.5,198.4,107.7,197.6,110.7z"/>
		<path class="st2" d="M237.4,147.5c-0.4-0.2-0.9-0.5-1.6-0.8c-0.6-0.3-1.2-0.5-1.7-0.8c-0.8-0.4-1.2-1-1.2-1.6c0-1.1,0.7-1.6,2-1.6
			c1,0,1.6,0.4,1.7,1.3l0,0.6l0,0.3l2,0l0-0.2c0-1.2-0.2-2-0.7-2.5c-0.6-0.5-1.6-0.8-3-0.8c-1.1,0-2,0.2-2.7,0.5
			c-0.9,0.5-1.3,1.3-1.3,2.4c0,1,0.4,1.8,1.2,2.4c0.4,0.3,0.8,0.5,1.4,0.8l1.4,0.6c0.5,0.2,0.9,0.4,1.2,0.7c0.5,0.3,0.7,0.8,0.7,1.4
			c0,0.9-0.4,1.4-1.1,1.6c-0.3,0.1-0.7,0.2-1.1,0.2c-1.1,0-1.7-0.4-1.9-1.2c-0.1-0.3-0.1-0.6-0.1-0.9l0-0.6l-2,0l0,0.5l0,0.9
			c0.1,0.9,0.5,1.6,1.2,2c0.6,0.4,1.6,0.6,2.7,0.6c2.8,0,4.2-1.1,4.2-3.1C238.9,148.9,238.4,148.1,237.4,147.5z"/>
		<path class="st2" d="M246.3,141.7c-0.7-0.2-1.3-0.3-2.1-0.3c-0.7,0-1.4,0.1-2.1,0.3c-0.9,0.3-1.5,0.8-1.7,1.5
			c-0.2,0.4-0.3,1.1-0.3,2.1l0,3.9c0,1.5,0.2,2.5,0.7,3c0.6,0.7,1.7,1.1,3.5,1.1c2.4,0,3.7-0.8,3.9-2.3c0.1-0.5,0.1-1.1,0.1-1.8
			l0-3.9c0-0.9-0.1-1.6-0.3-2.1C247.8,142.5,247.2,142,246.3,141.7z M246.3,149.1c0,0.5,0,0.9-0.1,1.3c-0.1,0.6-0.4,1.1-1,1.3
			c-0.3,0.1-0.7,0.2-1,0.2c-0.4,0-0.8-0.1-1.1-0.3c-0.4-0.2-0.6-0.4-0.8-0.7c-0.1-0.3-0.2-0.9-0.2-1.9l0-3.9c0-0.4,0-0.8,0.1-1.1
			c0.1-0.7,0.4-1.1,1.1-1.3c0.3-0.1,0.6-0.2,1-0.2c0.9,0,1.5,0.3,1.8,0.8c0.2,0.3,0.3,0.9,0.3,1.8L246.3,149.1z"/>
		<path class="st2" d="M256.1,149.3c0,0.4,0,0.8-0.1,1.1c-0.1,1.1-0.8,1.6-2,1.6c-1.2,0-1.9-0.6-1.9-1.7l0-1l0-7.7l-2,0l0,7.8
			c0,0.7,0,1.2,0,1.5c0,0.5,0.3,1,0.6,1.4c0.7,0.7,1.8,1,3.3,1c1.5,0,2.6-0.3,3.3-1c0.4-0.4,0.6-0.8,0.7-1.3c0-0.4,0.1-0.8,0.1-1.5
			l0-7.8l-2,0L256.1,149.3z"/>
		<path class="st2" d="M267.4,151l-0.1-1.4c0-0.4-0.1-0.8-0.1-1.1c-0.1-0.5-0.4-0.8-0.8-1c-0.3-0.1-0.8-0.2-1.4-0.3
			c1-0.2,1.8-0.4,2.1-0.8c0.4-0.5,0.6-1.1,0.6-1.9c0-1.6-0.7-2.5-2.2-2.8c-0.4-0.1-0.8-0.1-1.2-0.1l-1.2,0l-3.3,0l0,11.5l2,0l0-5.2
			l1.4,0c0.4,0,0.7,0,1,0.1c0.7,0.2,1.1,0.7,1.2,1.5l0.1,1.1l0.1,1c0,0.3,0.1,0.6,0.1,0.8l0.2,0.7l2,0c-0.2-0.4-0.2-0.7-0.3-0.9
			C267.5,151.9,267.5,151.5,267.4,151z M263.2,146.6l-1.4,0l0-3.7l1.5,0c0.9,0,1.5,0.1,1.8,0.3c0.4,0.2,0.7,0.7,0.7,1.3
			c0,0.6-0.1,1-0.2,1.3c-0.2,0.4-0.6,0.6-1.2,0.7C264,146.6,263.7,146.6,263.2,146.6z"/>
		<path class="st2" d="M275.1,149.8l-0.1,0.7c-0.1,1-0.7,1.5-1.8,1.5c-0.8,0-1.4-0.3-1.7-0.7c-0.1-0.2-0.2-0.8-0.2-1.6l0-4.5l0-0.9
			c0-0.2,0.1-0.5,0.3-0.7c0.3-0.5,0.9-0.7,1.8-0.7c1.1,0,1.6,0.5,1.6,1.4l0,0.5l0,0.3l2,0l0-0.4c0-0.3,0-0.6,0-0.9
			c-0.2-1.4-1.4-2.1-3.6-2.1c-1.6,0-2.7,0.4-3.4,1.2c-0.3,0.3-0.5,0.8-0.5,1.3c-0.1,0.4-0.1,0.9-0.1,1.4l0,4.6
			c0,1.9,0.8,2.9,2.4,3.2c0.5,0.1,1,0.1,1.5,0.1c0.6,0,1.2-0.1,1.7-0.2c0.4-0.1,0.8-0.3,1.1-0.6c0.5-0.5,0.8-1.1,0.9-2l0-0.7l0-0.4
			l-2,0L275.1,149.8z"/>
		<polygon class="st2" points="280.7,147.8 284.9,147.9 284.9,146.6 280.7,146.6 280.7,142.9 285.2,142.9 285.2,141.6 278.8,141.6 
			278.7,153.1 285.3,153.1 285.3,151.8 280.7,151.8 		"/>
		<path class="st2" d="M296.5,141.8c-0.7-0.2-1.3-0.3-2.1-0.3c-0.7,0-1.4,0.1-2.1,0.3c-0.9,0.3-1.5,0.8-1.7,1.5
			c-0.2,0.4-0.3,1.1-0.3,2.1l0,3.9c0,1.5,0.2,2.5,0.7,3c0.6,0.7,1.7,1.1,3.5,1.1c2.4,0,3.7-0.8,3.9-2.3c0.1-0.5,0.1-1.1,0.1-1.8
			l0-3.9c0-0.9-0.1-1.6-0.3-2.1C297.9,142.6,297.4,142.1,296.5,141.8z M296.5,149.2c0,0.5,0,0.9-0.1,1.3c-0.1,0.6-0.4,1.1-1,1.3
			c-0.3,0.1-0.7,0.2-1,0.2c-0.4,0-0.8-0.1-1.1-0.3c-0.4-0.2-0.6-0.4-0.7-0.7c-0.1-0.3-0.2-0.9-0.2-1.9l0-3.9c0-0.4,0-0.8,0.1-1.1
			c0.1-0.7,0.4-1.1,1.1-1.3c0.3-0.1,0.6-0.2,1-0.2c0.9,0,1.5,0.3,1.8,0.8c0.2,0.3,0.3,0.9,0.3,1.8L296.5,149.2z"/>
		<polygon class="st2" points="300.2,153.1 302.2,153.1 302.2,147.9 306.3,147.9 306.3,146.6 302.2,146.6 302.2,142.9 306.5,142.9 
			306.5,141.6 300.2,141.6 		"/>
		<path class="st2" d="M317.8,147.6c-0.4-0.2-0.9-0.5-1.6-0.8c-0.6-0.3-1.2-0.5-1.7-0.8c-0.8-0.4-1.2-1-1.2-1.6c0-1.1,0.7-1.6,2-1.6
			c1,0,1.6,0.4,1.7,1.3l0,0.6l0,0.3l2,0l0-0.2c0-1.2-0.2-2-0.7-2.5c-0.6-0.5-1.6-0.8-3-0.8c-1.1,0-2,0.2-2.7,0.5
			c-0.9,0.5-1.3,1.3-1.3,2.4c0,1,0.4,1.8,1.2,2.4c0.4,0.3,0.9,0.5,1.4,0.8l1.4,0.6c0.5,0.2,0.9,0.4,1.2,0.7c0.5,0.3,0.7,0.8,0.7,1.4
			c0,0.9-0.4,1.4-1.1,1.6c-0.3,0.1-0.7,0.2-1.1,0.2c-1.1,0-1.7-0.4-1.9-1.2c-0.1-0.3-0.1-0.6-0.1-0.9l0-0.6l-2,0l0,0.5l0,0.9
			c0.1,0.9,0.5,1.6,1.2,2c0.6,0.4,1.5,0.6,2.7,0.6c2.8,0,4.2-1.1,4.2-3.1C319.2,149,318.7,148.2,317.8,147.6z"/>
		<path class="st2" d="M326.6,149.3c0,0.4,0,0.8-0.1,1.1c-0.1,1.1-0.8,1.6-2,1.6c-1.2,0-1.9-0.6-1.9-1.7l0-1l0-7.7l-2,0l0,7.8
			c0,0.7,0,1.2,0,1.5c0,0.5,0.3,1,0.6,1.4c0.7,0.7,1.8,1,3.3,1c1.5,0,2.6-0.3,3.3-1c0.4-0.4,0.6-0.8,0.6-1.3c0-0.4,0.1-0.8,0.1-1.5
			l0-7.8l-2,0L326.6,149.3z"/>
		<path class="st2" d="M334.4,141.5c-1.6,0-2.7,0.4-3.4,1.2c-0.3,0.3-0.5,0.8-0.5,1.3c-0.1,0.4-0.1,0.9-0.1,1.4l0,4.6
			c0,1.9,0.8,2.9,2.4,3.2c0.5,0.1,1,0.1,1.5,0.1c0.6,0,1.2-0.1,1.7-0.2c0.4-0.1,0.8-0.3,1.1-0.6c0.5-0.5,0.8-1.1,0.9-2l0-0.7l0-0.4
			l-2,0l0,0.4l-0.1,0.7c-0.1,1-0.7,1.5-1.8,1.5c-0.8,0-1.4-0.3-1.7-0.7c-0.2-0.2-0.2-0.8-0.2-1.6l0-4.5l0-0.9c0-0.2,0.1-0.5,0.3-0.7
			c0.3-0.5,0.9-0.7,1.8-0.7c1.1,0,1.6,0.5,1.6,1.4l0,0.5l0,0.3l2,0l0-0.4c0-0.3,0-0.6,0-0.9C337.9,142.2,336.7,141.5,334.4,141.5z"
			/>
		<path class="st2" d="M345.6,149.9l-0.1,0.7c-0.1,1-0.7,1.5-1.8,1.5c-0.8,0-1.3-0.3-1.7-0.7c-0.1-0.2-0.2-0.8-0.2-1.6l0-4.5l0-0.9
			c0-0.2,0.1-0.5,0.3-0.7c0.3-0.5,0.9-0.7,1.8-0.7c1.1,0,1.6,0.5,1.6,1.4l0,0.5l0,0.3l2,0l0-0.4c0-0.3,0-0.6,0-0.9
			c-0.2-1.4-1.4-2.1-3.6-2.1c-1.6,0-2.7,0.4-3.4,1.2c-0.3,0.3-0.5,0.8-0.5,1.3c-0.1,0.4-0.1,0.9-0.1,1.4l0,4.6
			c0,1.9,0.8,2.9,2.4,3.2c0.5,0.1,1,0.1,1.5,0.1c0.6,0,1.2-0.1,1.7-0.2c0.4-0.1,0.8-0.3,1.1-0.6c0.5-0.5,0.8-1.1,0.9-2l0-0.7l0-0.4
			l-2,0L345.6,149.9z"/>
		<polygon class="st2" points="351.2,147.9 355.4,147.9 355.4,146.6 351.2,146.6 351.2,143 355.6,143 355.6,141.7 349.3,141.7 
			349.2,153.2 355.8,153.2 355.8,151.9 351.2,151.9 		"/>
		<path class="st2" d="M363.4,147.6c-0.4-0.2-0.9-0.5-1.6-0.8c-0.6-0.3-1.2-0.5-1.7-0.8c-0.8-0.4-1.2-1-1.2-1.6c0-1.1,0.7-1.6,2-1.6
			c1,0,1.6,0.4,1.7,1.3l0,0.6l0,0.3l2,0l0-0.2c0-1.2-0.2-2-0.7-2.5c-0.6-0.5-1.6-0.8-3-0.8c-1.1,0-2,0.2-2.7,0.5
			c-0.9,0.5-1.3,1.3-1.3,2.4c0,1,0.4,1.8,1.2,2.4c0.4,0.3,0.8,0.5,1.4,0.8l1.4,0.6c0.5,0.2,0.9,0.4,1.2,0.7c0.5,0.3,0.7,0.8,0.7,1.4
			c0,0.9-0.4,1.4-1.1,1.6c-0.3,0.1-0.7,0.2-1.1,0.2c-1.1,0-1.7-0.4-1.9-1.2c-0.1-0.3-0.1-0.6-0.1-0.9l0-0.6l-2,0l0,0.5l0,0.9
			c0.1,0.9,0.5,1.6,1.2,2c0.6,0.4,1.5,0.6,2.7,0.6c2.8,0,4.2-1.1,4.2-3.1C364.8,149.1,364.4,148.2,363.4,147.6z"/>
		<path class="st2" d="M372.5,147.6c-0.4-0.2-0.9-0.5-1.6-0.8c-0.6-0.3-1.2-0.5-1.7-0.8c-0.8-0.4-1.2-1-1.2-1.6c0-1.1,0.7-1.6,2-1.6
			c1,0,1.6,0.4,1.7,1.3l0,0.6l0,0.3l2,0l0-0.2c0-1.2-0.2-2-0.7-2.5c-0.6-0.5-1.6-0.8-3-0.8c-1.1,0-2,0.2-2.7,0.5
			c-0.9,0.5-1.3,1.3-1.3,2.4c0,1,0.4,1.8,1.2,2.4c0.4,0.3,0.8,0.5,1.4,0.8l1.4,0.6c0.5,0.2,0.9,0.4,1.2,0.7c0.5,0.3,0.7,0.8,0.7,1.4
			c0,0.9-0.4,1.4-1.1,1.6c-0.3,0.1-0.7,0.2-1.1,0.2c-1.1,0-1.7-0.4-1.9-1.2c-0.1-0.3-0.1-0.6-0.1-0.9l0-0.6l-2,0l0,0.5l0,0.9
			c0.1,0.9,0.5,1.6,1.2,2c0.6,0.4,1.5,0.6,2.7,0.6c2.8,0,4.2-1.1,4.2-3.1C373.9,149.1,373.4,148.2,372.5,147.6z"/>
	</g>
</g>
</svg>
