<?xml version="1.0" encoding="utf-8"?>
<!-- Generator: Adobe Illustrator 23.0.0, SVG Export Plug-In . SVG Version: 6.00 Build 0)  -->
<svg version="1.1" xmlns="http://www.w3.org/2000/svg" xmlns:xlink="http://www.w3.org/1999/xlink" x="0px" y="0px"
	 viewBox="0 0 400 230" style="enable-background:new 0 0 400 230;" xml:space="preserve">
<style type="text/css">
	.st0{display:none;}
	.st1{display:inline;}
	.st2{fill-rule:evenodd;clip-rule:evenodd;fill:#D71920;}
</style>
<g id="Layer_2" class="st0">
	<rect x="-12" y="-9" class="st1" width="424" height="252"/>
</g>
<g id="Layer_1">
	<path id="Logo_Type_White" class="st2" d="M356.8,117.9l9.2,15l-10.5,0l-8.7-14.1h-0.1v14.1h-9.5V96.4h14.2
		c3.3-0.2,6.6,0.8,9.2,2.7c2.4,2.1,3.7,5.2,3.5,8.4c0.1,2.4-0.7,4.8-2.1,6.8C360.8,116.2,358.9,117.5,356.8,117.9z M353.6,105.8
		c-0.4-0.6-0.9-1.1-1.5-1.4c-0.7-0.3-1.4-0.6-2.1-0.7c-0.8-0.1-1.6-0.2-2.4-0.2h-0.9v9.1h0.9c0.8,0,1.6-0.1,2.4-0.2
		c0.7-0.1,1.4-0.3,2.1-0.7c0.6-0.3,1.1-0.8,1.5-1.4C354.3,109,354.3,107.3,353.6,105.8L353.6,105.8z M310.5,96.4h20.8v8.1H320v5.9
		h11.2v8.3H320v5.9h11.2v8.3h-20.8V96.4z M173.1,104.5h-11.2v5.9h11.2v8.3h-11.2v5.9h11.2v8.3h-20.8V96.4h20.8V104.5z M137.8,132.9
		l-8.7-14.1H129v14.1h-9.5V96.4h14.2c3.3-0.2,6.6,0.8,9.2,2.7c2.4,2.1,3.7,5.2,3.5,8.4c0.1,2.4-0.7,4.8-2.1,6.8
		c-1.4,1.9-3.5,3.2-5.9,3.5l10,15L137.8,132.9z M136,105.8c-0.4-0.6-0.9-1.1-1.5-1.4c-0.7-0.3-1.4-0.6-2.1-0.7
		c-0.8-0.1-1.6-0.2-2.4-0.2H129v9.1h0.9c0.8,0,1.6-0.1,2.4-0.2c0.7-0.1,1.4-0.3,2.1-0.7c0.6-0.3,1.1-0.8,1.5-1.4
		C136.7,109,136.7,107.3,136,105.8L136,105.8z M198,97.8c2.1,0.9,3.9,2.2,5.5,3.9c1.6,1.7,2.8,3.7,3.7,5.9c1.8,4.6,1.8,9.6,0,14.2
		c-0.9,2.2-2.1,4.1-3.7,5.8c-1.6,1.6-3.4,3-5.5,3.9c-2.1,0.9-4.3,1.4-6.6,1.4h-12.4V96.4h12.4C193.7,96.4,195.9,96.9,198,97.8
		L198,97.8z M187.7,104.5v20.4h2c1.3,0,2.5-0.2,3.8-0.6c2.4-0.8,4.3-2.7,5.2-5.1c0.5-1.4,0.8-3,0.8-4.5c0.2-2.8-0.8-5.5-2.6-7.5
		c-1.8-1.8-4.4-2.8-7-2.7L187.7,104.5z M248.1,104.5h-7.9v28.4h-9.5v-28.4h-7.9v-8h25.2V104.5z M263.4,132.9h-9.5V96.3h9.5V132.9z
		 M274.3,101.5c1.7-1.6,3.6-2.9,5.8-3.7c2.4-0.9,4.9-1.3,7.4-1.3c3.2-0.1,6.4,0.8,9.2,2.4c2.7,1.7,4.8,4.2,6.1,7.2l-8.3,3.5
		c-0.5-1.6-1.5-3-2.8-4c-1.3-1-2.9-1.5-4.5-1.5c-1.3,0-2.6,0.3-3.7,0.9c-1.1,0.6-2.1,1.4-2.8,2.5c-0.8,1.1-1.3,2.2-1.7,3.5
		c-0.8,2.6-0.8,5.3,0,7.8c0.4,1.2,1,2.4,1.7,3.5c0.7,1,1.7,1.8,2.8,2.4c1.2,0.6,2.5,0.9,3.8,0.9c1.8,0.1,3.5-0.5,4.9-1.5
		c1.3-1.1,2.1-2.7,2.2-4.4h-7.2v-7h17.5c0,2.5-0.3,5-0.7,7.5c-0.5,2.2-1.4,4.2-2.7,6c-1.5,2.2-3.6,3.9-6,5.1
		c-2.5,1.1-5.2,1.7-7.9,1.7c-2.5,0-4.9-0.4-7.3-1.3c-2.2-0.8-4.1-2.1-5.7-3.7c-1.6-1.6-2.9-3.6-3.7-5.7c-0.9-2.3-1.3-4.8-1.3-7.3
		c0-2.6,0.4-5.1,1.3-7.5C271.3,105.1,272.6,103.1,274.3,101.5L274.3,101.5z"/>
	<path id="Logo_Symbol_Red_on_Black" class="st2" d="M80.1,104.4c0,1,0,2.1-1.5,2.6c-0.9,0.3-2-1-2.1-1.8c0.5-0.6,1.1-1.1,1.8-1.3
		C79.7,103.3,80.1,103.2,80.1,104.4z M53.4,107c-1.6-0.5-1.5-1.6-1.5-2.6c0-1.2,0.4-1.1,1.8-0.6c0.7,0.3,1.3,0.7,1.8,1.3
		C55.5,106.1,54.4,107.3,53.4,107L53.4,107z M88.6,136.1c0.9-0.5,1.8-1.1,2.5-1.8c3.6-3.9,4.3-8.3,4.8-13.5c0.1-1.3,0.1-2.7,0.2-4.1
		c0-0.2,0-1.2,0.1-1.2c0.3,0.3,0.5,0.7,0.7,1.1c0.4,1.2,0.7,2.5,0.8,3.7c0.4,2.5,0.5,5.1,0.2,7.6c-0.1,0.9-0.4,1.7-0.9,2.5
		c-2.3,3.8-4.8,7.3-7.2,11c-0.2,0.3-0.3-0.3-0.5-0.4l-0.2-0.2c-0.5-0.3-0.8-0.3-1-0.1c-0.1,0.2-0.2,0.3-0.2,0.5
		c-0.6,1.2-1.6,3.2-2.3,4.5c-0.1,0.2-0.4,0.3-0.6,0.2c-0.1-0.1-0.2-0.2-0.2-0.4c0-1.4,0-2.8,0-4.3c0-0.9,0-2-1.2-2
		c-1.2,0-1.2,1-1.2,2c0,0.8,0,1.7,0,2.6c0,0.2-0.2,0.4-0.4,0.4c-0.1,0-0.2,0-0.2-0.1c-1-0.8-2.1-1.4-3.3-1.8
		c-1.9-0.8-4.1-0.5-5.8,0.6l0.3-0.2c1.4-1.3,3.4-1.8,5.4-1.4c0.5,0.1,1.1,0.2,1.6,0.1c0.2,0,0.4-0.2,0.4-0.4c0,0,0-0.1,0-0.1
		c-0.7-2-3.1-9.2,1.7-11.7c0.1-0.1,0.2-0.2,0.2-0.3c0.2-1.3,2.6-7.1-4-10.8c-1,0.9-2.3,3.1-3.9,4.4c2.9,0.6,4.4-1.1,5.8-2.3
		c-0.6,3.3-3.2,3.6-5.2,4.8c1.8-0.8,3.6,0.3,5.7-0.8c-1.5,2.9-4.6,1.5-6.4,3c1.8,1.2,3.4,0.5,5.1,0.3c0.5-0.1,0.9,0,1.4,0.1
		c-0.4,0.6-0.8,1.1-1.3,1.5c-0.6,0.5-1.4,0.8-2.1,1.1c-0.8,0.2-1.6,0.3-2.4,0.1c-2.3-0.7-4.6-1.6-6.9-2.5c-0.4-0.2-0.8-0.6-0.9-1.1
		c-0.1-0.7,0-1.5,0-2.3c-0.2-1,0.5-1.9,1.4-2.1c2.2-0.6,4-1.9,5.4-3.7c0.4-0.6,0.8-1.4,0.9-2.1c0,0,0,0,0,0c0-0.7-0.1-1.4-0.4-2.1
		c-0.1-0.5-0.1-1.1,0-1.6l0-0.2c0,0,0,0,0,0h0l0.5-2c0.2-0.6,0.5-1.2,1-1.5l0.1-0.1c0.1,0,0.1-0.1,0.2-0.1c0.9-0.5,1.8-0.8,2.7-1.1
		c3.3-1.3,5.9-4.1,7-7.5c0.4-1.1,0.5-2.4,0.3-3.5c-0.3,0.6-0.8,1.9-1.1,2.6c-0.4,1-1.4,1.7-2.5,1.6c-3,0-6,0.5-7.7,3.7
		c-0.7,1.7-2,3.1-3.6,3.9c0-0.9,0.1-1.8,0.4-2.7c-1.4-0.6-0.9-1.4-0.1-2.2c1-1.1,2.1-2.2,3.2-3.4c-0.9-0.2-1.8-0.7-2.4-1.4h6
		c0-0.1,0-0.1,0-0.2c-1.8-0.3-3.6-1-5.2-1.9c2.8-1.7,8.5-0.9,9.5-1.2c0-0.2-0.8-0.4-1.6-0.7c-1.9-0.5-2.6-0.6-4.5-1.2
		c-1.9-0.5-3.7-1.3-5.4-2.2h7.8c-2.7-1.5-5.6-2.5-8.6-2.9c-1.7-0.1-3-0.1-4-0.1l0-0.5v0.5c-1.1,0-2.3,0-4,0.1c-3,0.4-6,1.4-8.6,2.9
		h7.8c-1.7,0.9-3.5,1.7-5.4,2.2c-1.9,0.5-2.6,0.7-4.5,1.2c-0.8,0.3-1.6,0.4-1.6,0.7c1,0.3,6.7-0.5,9.5,1.2c-1.6,0.9-3.4,1.5-5.2,1.9
		c0,0.1,0,0.1,0,0.2h6c-0.7,0.7-1.5,1.1-2.4,1.4c1.1,1.2,2.1,2.3,3.2,3.4c0.8,0.8,1.3,1.6-0.1,2.2c0.3,0.9,0.4,1.8,0.4,2.7
		c-1.6-0.8-2.9-2.2-3.6-3.9c-1.7-3.2-4.6-3.7-7.7-3.7c-1.1,0.1-2.1-0.5-2.5-1.6c-0.3-0.7-0.8-2-1.1-2.6c-0.2,1.2-0.1,2.4,0.3,3.5
		c1.1,3.4,3.6,6.2,7,7.5c0.9,0.3,1.9,0.7,2.7,1.1c0.1,0,0.1,0.1,0.2,0.1c0,0,0.1,0.1,0.1,0.1c0.5,0.4,0.9,0.9,1,1.5l0.5,2h0
		c0,0,0,0,0,0l0,0.2c0.2,0.5,0.2,1.1,0,1.6c-0.2,0.7-0.4,1.4-0.4,2.1c0,0,0,0,0,0c0.2,0.8,0.5,1.5,0.9,2.1c1.3,1.8,3.2,3.1,5.4,3.7
		c1,0.2,1.6,1.1,1.4,2.1c-0.1,0.8,0.1,1.6,0,2.3c-0.1,0.5-0.5,0.9-0.9,1.1c-2.3,0.9-4.6,1.8-6.9,2.5c-0.8,0.2-1.6,0.2-2.4-0.1
		c-0.8-0.2-1.5-0.6-2.1-1.1c-0.5-0.5-0.9-1-1.3-1.5c0.5-0.1,0.9-0.1,1.4-0.1c1.6,0.2,3.3,0.8,5.1-0.3c-1.9-1.6-4.9-0.1-6.4-3
		c2.1,1.1,3.9,0.1,5.7,0.8c-2.1-1.2-4.7-1.5-5.2-4.8c1.4,1.2,2.9,2.9,5.8,2.3c-1.6-1.4-2.9-3.5-3.9-4.4c-6.6,3.7-4.2,9.5-4,10.8
		c0,0.1,0.1,0.3,0.2,0.3c4.8,2.5,2.4,9.7,1.7,11.7c0,0.1,0,0.3,0,0.4c0.1,0.1,0.2,0.2,0.3,0.2c0.5,0,1.1,0,1.6-0.1
		c1.9-0.4,3.9,0.1,5.4,1.4l0.3,0.2c-1.7-1.2-3.9-1.4-5.8-0.6c-1.2,0.4-2.3,1-3.3,1.8c-0.2,0.1-0.5,0.1-0.6-0.1
		c0-0.1-0.1-0.1-0.1-0.2c0-1,0-1.8,0-2.6c0-0.9-0.1-2-1.2-2c-1.2,0-1.2,1.1-1.2,2c0,1.4,0,2.8,0,4.3c0,0.2-0.2,0.4-0.4,0.4
		c-0.1,0-0.3-0.1-0.4-0.2c-0.7-1.3-1.7-3.3-2.3-4.5c-0.1-0.2-0.2-0.3-0.2-0.5c-0.3-0.2-0.5-0.1-1,0.1l-0.2,0.2
		c-0.1,0.1-0.3,0.7-0.5,0.4c-2.4-3.7-4.9-7.2-7.2-11c-0.4-0.8-0.7-1.6-0.9-2.5c-0.3-2.5-0.2-5.1,0.2-7.6c0.1-1.3,0.4-2.5,0.8-3.7
		c0.2-0.4,0.4-0.8,0.7-1.1c0.1,0,0.1,1,0.1,1.2c0.1,1.4,0,2.7,0.2,4.1c0.4,5.2,1.1,9.6,4.8,13.5c0.7,0.8,1.6,1.4,2.5,1.8
		c0.2,0.1,0.5,0,0.5-0.2c0-0.1,0-0.2,0-0.3c-1.1-2.2-2.3-4.5-3.2-6.8c-0.9-2.4-1.5-4.9-2.2-7.3c-0.1-0.2,0.1-0.4,0.3-0.5
		c0.1,0,0.2,0,0.2,0c0.5,0.2,1.2,0.5,1.8,0.7c0.2,0.1,0.5,0,0.5-0.2c0-0.1,0-0.2,0-0.3c-0.7-2.4-2.9-9.3-2.9-9.3
		c0.1,0.2,1.4,2.1,1.5,2.2c1.1,1.7,2,3.5,2.8,5.3c0.4,1,0.7,1.7,0.8,2c0.1,0.2,0.1,0.3,0,0.5c-1.9,1.6-0.4,4.6,0.4,5.5
		c1.1,1.3,1.9,2.8,2.3,4.5c0.1,0.3,0.3,0.8,0.4,1.3c0.1,0.2,0.3,0.3,0.5,0.2c0.2-0.1,0.3-0.2,0.3-0.4c-0.1-2.1-0.5-5-1.2-5.7
		c-1.1-1-0.9-4.5,0.4-5.1c1.1-0.6,1.4-1.2,0.8-2.2c-0.1-0.2-0.1-0.5,0.1-0.6c0,0,0,0,0,0l5.2-3c0.2-0.1,0.3-0.4,0.2-0.6
		c-0.1-0.1-0.2-0.2-0.3-0.2c-1.8-0.2-3.6,0.4-5,1.5c-1.1,0.6-2.5,0.3-3.1-0.8c-0.1-0.1-0.2-0.3-0.2-0.5c-0.1-0.3-0.2-0.5-0.3-0.8
		c-0.1-0.2,0.1-0.4,0.4-0.5c2.5-0.6,2.9-0.8,3.1-1.5c0-0.2-0.1-0.4-0.3-0.5c0,0,0,0-0.1,0c-0.9,0.1-1.8,0-2.6-0.3
		c-0.5-0.5-0.8-1.1-0.9-1.8c-0.1-0.2,0.1-0.4,0.3-0.5c0.1,0,0.2,0,0.3,0c0.9,0.4,1.1,0.4,1.6,0c0.2-0.1,0.2-0.4,0.1-0.6c0,0,0,0,0,0
		c-0.1-0.1-0.2-0.3-0.4-0.4c-1.9-1.5-4.7-9.5-4.6-11.9c-0.7,0.6-1.3,1.5-1.6,2.4c-2-0.8-3.5-1.1-3.2-3.8l2.2,1.1
		c0,0,0.1-0.8-1.1-1.8c-2.5-2.1-2.9-4.9-3-7.9c-0.1-1.5,1-2.8,2.4-2.9c0.6,0,1.1,0.1,1.6,0.4c4.9,2.3,11.6,4.6,17.1,3.9l0.2,0l0,0
		l0,0c3.5-0.7,7-1.1,10.5-1.1h0c3.5,0,7,0.4,10.5,1.1l0,0l0,0l0.2,0c5.5,0.7,12.3-1.6,17.1-3.9c1.3-0.8,2.9-0.4,3.7,0.9
		c0.3,0.5,0.4,1.1,0.4,1.6c-0.1,3-0.5,5.8-3,7.9c-1.2,1-1.1,1.8-1.1,1.8l2.2-1.1c0.3,2.8-1.2,3-3.2,3.8c-0.3-0.9-0.9-1.8-1.6-2.4
		c0.1,2.4-2.8,10.4-4.6,11.9c-0.1,0.1-0.3,0.2-0.4,0.4c-0.1,0.1-0.1,0.2-0.1,0.3c0,0.1,0.1,0.2,0.2,0.3c0.5,0.4,0.7,0.4,1.6,0
		c0.2-0.1,0.5,0,0.5,0.2c0,0.1,0,0.2,0,0.3c-0.1,0.7-0.4,1.3-0.9,1.8c-0.8,0.3-1.7,0.4-2.6,0.3c-0.2,0-0.4,0.2-0.4,0.4
		c0,0,0,0,0,0.1c0.1,0.8,0.5,0.9,3.1,1.5c0.2,0.1,0.4,0.2,0.4,0.5c-0.1,0.3-0.2,0.5-0.3,0.8c-0.4,1.2-1.7,1.9-2.9,1.5
		c-0.2-0.1-0.3-0.1-0.5-0.2c-1.4-1.1-3.2-1.6-5-1.5c-0.2,0-0.4,0.2-0.3,0.5c0,0.1,0.1,0.2,0.2,0.3l5.2,3c0.2,0.1,0.3,0.4,0.1,0.6
		c0,0,0,0,0,0c-0.6,1-0.3,1.6,0.8,2.2c1.2,0.6,1.4,4.1,0.4,5.1c-0.7,0.7-1.1,3.5-1.2,5.7c0,0.2,0.2,0.4,0.4,0.4
		c0.2,0,0.3-0.1,0.4-0.3c0.2-0.5,0.3-1,0.4-1.3c0.4-1.6,1.2-3.2,2.3-4.5c0.8-0.9,2.3-3.9,0.4-5.5c-0.1-0.1-0.1-0.3,0-0.5
		c0.2-0.4,0.5-1.1,0.8-2c0.8-1.8,1.7-3.6,2.8-5.3c0.1-0.2,1.4-2.1,1.5-2.2c0,0-2.2,6.9-2.9,9.3c-0.1,0.2,0.1,0.4,0.3,0.5
		c0.1,0,0.2,0,0.3,0c0.5-0.2,1.2-0.5,1.8-0.7c0.2-0.1,0.4,0,0.5,0.3c0,0.1,0,0.2,0,0.2c-0.7,2.5-1.3,4.9-2.2,7.3
		c-0.9,2.3-2.1,4.5-3.2,6.8c-0.1,0.2,0,0.5,0.2,0.6C88.3,136.1,88.5,136.1,88.6,136.1L88.6,136.1z M54.5,117.7l-0.2,0.1
		C54.4,117.8,54.5,117.8,54.5,117.7L54.5,117.7z M45.2,87.4c0.4,0.1,0.8,0.2,1.2,0.3C46,87.6,45.6,87.5,45.2,87.4L45.2,87.4z
		 M44.7,88c-5.7-0.5-4.7,3.8-3.6,6.3l0.9,1.5c0.1,0.1,0.1,0.1,0.1,0.2c0,0,0,0,0,0l0,0c1.4,3.4,2.6,10.6,9.5,13.3
		c-0.3-0.2-0.5-0.3-0.8-0.5c-2-1.7-3.6-3.8-4.8-6.1c-3.1-6.2-2.3-10.1-2.6-11.6c0.6,0.2,2.7,0.7,3.1,0.8c0-0.1-3.7-1.7-4.8-2.3
		c0.5-0.3,1-0.5,1.6-0.6c2.4-0.3,3.3,0.5,4.9,0.7c1.1,0.1,2.1,0,3.1-0.2L44.7,88z M77.5,117.7c0.1,0,0.1,0.1,0.2,0.1L77.5,117.7z
		 M85.6,87.7c0.4-0.1,0.8-0.2,1.2-0.3C86.4,87.5,86,87.6,85.6,87.7L85.6,87.7z M89.8,96.1L89.8,96.1C89.8,96.1,89.9,96.1,89.8,96.1
		c0.1-0.1,0.1-0.2,0.2-0.2l0.9-1.5c1.1-2.5,2.2-6.8-3.6-6.3l-6.8,1.7c1,0.3,2.1,0.3,3.1,0.2c1.6-0.2,2.5-1,4.9-0.7
		c0.6,0.1,1.1,0.3,1.6,0.6c-1.1,0.6-4.8,2.2-4.8,2.3c0.4-0.1,2.5-0.6,3.1-0.8c-0.4,1.6,0.4,5.4-2.6,11.6c-1.2,2.3-2.8,4.4-4.8,6.1
		c-0.3,0.2-0.5,0.4-0.8,0.5C87.2,106.7,88.4,99.5,89.8,96.1L89.8,96.1z M66,118.1c-0.8,0-1.7,0-2.9,0c-1,0-2.1-0.2-3-0.6
		c-0.5-0.4-0.8-1-0.7-1.7c0.1-0.9,1.2-1.5,1.2-1.5c0,2,1.7,2.6,5.4,2.6h0c3.7,0,5.4-0.6,5.4-2.6c0,0,1.1,0.6,1.2,1.5
		c0.1,0.6-0.1,1.3-0.7,1.7c-1,0.4-2,0.6-3,0.6C67.7,118.1,66.8,118.1,66,118.1L66,118.1L66,118.1z M66,139.9
		c0.1,2.7-4.5,2.9-8.4,0.6c-0.2-0.8,0.2-2.3-0.2-2.6c-0.7-0.5-1.7,0.1-2.4,0.6s-1.1,1.3-1.8,1.8c0.3-4.1,4.4-7.9,10.8-8.2
		c0.7,0,1.4-0.1,2.1-0.1s1.4,0,2.1,0.1c6.3,0.4,10.5,4.1,10.8,8.2c-0.7-0.5-1.1-1.3-1.8-1.8c-0.7-0.4-1.7-1-2.4-0.6
		c-0.5,0.3,0,1.7-0.2,2.6C70.5,142.8,65.9,142.5,66,139.9z"/>
</g>
</svg>
