<?xml version="1.0" encoding="utf-8"?><svg xmlns="http://www.w3.org/2000/svg" xmlns:xlink="http://www.w3.org/1999/xlink"><symbol viewBox="0 0 32 32" id="blackjack" xmlns="http://www.w3.org/2000/svg"><path d="m24.428 18.884-.856-.27 3.47-10.727c.135-.496.09-1.037-.135-1.487s-.631-.811-1.127-.946L12.845 1.262c-.496-.135-1.037-.135-1.487.135a1.812 1.812 0 0 0-.946 1.127l-.586 1.803-.856-.27.586-1.803c.225-.721.721-1.307 1.397-1.668s1.442-.406 2.163-.18l12.935 4.146c.721.225 1.307.721 1.668 1.397s.406 1.442.18 2.163l-3.47 10.772z"/><path d="M19.651 31.82H6.671a3.135 3.135 0 0 1-3.155-3.155V8.068a3.135 3.135 0 0 1 3.155-3.155h12.98a3.135 3.135 0 0 1 3.155 3.155V28.71c0 1.713-1.442 3.11-3.155 3.11zM6.67 5.814a2.232 2.232 0 0 0-2.254 2.254V28.71c0 1.262.992 2.254 2.254 2.254h12.98a2.232 2.232 0 0 0 2.254-2.254V8.068a2.232 2.232 0 0 0-2.254-2.254H6.67z"/><path d="M6.806 8.203h.901v2.524h-.901V8.203zm11.763 17.848h.901v2.524h-.901v-2.524zm-5.408-1.307a.412.412 0 0 1-.316-.135l-4.777-4.777c-.316-.316-.586-.676-.721-1.082-.18-.406-.27-.856-.27-1.307s.09-.901.225-1.307c.18-.406.406-.766.721-1.082s.676-.541 1.082-.721c.406-.18.856-.27 1.307-.225a3.4 3.4 0 0 1 1.307.27c.406.18.766.406 1.082.766l.361.361.406-.406a3.352 3.352 0 0 1 2.344-.992c.901 0 1.758.316 2.389.946.631.631.946 1.487.946 2.389s-.361 1.713-.992 2.344l-4.777 4.823a.486.486 0 0 1-.316.135zm-2.795-9.736c-.316 0-.631.045-.901.18-.316.135-.586.316-.811.541s-.406.496-.541.811c-.135.316-.18.631-.18.946s.09.631.18.946c.135.316.316.541.541.766l4.462 4.462 4.462-4.462a2.463 2.463 0 0 0 .721-1.713c0-.676-.225-1.262-.676-1.758-.451-.451-1.082-.676-1.713-.676h-.045c-.676 0-1.262.27-1.713.721l-.721.721a.436.436 0 0 1-.631 0l-.676-.721a2.56 2.56 0 0 0-.811-.541 2.096 2.096 0 0 0-.946-.225z"/></symbol><symbol viewBox="0 0 512 512" xml:space="preserve" id="bonuses" xmlns="http://www.w3.org/2000/svg"><path d="M256 0C114.837 0 0 114.843 0 256s114.837 256 256 256 256-114.843 256-256S397.163 0 256 0zm0 478.609c-122.75 0-222.609-99.865-222.609-222.609S133.25 33.391 256 33.391 478.609 133.256 478.609 256 378.75 478.609 256 478.609z"/><path d="M256 66.783c-104.337 0-189.217 84.88-189.217 189.217S151.663 445.217 256 445.217 445.217 360.337 445.217 256 360.337 66.783 256 66.783zm7.805 174.461c23.794 12.576 53.413 28.233 53.413 59.277 0 27.961-18.869 51.551-44.522 58.843v7.939c0 9.223-7.479 16.696-16.696 16.696-9.217 0-16.696-7.473-16.696-16.696v-7.939c-25.652-7.293-44.522-30.883-44.522-58.843 0-9.223 7.479-16.696 16.696-16.696s16.696 7.473 16.696 16.696c0 15.342 12.478 27.826 27.826 27.826s27.826-12.484 27.826-27.826c0-10.923-18.109-20.5-35.631-29.755-23.794-12.582-53.413-28.239-53.413-59.288 0-27.961 18.869-51.551 44.522-58.843v-7.939c0-9.223 7.479-16.696 16.696-16.696 9.217 0 16.696 7.473 16.696 16.696v7.939c25.652 7.293 44.522 30.883 44.522 58.843 0 9.223-7.479 16.696-16.696 16.696s-16.696-7.473-16.696-16.696c0-15.342-12.478-27.826-27.826-27.826s-27.826 12.484-27.826 27.826c0 10.929 18.109 20.506 35.631 29.766z"/></symbol><symbol id="casino" viewBox="0 0 32 32" xml:space="preserve" xmlns="http://www.w3.org/2000/svg"><style>.st0{fill:none;stroke:#000;stroke-width:2;stroke-linecap:round;stroke-linejoin:round;stroke-miterlimit:10}</style><path d="M26.6 5.4C23.9 2.7 20.1 1 16 1S8.1 2.7 5.4 5.4C2.7 8.1 1 11.9 1 16s1.7 7.9 4.4 10.6C8.1 29.3 11.9 31 16 31s7.9-1.7 10.6-4.4C29.3 23.9 31 20.1 31 16s-1.7-7.9-4.4-10.6zm-.7 2.2c1.7 2 2.9 4.6 3.1 7.4h-2c-.2-2.3-1.1-4.4-2.5-6l1.4-1.4zM15 3.1v2c-2.3.2-4.4 1.1-6 2.5L7.6 6.1c2-1.7 4.6-2.8 7.4-3zM6.1 24.4c-1.7-2-2.9-4.6-3.1-7.4h2c.2 2.3 1.1 4.4 2.5 6l-1.4 1.4zm-1-9.4h-2c.2-2.8 1.3-5.4 3.1-7.4L7.6 9c-1.4 1.6-2.3 3.7-2.5 6zM15 28.9c-2.8-.2-5.4-1.3-7.4-3.1L9 24.4c1.7 1.4 3.8 2.3 6 2.5v2zm1-6.9c-.3 0-.6-.1-.8-.4l-4-5c-.3-.4-.3-.9 0-1.2l4-5c.4-.5 1.2-.5 1.6 0l4 5c.3.4.3.9 0 1.2l-4 5c-.2.3-.5.4-.8.4zm1 6.9v-2c2.3-.2 4.4-1.1 6-2.5l1.4 1.4c-2 1.8-4.6 2.9-7.4 3.1zm6-21.3c-1.7-1.4-3.8-2.3-6-2.5v-2c2.8.2 5.4 1.3 7.4 3.1L23 7.6zm2.9 16.8L24.4 23c1.4-1.7 2.3-3.8 2.5-6h2c-.2 2.8-1.3 5.4-3 7.4z"/></symbol><symbol id="casino-2" viewBox="0 0 32 32" xml:space="preserve" xmlns="http://www.w3.org/2000/svg"><style>.st0{fill:none;stroke:#000;stroke-width:2;stroke-linecap:round;stroke-linejoin:round;stroke-miterlimit:10}</style><path d="M29.9 10.3s0-.1 0 0c-.8-1.9-1.9-3.5-3.2-4.9-1.4-1.4-3-2.5-4.8-3.2C20 1.4 18 1 16 1s-4 .4-5.7 1.1C8.4 2.9 6.8 4 5.4 5.4c-1.4 1.4-2.5 3-3.2 4.8C1.4 12.1 1 14 1 16s.4 3.9 1.1 5.7c.8 1.8 1.9 3.4 3.2 4.8 1.4 1.4 3 2.5 4.8 3.2C12 30.6 14 31 16 31c2 0 4-.4 5.7-1.1 1.8-.8 3.4-1.9 4.8-3.2 1.4-1.4 2.5-3 3.2-4.8.9-2 1.3-3.9 1.3-5.9s-.4-3.9-1.1-5.7zm-2.3-.2-2.8 1.1c-.3-.6-.7-1.1-1.1-1.6l2.1-2.1c.7.8 1.3 1.7 1.8 2.6zm-5.7-5.7c.9.5 1.8 1 2.6 1.7l-2.1 2.1c-.5-.4-1-.8-1.6-1.1l1.1-2.7zM17 3.1c1.1.1 2.1.3 3 .6l-1.2 2.8c-.6-.2-1.2-.3-1.9-.4v-3zm-2 0v3c-.6.1-1.3.2-1.9.4L12 3.6c.9-.3 1.9-.5 3-.5zm-4.9 1.3 1.1 2.8c-.6.3-1.1.7-1.6 1.1l-2-2.2c.7-.6 1.6-1.2 2.5-1.7zm-4 3.2 2.1 2.1c-.4.5-.8 1-1.1 1.6l-2.8-1.1c.6-1 1.2-1.9 1.8-2.6zM3.6 12l2.8 1.2c-.2.6-.3 1.2-.4 1.9H3c.1-1.2.3-2.2.6-3.1zm-.5 5h3c.1.6.2 1.3.4 1.9L3.6 20c-.3-.9-.5-1.9-.5-3zm1.3 4.9 2.8-1.1c.3.6.7 1.1 1.1 1.6l-2.1 2.1c-.7-.8-1.3-1.7-1.8-2.6zm5.7 5.7c-.9-.5-1.8-1-2.6-1.7l2.1-2.1c.5.4 1 .8 1.6 1.1l-1.1 2.7zm4.9 1.3c-1.1-.1-2.1-.3-3-.6l1.2-2.8c.6.2 1.2.3 1.9.4v3zM14 21c0-.7.4-1.4 1-1.7v-1.6c-.3-.2-.5-.4-.7-.7h-1.6c-.3.6-1 1-1.7 1-1.1 0-2-.9-2-2s.9-2 2-2c.7 0 1.4.4 1.7 1h1.6c.2-.3.4-.5.7-.7v-1.6c-.6-.3-1-1-1-1.7 0-1.1.9-2 2-2s2 .9 2 2c0 .7-.4 1.4-1 1.7v1.6c.3.2.5.4.7.7h1.6c.3-.6 1-1 1.7-1 1.1 0 2 .9 2 2s-.9 2-2 2c-.7 0-1.4-.4-1.7-1h-1.6c-.2.3-.4.5-.7.7v1.6c.6.3 1 1 1 1.7 0 1.1-.9 2-2 2s-2-.9-2-2zm3 7.9v-3c.6-.1 1.3-.2 1.9-.4l1.2 2.8c-1 .4-2 .6-3.1.6zm4.9-1.3-1.1-2.8c.6-.3 1.1-.7 1.6-1.1l2.1 2.1c-.8.7-1.7 1.3-2.6 1.8zm4-3.2-2.1-2.1c.4-.5.8-1 1.1-1.6l2.8 1.1c-.6 1-1.2 1.9-1.8 2.6zm2.5-4.4-2.8-1.2c.2-.6.3-1.2.4-1.9h3c-.1 1.2-.3 2.2-.6 3.1zm-2.5-5c-.1-.6-.2-1.3-.4-1.9l2.8-1.2c.3 1 .5 2 .6 3h-3z"/></symbol><symbol viewBox="0 0 16 12" id="check" xmlns="http://www.w3.org/2000/svg"><path d="m1.99 5.293 4.95 4.95-1.415 1.414-4.95-4.95L1.99 5.293Z"/><path d="M5.525 8.829 14.01.343l1.415 1.414-8.486 8.486-1.414-1.414Z"/></symbol><symbol viewBox="0 0 32 32" id="craps" xmlns="http://www.w3.org/2000/svg"><path d="M12.124 25.825c-.316 0-.676-.045-.992-.135l-8.293-2.479c-.946-.27-1.713-.946-2.208-1.848-.451-.901-.586-1.893-.316-2.884l2.389-8.563c.27-.992.901-1.758 1.758-2.254s1.893-.631 2.794-.361l8.293 2.479c.946.27 1.713.946 2.208 1.848.451.901.586 1.893.316 2.885l-2.389 8.563c-.27.992-.901 1.803-1.758 2.254-.586.316-1.172.496-1.803.496zm-9.059-3.47 8.293 2.434c.721.225 1.442.135 2.118-.27a3.032 3.032 0 0 0 1.352-1.713l2.389-8.563c.225-.766.135-1.532-.225-2.208s-.946-1.172-1.668-1.397L7.076 8.159c-.721-.225-1.442-.135-2.118.27a3.032 3.032 0 0 0-1.352 1.713l-2.389 8.563a2.888 2.888 0 0 0 .225 2.208 2.573 2.573 0 0 0 1.623 1.442zm16.676 2.253c-.541 0-1.037-.135-1.532-.361-.811-.361-1.442-1.037-1.803-1.848-.09-.225 0-.496.225-.586s.496 0 .586.225c.27.631.766 1.127 1.352 1.397s1.262.316 1.893.135l8.293-2.479c.721-.225 1.307-.721 1.668-1.397s.451-1.487.225-2.208l-2.389-8.563c-.225-.721-.676-1.352-1.352-1.713a2.87 2.87 0 0 0-2.118-.27l-8.158 2.434a.4.4 0 0 1-.541-.316.4.4 0 0 1 .316-.541l8.158-2.434c.946-.27 1.938-.135 2.839.361a3.826 3.826 0 0 1 1.758 2.254l2.389 8.563c.27.992.135 1.983-.316 2.884a3.885 3.885 0 0 1-2.208 1.848l-8.293 2.479c-.316.045-.631.135-.992.135zm-8.699-.54c-.18 0-.361-.045-.586-.09-.541-.18-.992-.541-1.262-1.037s-.316-1.082-.18-1.623c.09-.27.18-.496.361-.721s.361-.406.631-.541c.225-.135.496-.225.766-.27s.541 0 .811.09c.541.18.992.541 1.262 1.037s.316 1.082.18 1.623c-.09.27-.18.496-.361.721s-.361.406-.631.541a2.22 2.22 0 0 1-.766.27h-.225zm-.315-.947c.135.045.316.045.451.045s.316-.045.451-.135c.135-.09.27-.18.361-.316s.18-.27.225-.406c.09-.316.045-.676-.09-.946s-.406-.496-.721-.586c-.135-.045-.316-.045-.451-.045s-.316.045-.451.135c-.135.09-.27.18-.361.316s-.18.27-.225.406c-.09.316-.045.676.09.946s.406.496.721.586zm-5.95-.901c-.18 0-.361-.045-.541-.09h-.045c-.541-.18-.992-.541-1.217-1.037-.27-.496-.316-1.082-.18-1.623.09-.27.18-.496.361-.721s.361-.406.631-.541c.225-.135.496-.225.766-.27s.541 0 .811.045c.541.18.992.541 1.262 1.037s.316 1.082.18 1.623c-.09.27-.18.496-.361.721s-.361.406-.631.541a2.22 2.22 0 0 1-.766.27c-.09.045-.18.045-.27.045zm-.315-.947c.18.045.316.045.451.045s.316-.045.451-.135c.135-.09.27-.18.361-.316s.18-.27.225-.406c.09-.316.045-.676-.09-.946s-.406-.496-.721-.586c-.135-.045-.316-.045-.451-.045s-.316.045-.451.135c-.135.09-.27.18-.361.316s-.18.27-.225.406a1.36 1.36 0 0 0 .09.946c.18.27.451.496.721.586zm7.797-1.758c-.18 0-.361-.045-.586-.09-.541-.18-.992-.541-1.217-1.037-.27-.496-.316-1.082-.18-1.623.09-.27.18-.496.361-.721s.361-.406.631-.541c.225-.135.496-.225.766-.27s.541 0 .811.045c.541.18.992.541 1.262 1.037s.316 1.082.18 1.623c-.09.27-.18.496-.361.721s-.361.406-.631.541a2.22 2.22 0 0 1-.766.27c-.09.045-.18.045-.27.045zm-.315-.946c.135.045.316.045.451.045s.316-.045.451-.135c.135-.09.27-.18.361-.316s.18-.27.225-.406c.09-.316.045-.676-.09-.946s-.406-.496-.721-.586c-.135-.045-.316-.045-.451-.045s-.316.045-.451.135c-.135.09-.27.18-.361.316s-.18.27-.225.406a1.36 1.36 0 0 0 .09.946c.18.316.451.496.721.586zm-5.905-.901c-.18 0-.406-.045-.586-.09-.541-.18-.992-.541-1.217-1.037-.27-.496-.316-1.082-.18-1.623.09-.27.18-.496.361-.721s.361-.406.631-.541c.225-.135.496-.225.766-.27s.541 0 .811.045c.541.18.992.541 1.262 1.037s.315 1.082.18 1.623c-.09.27-.18.496-.361.721s-.361.406-.631.541a2.22 2.22 0 0 1-.766.27c-.09.045-.18.045-.27.045zm-.315-.947c.135.045.316.045.451.045s.316-.045.451-.135c.135-.09.27-.18.361-.316s.18-.27.225-.406c.09-.316.045-.676-.09-.946s-.406-.496-.721-.586c-.135-.045-.316-.045-.451-.045s-.316.045-.451.135c-.135.09-.27.18-.361.316s-.18.27-.225.406a1.36 1.36 0 0 0 .09.946c.18.316.451.496.721.586zm16.991.676h-.225a2.22 2.22 0 0 1-1.397-.811c-.18-.225-.27-.451-.361-.721-.135-.541-.09-1.127.18-1.623s.721-.856 1.217-1.037c.27-.09.541-.09.811-.09a2.22 2.22 0 0 1 1.397.811c.18.225.27.451.361.721.135.541.09 1.127-.18 1.623s-.721.856-1.217 1.037c-.225.045-.406.09-.586.09zm.451-.541zm-.451-2.839c-.09 0-.225 0-.316.045-.316.09-.541.316-.721.586-.135.27-.18.631-.09.946.045.135.135.316.225.406.09.135.225.225.361.316s.27.135.451.135c.135 0 .316 0 .451-.045.316-.09.541-.316.721-.586.135-.27.18-.631.09-.946a1.185 1.185 0 0 0-.225-.406c-.09-.135-.225-.225-.361-.316s-.27-.135-.451-.135h-.135zm-9.194.991c-.18 0-.361-.045-.586-.09-.541-.18-.992-.541-1.217-1.037-.27-.496-.316-1.082-.18-1.623.09-.27.18-.496.361-.721s.361-.406.631-.541c.225-.135.496-.225.766-.27s.541 0 .811.045c.541.18.992.541 1.262 1.037s.316 1.082.18 1.623c-.09.27-.18.496-.361.721s-.361.406-.631.541a2.22 2.22 0 0 1-.766.27c-.09.045-.18.045-.27.045zm-.315-.946c.135.045.316.045.451.045s.316-.045.451-.135c.135-.09.27-.18.361-.316s.18-.27.225-.406c.09-.316.045-.676-.09-.946s-.406-.496-.721-.586c-.135-.045-.316-.045-.451-.045s-.316.045-.451.135c-.135.09-.27.18-.361.316s-.18.27-.225.406a1.36 1.36 0 0 0 .09.946c.18.27.406.496.721.586zm-5.905-.901c-.18 0-.361-.045-.586-.09-.541-.18-.992-.541-1.217-1.037-.27-.496-.316-1.082-.18-1.623.09-.27.18-.496.361-.721s.361-.406.631-.541c.225-.135.496-.225.766-.27s.541 0 .811.045c.541.18.992.541 1.262 1.037s.316 1.082.18 1.623c-.09.27-.18.496-.361.721s-.361.406-.631.541a2.22 2.22 0 0 1-.766.27c-.135.045-.18.045-.27.045zm-.315-.947c.135.045.316.045.451.045s.316-.045.451-.135c.135-.09.27-.18.361-.316s.18-.27.225-.406c.09-.316.045-.676-.09-.946s-.406-.496-.721-.586c-.135-.045-.316-.045-.451-.045s-.316.045-.451.135c-.135.09-.27.18-.361.316s-.18.27-.225.406a1.36 1.36 0 0 0 .09.946c.18.27.406.496.721.586z"/></symbol><symbol viewBox="0 0 32 32" id="dice-six" xmlns="http://www.w3.org/2000/svg"><path d="M27.299 2.246H4.649a2.402 2.402 0 0 0-2.402 2.402v22.65A2.402 2.402 0 0 0 4.649 29.7h22.65a2.402 2.402 0 0 0 2.402-2.402V4.648a2.402 2.402 0 0 0-2.402-2.402zm-2.964 2.246a3.12 3.12 0 1 1 0 6.24 3.12 3.12 0 0 1 0-6.24zm-16.722 0a3.12 3.12 0 1 1 0 6.24 3.12 3.12 0 0 1 0-6.24zm0 22.963a3.12 3.12 0 1 1 0-6.24 3.12 3.12 0 0 1 0 6.24zm0-8.362a3.12 3.12 0 1 1 0-6.24 3.12 3.12 0 0 1 0 6.24zm16.722 8.362a3.12 3.12 0 1 1 0-6.24 3.12 3.12 0 0 1 0 6.24zm0-8.362a3.12 3.12 0 1 1 0-6.24 3.12 3.12 0 0 1 0 6.24z"/></symbol><symbol viewBox="-5 0 20 20" id="facebook" xmlns="http://www.w3.org/2000/svg"><path d="M6.821 20v-9h2.733L10 7H6.821V5.052C6.821 4.022 6.848 3 8.287 3h1.458V.14c0-.043-1.253-.14-2.52-.14C4.58 0 2.924 1.657 2.924 4.7V7H0v4h2.923v9h3.898Z" fill-rule="evenodd"/></symbol><symbol viewBox="0 0 24 24" id="faq" xmlns="http://www.w3.org/2000/svg"><path d="M12 22A10 10 0 1 0 2 12a10 10 0 0 0 10 10Zm0-2a1.5 1.5 0 1 1 1.5-1.5A1.5 1.5 0 0 1 12 20ZM8 8.994a3.907 3.907 0 0 1 2.319-3.645 4.061 4.061 0 0 1 3.889.316 4 4 0 0 1 .294 6.456 3.972 3.972 0 0 0-1.411 2.114 1 1 0 0 1-1.944-.47 5.908 5.908 0 0 1 2.1-3.2 2 2 0 0 0-.146-3.23 2.06 2.06 0 0 0-2.006-.14 1.937 1.937 0 0 0-1.1 1.8A1 1 0 0 1 8 9Z"/></symbol><symbol viewBox="0 0 24 24" id="filter" xmlns="http://www.w3.org/2000/svg"><path fill-rule="evenodd" clip-rule="evenodd" d="M15 10.5A3.502 3.502 0 0 0 18.355 8H21a1 1 0 1 0 0-2h-2.645a3.502 3.502 0 0 0-6.71 0H3a1 1 0 0 0 0 2h8.645A3.502 3.502 0 0 0 15 10.5zM3 16a1 1 0 1 0 0 2h2.145a3.502 3.502 0 0 0 6.71 0H21a1 1 0 1 0 0-2h-9.145a3.502 3.502 0 0 0-6.71 0H3z"/></symbol><symbol id="games" viewBox="0 0 32 32" xml:space="preserve" xmlns="http://www.w3.org/2000/svg"><style>.st0{fill:none;stroke:#000;stroke-width:2;stroke-linecap:round;stroke-linejoin:round;stroke-miterlimit:10}</style><path d="M16 11H6c-2.8 0-5 2.2-5 5v10c0 2.8 2.2 5 5 5h10c2.8 0 5-2.2 5-5V16c0-2.8-2.2-5-5-5zm-9 4c1.1 0 2 .9 2 2s-.9 2-2 2-2-.9-2-2 .9-2 2-2zm0 12c-1.1 0-2-.9-2-2s.9-2 2-2 2 .9 2 2-.9 2-2 2zm4-4c-1.1 0-2-.9-2-2s.9-2 2-2 2 .9 2 2-.9 2-2 2zm4 4c-1.1 0-2-.9-2-2s.9-2 2-2 2 .9 2 2-.9 2-2 2zm0-8c-1.1 0-2-.9-2-2s.9-2 2-2 2 .9 2 2-.9 2-2 2z"/><path d="M26 1H16c-2.8 0-5 2.2-5 5v3h5c3.9 0 7 3.1 7 7v5h3c2.8 0 5-2.2 5-5V6c0-2.8-2.2-5-5-5zm-1 8c-1.1 0-2-.9-2-2s.9-2 2-2 2 .9 2 2-.9 2-2 2z"/></symbol><symbol viewBox="0 0 512 512" xml:space="preserve" id="giftbox" xmlns="http://www.w3.org/2000/svg"><path d="M478.609 99.726H441.34c4.916-7.78 8.16-16.513 9.085-25.749C453.38 44.46 437.835 18 411.37 6.269c-24.326-10.783-51.663-6.375-71.348 11.479l-47.06 42.65c-9.165-10.024-22.34-16.324-36.962-16.324-14.648 0-27.844 6.32-37.011 16.375l-47.12-42.706C152.152-.111 124.826-4.502 100.511 6.275 74.053 18.007 58.505 44.476 61.469 73.992c.927 9.229 4.169 17.958 9.084 25.734H33.391C14.949 99.726 0 114.676 0 133.117v50.087c0 9.22 7.475 16.696 16.696 16.696h478.609c9.22 0 16.696-7.475 16.696-16.696v-50.087c-.001-18.441-14.95-33.391-33.392-33.391zm-272.696-5.565v5.565H127.37c-20.752 0-37.084-19.346-31.901-40.952 2.283-9.515 9.151-17.626 18.034-21.732 12.198-5.638 25.71-3.828 35.955 5.445l56.469 51.182c-.003.165-.014.327-.014.492zm211.381-24.617c-1.244 17.353-16.919 30.184-34.316 30.184h-76.891v-5.565c0-.197-.012-.392-.014-.589l55.594-50.391c8.554-7.753 20.523-11.372 31.587-8.072 15.877 4.736 25.201 18.238 24.04 34.433zM33.391 233.291v244.87c0 18.442 14.949 33.391 33.391 33.391h155.826V233.291H33.391zm256 0v278.261h155.826c18.442 0 33.391-14.949 33.391-33.391v-244.87H289.391z"/></symbol><symbol viewBox="0 0 64 64" xml:space="preserve" id="house" xmlns="http://www.w3.org/2000/svg"><path d="m62.79 29.172-28-28C34.009.391 32.985 0 31.962 0s-2.047.391-2.828 1.172l-28 28c-1.562 1.566-1.484 4.016.078 5.578 1.566 1.57 3.855 1.801 5.422.234L8 33.617V60c0 2.211 1.789 4 4 4h16V48h8v16h16c2.211 0 4-1.789 4-4V33.695l1.195 1.195c1.562 1.562 3.949 1.422 5.516-.141 1.563-1.561 1.645-4.015.079-5.577z"/></symbol><symbol viewBox="0 0 24 24" id="info" xmlns="http://www.w3.org/2000/svg"><circle cx="12" cy="12" r="10"/><path d="M12 17v-6"/><circle cx="1" cy="1" r="1" transform="matrix(1 0 0 -1 11 9)"/></symbol><symbol viewBox="0 0 24 24" id="info-1" xmlns="http://www.w3.org/2000/svg"><path d="M12 22C6.477 22 2 17.523 2 12S6.477 2 12 2s10 4.477 10 10-4.477 10-10 10zm-.696-3.534c.63 0 1.332-.288 2.196-1.458l.911-1.22a.334.334 0 0 0-.074-.472.38.38 0 0 0-.505.06l-1.475 1.679a.241.241 0 0 1-.279.061.211.211 0 0 1-.12-.244l1.858-7.446a.499.499 0 0 0-.575-.613l-3.35.613a.35.35 0 0 0-.276.258l-.086.334a.25.25 0 0 0 .243.312h1.73l-1.476 5.922c-.054.234-.144.63-.144.918 0 .666.396 1.296 1.422 1.296zm1.83-10.536c.702 0 1.242-.414 1.386-1.044.036-.144.054-.306.054-.414 0-.504-.396-.972-1.134-.972-.702 0-1.242.414-1.386 1.044a1.868 1.868 0 0 0-.054.414c0 .504.396.972 1.134.972z"/></symbol><symbol viewBox="0 0 24 24" id="info-circle" xmlns="http://www.w3.org/2000/svg"><path fill-rule="evenodd" clip-rule="evenodd" d="M22 12c0 5.523-4.477 10-10 10S2 17.523 2 12 6.477 2 12 2s10 4.477 10 10Zm-10 5.75a.75.75 0 0 0 .75-.75v-6a.75.75 0 0 0-1.5 0v6c0 .414.336.75.75.75ZM12 7a1 1 0 1 1 0 2 1 1 0 0 1 0-2Z"/></symbol><symbol viewBox="0 0 24 24" id="instagram" xmlns="http://www.w3.org/2000/svg"><path fill-rule="evenodd" clip-rule="evenodd" d="M12 18a6 6 0 1 0 0-12 6 6 0 0 0 0 12Zm0-2a4 4 0 1 0 0-8 4 4 0 0 0 0 8Z"/><path d="M18 5a1 1 0 1 0 0 2 1 1 0 0 0 0-2Z"/><path fill-rule="evenodd" clip-rule="evenodd" d="M1.654 4.276C1 5.56 1 7.24 1 10.6v2.8c0 3.36 0 5.04.654 6.324a6 6 0 0 0 2.622 2.622C5.56 23 7.24 23 10.6 23h2.8c3.36 0 5.04 0 6.324-.654a6 6 0 0 0 2.622-2.622C23 18.44 23 16.76 23 13.4v-2.8c0-3.36 0-5.04-.654-6.324a6 6 0 0 0-2.622-2.622C18.44 1 16.76 1 13.4 1h-2.8c-3.36 0-5.04 0-6.324.654a6 6 0 0 0-2.622 2.622ZM13.4 3h-2.8c-1.713 0-2.878.002-3.778.075-.877.072-1.325.202-1.638.361a4 4 0 0 0-1.748 1.748c-.16.313-.29.761-.36 1.638C3.001 7.722 3 8.887 3 10.6v2.8c0 1.713.002 2.878.075 3.778.072.877.202 1.325.361 1.638a4 4 0 0 0 1.748 1.748c.313.16.761.29 1.638.36.9.074 2.065.076 3.778.076h2.8c1.713 0 2.878-.002 3.778-.075.877-.072 1.325-.202 1.638-.361a4 4 0 0 0 1.748-1.748c.16-.313.29-.761.36-1.638.074-.9.076-2.065.076-3.778v-2.8c0-1.713-.002-2.878-.075-3.778-.072-.877-.202-1.325-.361-1.638a4 4 0 0 0-1.748-1.748c-.313-.16-.761-.29-1.638-.36C16.278 3.001 15.113 3 13.4 3Z"/></symbol><symbol viewBox="0 0 24 24" id="language" xmlns="http://www.w3.org/2000/svg"><path d="M12 23c6.075 0 11-4.925 11-11S18.075 1 12 1 1 5.925 1 12s4.925 11 11 11Zm0 0c3 0 4-5 4-11S15 1 12 1 8 6 8 12s1 11 4 11ZM2 16h20M2 8h20"/></symbol><symbol viewBox="0 0 1024 1024" class="asicon" id="left-arrow" xmlns="http://www.w3.org/2000/svg"><path d="M768 903.232 717.568 960 256 512 717.568 64 768 120.768 364.928 512z"/></symbol><symbol viewBox="0 0 24 24" id="link-right" xmlns="http://www.w3.org/2000/svg"><path d="M13.233 16.457a.75.75 0 1 0 1.034 1.086l-1.034-1.086Zm6.284-3.914a.75.75 0 1 0-1.034-1.086l1.034 1.086Zm-1.034 0a.75.75 0 1 0 1.034-1.086l-1.034 1.086Zm-4.216-6.086a.75.75 0 1 0-1.034 1.086l1.034-1.086ZM19 12.75a.75.75 0 0 0 0-1.5v1.5Zm-14-1.5a.75.75 0 0 0 0 1.5v-1.5Zm9.267 6.293 5.25-5-1.034-1.086-5.25 5 1.034 1.086Zm5.25-6.086-5.25-5-1.034 1.086 5.25 5 1.034-1.086ZM19 11.25H5v1.5h14v-1.5Z"/></symbol><symbol viewBox="0 0 64 64" id="min" xmlns="http://www.w3.org/2000/svg"><path d="M8 16a4 4 0 0 1 4-4h32a4 4 0 0 1 4 4v28H8z"/><path d="M8 16h40v8H8z"/><circle cx="28" cy="20" r="2"/><circle cx="48" cy="48" r="10"/><text x="48" y="51" font-family="Arial, sans-serif" font-size="6" font-weight="bold" text-anchor="middle" dominant-baseline="middle">
    MIN
  </text></symbol><symbol class="avminus" viewBox="0 0 16 3" id="minus" xmlns="http://www.w3.org/2000/svg"><path d="M0 3V0h16v3H0Z"/></symbol><symbol viewBox="0 0 24 24" id="money" xmlns="http://www.w3.org/2000/svg"><g clip-path="url(#axa)" stroke-width="2" stroke-linecap="round" stroke-linejoin="round"><path d="M2 6h20v12H2z"/><path d="M22 10a4 4 0 0 1-4-4h4v4Zm-4 8a4 4 0 0 1 4-4v4h-4ZM2 14a4 4 0 0 1 4 4H2v-4Zm4-8a4 4 0 0 1-4 4V6h4Z"/><circle cx="12" cy="12" r="2"/></g><defs><clipPath id="axa"><path d="M0 0h24v24H0z"/></clipPath></defs></symbol><symbol viewBox="0 0 24 24" id="money-bag" xmlns="http://www.w3.org/2000/svg"><path d="M11.726 17.102a.693.693 0 0 0-.553-.404 3.04 3.04 0 0 1-.611-.134 2.634 2.634 0 0 1-.246-.097l.126-.345c.09.04.182.077.276.11l.004.001.004.001c.303.1.6.151.885.151.286 0 .493-.038.652-.12l.01-.005.009-.006a.735.735 0 0 0 .379-.652.755.755 0 0 0-.454-.699 3.432 3.432 0 0 0-.648-.211 5.428 5.428 0 0 1-.759-.243.996.996 0 0 1-.384-.32c-.098-.133-.147-.334-.147-.597 0-.317.09-.58.273-.8.164-.194.396-.326.708-.4a.699.699 0 0 0 .493-.433.692.692 0 0 0 .53.415c.202.033.388.084.556.154l-.117.338a2.489 2.489 0 0 0-.928-.191c-1 0-1.05.69-1.05.828 0 .3.162.55.444.689l.008.004.008.003c.142.064.345.125.636.193.302.068.554.146.752.233l.004.002.004.002a.925.925 0 0 1 .385.311l.001.003.002.002c.098.127.148.323.148.583 0 .3-.087.554-.266.777-.155.193-.371.326-.662.408a.706.706 0 0 0-.473.449Z"/><path d="M11.979 18h-.482a.198.198 0 0 1-.195-.2v-.402a.206.206 0 0 0-.182-.204 3.493 3.493 0 0 1-.708-.155 2.673 2.673 0 0 1-.575-.265.19.19 0 0 1-.071-.227l.33-.9a.207.207 0 0 1 .299-.105c.149.084.31.156.48.216.256.085.501.127.736.127.202 0 .346-.022.433-.067a.236.236 0 0 0 .13-.216c0-.11-.058-.191-.174-.246a3.064 3.064 0 0 0-.556-.178 5.852 5.852 0 0 1-.834-.268 1.486 1.486 0 0 1-.581-.477c-.165-.223-.247-.524-.247-.901 0-.437.13-.812.389-1.125.234-.277.557-.465.97-.562a.21.21 0 0 0 .161-.203V11.2c0-.11.087-.2.195-.2h.482c.107 0 .195.09.195.2v.417c0 .102.075.188.173.203.361.058.678.167.952.327a.191.191 0 0 1 .079.229l-.31.897a.203.203 0 0 1-.287.112c-.348-.18-.68-.27-.997-.27-.375 0-.562.11-.562.328 0 .104.055.183.167.238.11.05.294.104.55.164.33.074.607.161.834.26.227.095.422.251.587.47.17.218.254.516.254.893 0 .417-.126.782-.378 1.095-.218.272-.522.463-.909.572a.21.21 0 0 0-.153.2v.465c0 .11-.088.2-.195.2Z"/><path clip-rule="evenodd" d="M9.592 5h4.222c1.081 0 .488 1.664.05 2.679l-.498 1.164-.068.157c.472-.023.939.11 1.33.382a15.603 15.603 0 0 1 3.498 4.869c.329.68.46 1.445.376 2.2-.1 1.925-1.606 3.459-3.484 3.549h-6.63c-1.878-.087-3.386-1.62-3.488-3.545a4.033 4.033 0 0 1 .376-2.2 15.602 15.602 0 0 1 3.502-4.873A2.145 2.145 0 0 1 10.108 9l-.078-.181-.487-1.14C9.107 6.664 8.51 5 9.593 5Z"/><path d="M13.298 9.75a.75.75 0 0 0 0-1.5v1.5Zm-3.19-1.5a.75.75 0 0 0 0 1.5v-1.5Zm5.87.4a.75.75 0 0 0-.75-1.3l.75 1.3Zm-2.612.193.144.736h.002l-.146-.736Zm-3.336-.024.155-.734-.006-.001-.149.735ZM8.166 7.344a.75.75 0 0 0-.726 1.312l.726-1.312Zm5.132.906h-3.19v1.5h3.19v-1.5Zm1.93-.9a6.626 6.626 0 0 1-2.01.758l.294 1.47a8.126 8.126 0 0 0 2.466-.928l-.75-1.3Zm-2.007.757a7.585 7.585 0 0 1-3.036-.022l-.31 1.468a9.085 9.085 0 0 0 3.635.026l-.29-1.472Zm-3.042-.023a7.04 7.04 0 0 1-2.013-.74L7.44 8.656a8.542 8.542 0 0 0 2.442.898l.297-1.47Z"/></symbol><symbol viewBox="0 0 512 512" xml:space="preserve" id="newspaper" xmlns="http://www.w3.org/2000/svg"><path d="M406.069 70.621V0H0v432.552C0 476.359 35.641 512 79.448 512h353.103C476.359 512 512 476.359 512 432.552V70.621H406.069zm-70.621 317.793H70.621v-52.966h264.828v52.966zm0-105.931H70.621v-52.966h264.828v52.966zm0-158.897v52.966H70.621V70.621h264.828v52.965zm123.586 308.966c0 14.603-11.88 26.483-26.483 26.483s-26.483-11.88-26.483-26.483V123.586h52.966v308.966z"/></symbol><symbol viewBox="0 0 24 24" id="play" xmlns="http://www.w3.org/2000/svg"><path d="M16.658 9.286c1.44.9 2.16 1.35 2.407 1.926a2 2 0 0 1 0 1.576c-.247.576-.967 1.026-2.407 1.926L9.896 18.94c-1.598.999-2.397 1.498-3.056 1.445a2 2 0 0 1-1.446-.801C5 19.053 5 18.111 5 16.226V7.774c0-1.885 0-2.827.394-3.358a2 2 0 0 1 1.446-.801c.66-.053 1.458.446 3.056 1.445l6.762 4.226Z"/></symbol><symbol viewBox="0 0 24 24" id="right-arrow" xmlns="http://www.w3.org/2000/svg"><path d="M5.536 21.886a1.004 1.004 0 0 0 1.033-.064l13-9a1 1 0 0 0 0-1.644l-13-9A1 1 0 0 0 5 3v18a1 1 0 0 0 .536.886z"/></symbol><symbol viewBox="0 0 1024 1024" class="baicon" id="right-arrow-sl" xmlns="http://www.w3.org/2000/svg"><path d="M256 120.768 306.432 64 768 512 306.432 960 256 903.232 659.072 512z"/></symbol><symbol viewBox="0 0 32 32" id="roulette" xmlns="http://www.w3.org/2000/svg"><path d="M15.955 31.684c-.045 0-.045 0 0 0a15.79 15.79 0 0 1-5.994-1.172c-1.893-.811-3.606-1.938-5.048-3.38s-2.614-3.155-3.38-5.048C.722 20.191.361 18.163.361 16.09s.406-4.056 1.172-5.994 1.938-3.606 3.38-5.048c1.442-1.442 3.155-2.614 5.048-3.38S13.882.496 15.91.496h.045c2.073 0 4.056.406 5.949 1.172 1.893.811 3.606 1.938 5.048 3.38s2.614 3.155 3.38 5.048c.811 1.893 1.217 3.876 1.217 5.949s-.406 4.056-1.172 5.994c-.811 1.893-1.938 3.606-3.38 5.048s-3.155 2.614-5.048 3.38a15.495 15.495 0 0 1-5.994 1.217zm-.045-.766s.045 0 0 0c1.983 0 3.876-.361 5.679-1.127s3.425-1.848 4.823-3.245c1.397-1.397 2.479-3.02 3.245-4.823s1.127-3.741 1.127-5.679c0-1.983-.361-3.876-1.127-5.679s-1.848-3.425-3.245-4.823c-1.352-1.397-2.975-2.479-4.777-3.245S17.894 1.17 15.956 1.17c-1.938 0-3.876.361-5.679 1.127S6.852 4.145 5.454 5.542c-1.442 1.397-2.524 3.02-3.29 4.823s-1.127 3.741-1.127 5.679c0 1.983.361 3.876 1.127 5.679s1.848 3.425 3.245 4.823c1.397 1.397 3.02 2.479 4.823 3.245s3.696 1.127 5.679 1.127zm.045-.901c-.045 0-.045 0 0 0-1.848 0-3.651-.361-5.363-1.082s-3.245-1.713-4.507-3.02c-1.307-1.307-2.344-2.839-3.02-4.507-.721-1.713-1.082-3.515-1.082-5.363s.361-3.651 1.082-5.363c.721-1.713 1.713-3.245 3.02-4.507 1.307-1.307 2.839-2.344 4.507-3.02a13.523 13.523 0 0 1 5.318-1.082h.045c1.848 0 3.606.361 5.318 1.082s3.245 1.713 4.507 3.02c1.307 1.307 2.344 2.839 3.02 4.507.721 1.713 1.082 3.515 1.082 5.363s-.361 3.651-1.082 5.363c-.721 1.713-1.713 3.245-3.02 4.507-1.307 1.307-2.839 2.344-4.507 3.02a13.686 13.686 0 0 1-5.318 1.082zm-.045-.766c1.758 0 3.425-.316 5.048-.992s3.065-1.623 4.282-2.884c1.217-1.217 2.208-2.659 2.884-4.282s.992-3.29.992-5.048-.316-3.425-.992-5.048-1.623-3.065-2.884-4.282a13.297 13.297 0 0 0-4.282-2.885c-1.577-.631-3.29-.992-5.003-.992h-.045c-1.758 0-3.425.316-5.048.992S7.797 5.453 6.58 6.715a13.297 13.297 0 0 0-2.885 4.282 13.927 13.927 0 0 0-.946 5.048c0 1.758.316 3.425.992 5.048s1.623 3.065 2.884 4.282a13.278 13.278 0 0 0 4.282 2.884c1.577.631 3.245.992 5.003.992zm.315-2.344-1.127-.045c-.18 0-.316-.09-.361-.27 0-.045-.045-.09 0-.18l.135-1.487c0-.225.18-.361.406-.361h1.352a.44.44 0 0 1 .451.361l.135 1.487c0 .09-.045.225-.09.27s-.18.135-.27.135l-.631.09zm-.721-.766h.811l-.09-.766h-.676l-.045.766zm2.84.496a.482.482 0 0 1-.27-.09.341.341 0 0 1-.09-.18l-.361-1.487c-.045-.09 0-.225.045-.27.045-.09.135-.135.225-.18l1.262-.406c.18-.09.406 0 .496.225l.586 1.397c.045.09.045.18 0 .316a.542.542 0 0 1-.225.225l-1.577.406c-.045.045-.045.045-.09.045zm.09-1.578.18.721.766-.27-.27-.721-.676.27zm-5.003 1.533h-.09l-1.532-.496c-.045 0-.09-.045-.09-.045-.18-.09-.225-.316-.18-.496l.586-1.397c.09-.18.316-.27.496-.225l1.262.406c.09 0 .18.045.225.135.09.09.09.225.09.316l-.361 1.487c-.045.09-.09.18-.18.225-.045.09-.135.09-.225.09zm-1.037-1.082.766.27.18-.721-.676-.27-.27.721zm8.969-.135c-.135 0-.27-.045-.316-.18l-.811-1.307a.43.43 0 0 1 .135-.541l1.082-.766c.18-.135.451-.135.586.045l.992 1.172c.045.09.09.18.09.27s-.045.18-.135.27l-1.352.992s-.045 0-.045.045h-.225zm-.27-1.533.406.631.676-.496-.541-.541-.541.406zm-10.637 1.533c-.09 0-.135 0-.18-.045l-1.352-.992a.351.351 0 0 1-.18-.18.44.44 0 0 1 .045-.406l.992-1.172c.045-.09.18-.135.27-.135s.18.045.27.09l1.082.766c.18.09.27.361.135.541l-.811 1.307c-.045.09-.135.135-.225.18l-.045.045zm-.811-1.443.676.496.406-.631-.586-.406-.496.541zm14.197-.676c-.09 0-.18-.045-.27-.09l-1.172-.992c-.18-.135-.18-.361-.045-.541l.811-1.082c.09-.18.361-.225.541-.135l1.307.811c.09.045.135.135.18.225s0 .225-.045.27l-.992 1.352c-.09.135-.18.18-.316.18.045 0 0 0 0 0zm-.586-1.397.586.496.496-.676-.631-.406-.451.586zM7.932 23.211a.412.412 0 0 1-.316-.135l-.992-1.352-.045-.045a.43.43 0 0 1 .135-.541l1.307-.811c.09-.045.18-.09.27-.045s.18.09.225.18l.766 1.082c.135.18.135.406-.045.541l-1.172.992c.045.135-.045.135-.135.135zm-.405-1.577.496.676.586-.496-.406-.586-.676.406zm8.383 1.127c-.361 0-.721-.135-.946-.406a1.298 1.298 0 0 1-.406-.946c0-.27.09-.496.225-.721.09-.135.225-.27.361-.361v-2.479c-.225-.09-.406-.225-.586-.406s-.316-.361-.406-.586h-2.479c-.09.135-.225.27-.361.361-.541.316-1.262.27-1.668-.18-.27-.27-.406-.586-.406-.946s.135-.721.406-.946c.27-.27.586-.406.946-.406.27 0 .496.09.721.225.135.09.27.225.361.361h2.479c.09-.225.225-.406.406-.586s.361-.316.586-.406v-2.479a1.377 1.377 0 0 1-.361-.361c-.135-.225-.225-.451-.225-.721 0-.18.045-.361.09-.496.09-.18.18-.316.316-.451s.27-.225.451-.316c.496-.225 1.082-.09 1.487.316.27.27.406.586.406.946 0 .27-.09.496-.225.721-.09.135-.225.27-.361.361v2.479c.225.09.406.225.586.406s.316.361.406.586h2.479c.09-.135.225-.27.361-.361.541-.316 1.262-.27 1.668.18.27.27.406.586.406.946s-.135.721-.406.946c-.451.451-1.172.496-1.713.18a1.377 1.377 0 0 1-.361-.361h-2.479c-.09.225-.225.406-.406.586s-.361.316-.586.406v2.434c.135.09.27.225.361.361.135.225.225.451.225.721 0 .361-.135.721-.406.946a1.27 1.27 0 0 1-.946.451zm-4.462-6.671h2.975c.18 0 .316.135.361.27.045.18.135.361.316.541.135.135.316.225.541.316.18.045.27.18.27.361v2.975c0 .135-.09.27-.225.361-.09.045-.18.135-.27.225-.045.045-.09.135-.09.27s.045.316.18.406a.572.572 0 0 0 .811 0c.09-.09.18-.27.18-.406s-.045-.225-.09-.316c-.045-.09-.135-.18-.27-.225s-.225-.18-.225-.361v-2.975c0-.18.135-.316.27-.361.18-.045.361-.135.541-.316.135-.135.27-.316.316-.541.045-.18.18-.27.361-.27h2.975c.135 0 .27.09.361.225.045.09.135.18.225.27.225.135.541.09.721-.09.09-.09.18-.27.18-.406s-.045-.316-.18-.406a.613.613 0 0 0-.721-.09c-.09.045-.18.135-.225.27s-.18.225-.361.225H17.4a.393.393 0 0 1-.361-.27 1.129 1.129 0 0 0-.316-.541c-.135-.135-.316-.225-.496-.316-.18-.045-.316-.18-.316-.361v-2.975c0-.135.09-.27.225-.361.09-.045.18-.135.27-.225s.09-.225.09-.316c0-.135-.045-.316-.18-.406a.559.559 0 0 0-.631-.135c-.09.045-.135.09-.18.135s-.09.135-.135.18c-.045.09-.045.135-.045.225 0 .135.045.225.09.316s.135.18.27.225c.135.045.225.18.225.361v2.975c0 .18-.135.316-.27.361-.18.045-.361.135-.541.316-.135.135-.225.316-.316.541-.045.18-.18.27-.361.27l-2.975.045a.706.706 0 0 1-.361-.27c-.045-.09-.135-.18-.225-.27a.834.834 0 0 0-.316-.09c-.135 0-.316.045-.406.18-.09.09-.18.27-.18.406s.045.316.18.406c.18.18.496.225.721.09a.46.46 0 0 0 .225-.27.41.41 0 0 1 .361-.18zm14.107 4.417c-.045 0-.09 0-.135-.045l-1.397-.586c-.135-.045-.225-.18-.225-.361 0-.045 0-.09.045-.135l.406-1.217c.045-.225.27-.361.451-.316l1.487.361c.09.045.18.09.225.18s.09.18.045.27l-.541 1.577c-.045.09-.09.18-.225.225 0 0-.045.045-.135.045zm-.901-1.172.676.27.27-.766-.721-.18-.225.676zM6.265 20.417c-.135 0-.27-.09-.361-.225l-.541-1.577c-.045-.09 0-.18 0-.225.045-.135.135-.225.27-.225l1.487-.361c.09-.045.225 0 .27.045.09.045.135.135.18.225l.406 1.262c.09.18 0 .451-.18.541l-1.397.586c-.045-.045-.09-.045-.135-.045zm-.045-1.623.27.766.676-.27-.225-.676-.721.18zm20.146-1.487c-.045 0-.045 0 0 0l-1.577-.135a.388.388 0 0 1-.361-.361l.045-1.082v-.315c0-.18.135-.361.361-.361l1.532-.135c.09 0 .18.045.27.09s.135.18.135.27l.045 1.127-.045.541c0 .09-.045.225-.18.27-.09.09-.18.09-.225.09zm-1.127-.856.766.045v-.811l-.766.09v.676zm-19.74.811a.356.356 0 0 1-.361-.361l-.045-1.217.045-.496c0-.09.045-.18.135-.27.09-.045.18-.09.27-.09l1.532.135c.18 0 .361.18.361.361v1.352a.44.44 0 0 1-.361.451l-1.577.135zm.36-1.623v.811l.766-.045v-.676l-.766-.09zm18.795-1.216c-.09 0-.135 0-.225-.045s-.135-.135-.18-.225l-.406-1.262c-.09-.18 0-.451.225-.496l1.397-.586c.09-.045.18-.045.316 0 .09.045.18.135.225.225l.496 1.623c.045.18-.045.316-.18.406-.045 0-.045.045-.09.045l-1.487.361c-.045-.045-.09-.045-.09-.045zm.045-1.533.225.676.721-.18-.225-.766-.721.27zM7.211 14.332h-.09l-1.487-.361c-.09-.045-.18-.09-.225-.18s-.09-.18-.045-.27l.541-1.623c.045-.135.225-.225.361-.225.045 0 .135 0 .18.045l1.352.586c.09.045.18.135.225.225s.045.18 0 .316l-.406 1.217c-.045.135-.225.27-.406.27zm-.991-.991.721.18.225-.676-.721-.27-.225.766zm17.352-1.533h-.09c-.09-.045-.18-.09-.225-.18l-.766-1.082c-.135-.18-.135-.406.045-.541l1.172-.992c.09-.045.18-.09.27-.09s.18.045.27.135l.992 1.397c0 .045.045.09.045.135.045.18-.045.316-.18.406l-1.307.811h-.225zm-.271-1.442.406.586.631-.406-.451-.676-.586.496zM8.293 11.763h-.09c-.045 0-.09-.045-.135-.045l-1.307-.811c-.09-.045-.135-.135-.18-.27 0-.09 0-.225.045-.316l.946-1.307c.045-.09.135-.135.225-.18.135-.045.27 0 .361.09l1.172.992c.09.045.135.18.135.27s-.045.18-.09.27l-.811 1.082c-.045.18-.135.225-.27.225zm-.766-1.307.631.406.406-.586-.586-.496-.451.676zm14.287-.766c-.09 0-.18-.045-.27-.09l-1.082-.811a.43.43 0 0 1-.135-.541l.811-1.307c.045-.09.135-.135.225-.18s.225 0 .27.045l1.307.946.135.135c.09.135.045.315-.045.451l-.946 1.217c-.09.09-.18.135-.27.135zm-.631-1.352.586.406.496-.586-.676-.496-.406.676zM10.096 9.645c-.09 0-.225-.045-.27-.135l-.992-1.172c-.045-.09-.09-.18-.09-.27s.045-.18.135-.27l1.352-.992c.045-.045.135-.045.18-.045.135 0 .27.09.316.18l.811 1.307c.045.09.09.18.045.316s-.09.18-.18.225l-1.037.721c-.09.09-.18.135-.27.135zm-.451-1.487.496.586.586-.406-.406-.676-.676.496zm9.78.045c-.045 0-.09 0-.135-.045l-1.262-.406a.247.247 0 0 1-.225-.135c-.09-.09-.09-.225-.09-.316l.361-1.487c.045-.225.27-.316.451-.27l1.577.541.09.045c.18.09.225.316.135.451l-.586 1.397a.542.542 0 0 1-.225.225h-.09zm-.856-1.127.676.225.27-.676-.766-.27-.18.721zm-6.084 1.082c-.18 0-.316-.09-.361-.27l-.586-1.352c-.045-.135-.045-.27.045-.361a.247.247 0 0 1 .225-.135l1.577-.496h.135c.18 0 .316.135.316.27l.361 1.487a.375.375 0 0 1-.27.451l-1.262.361c-.09.045-.135.045-.18.045zm-.091-1.578.316.676.496-.18h.045l.09-.045-.18-.721-.766.27zm4.327.947c-.045 0-.045 0 0 0l-.451-.045h-1.037c-.225.045-.406-.135-.451-.361l-.135-1.487c0-.09.045-.225.09-.27.09-.09.18-.135.27-.135h1.172l.541.045c.09 0 .225.045.27.135s.135.18.09.27l-.135 1.532c0 .09-.045.18-.135.27.09 0 0 .045-.09.045zm-1.082-.812h.721l.045-.766h-.946l.045.766h.135z"/></symbol><symbol viewBox="0 0 24 24" id="search" xmlns="http://www.w3.org/2000/svg"><path d="M15.796 15.811 21 21m-3-10.5a7.5 7.5 0 1 1-15 0 7.5 7.5 0 0 1 15 0Z"/></symbol><symbol viewBox="0 0 32 32" id="slots" xmlns="http://www.w3.org/2000/svg"><path d="M3.921 31.594c-.361 0-.721-.135-.992-.406s-.406-.631-.406-.992V10.59c0-.946.361-1.848.992-2.524a3.658 3.658 0 0 1 2.028-1.127V4.685c0-.992.361-1.938 1.082-2.614C7.301 1.35 8.248.989 9.239.989h7.842c.992 0 1.938.406 2.614 1.082.676.721 1.082 1.623 1.082 2.614v2.254a3.658 3.658 0 0 1 2.028 1.127 3.7 3.7 0 0 1 .992 2.524v19.606c0 .361-.135.721-.406.992s-.631.406-.992.406H3.92zM17.037 1.848H9.24c-.766 0-1.442.315-1.983.811a2.721 2.721 0 0 0-.811 1.983v2.659c0 .225-.18.451-.406.451-.721.045-1.397.361-1.893.901s-.766 1.217-.766 1.938v19.606c0 .135.045.27.135.361s.225.135.361.135h18.479c.135 0 .27-.045.361-.135s.135-.225.135-.361V10.591c0-.721-.27-1.397-.766-1.938s-1.172-.856-1.893-.901c-.225 0-.451-.225-.406-.451V4.687c0-.766-.27-1.442-.811-1.983-.496-.541-1.172-.811-1.938-.856zm-1.353 25.375h-5.138c-.721 0-1.037-.541-1.217-.856v-.045l-1.037-1.758a.692.692 0 0 1 0-.721c.225-.406.811-.631 1.262-.631h7.211c.451 0 1.037.225 1.262.631a.692.692 0 0 1 0 .721l-1.037 1.758c-.27.361-.586.901-1.307.901zm-5.588-1.398c.225.406.316.496.496.496h5.138c.18 0 .27-.09.451-.451l.992-1.668c-.09-.045-.225-.135-.406-.135H9.556c-.135 0-.316.045-.406.135l.946 1.623zm14.512.676c-.27 0-.451-.18-.451-.451s.18-.451.451-.451h.586c.541 0 1.037-.225 1.442-.586.361-.406.586-.901.586-1.442v-7.842c0-.18.09-.316.225-.406a.975.975 0 0 0 .496-.451c.135-.18.18-.451.18-.676 0-.361-.135-.676-.361-.901s-.541-.361-.901-.361c-.18 0-.316.045-.496.09-.135.045-.316.18-.406.27-.135.135-.225.27-.27.406s-.09.316-.09.496c0 .225.045.451.18.676.135.18.316.361.496.451.135.09.225.225.225.406v5.544c0 .135-.09.27-.18.361s-.27.09-.406.045a2.107 2.107 0 0 0-.766-.135h-.586c-.27 0-.451-.18-.451-.451s.18-.451.451-.451h.586c.135 0 .316 0 .451.045V16c-.27-.18-.451-.406-.631-.676a2.039 2.039 0 0 1-.316-1.127c0-.27.045-.586.18-.811s.27-.496.451-.721c.18-.225.451-.361.721-.451s.541-.18.811-.18c.586 0 1.127.225 1.532.631s.631.946.631 1.532c0 .406-.09.811-.316 1.127-.18.27-.361.496-.631.676v7.572c0 .766-.316 1.532-.856 2.073s-1.262.856-2.073.856h-.496zm-5.318-6.309H7.391c-.27 0-.451-.18-.451-.451s.18-.451.451-.451H19.29c.27 0 .451.18.451.451s-.18.451-.451.451zm-1.758-2.119c-.406 0-.721-.135-.992-.406s-.406-.631-.406-.992v-5.138c0-.361.135-.721.406-.992s.631-.406.992-.406h2.524c.406 0 .721.135.992.406s.406.631.406.992v5.093c0 .361-.135.721-.406.992s-.631.406-.992.406h-2.524zm0-7.076c-.135 0-.27.045-.361.135s-.135.225-.135.361v5.093c0 .135.045.27.135.361s.225.135.361.135h2.524c.135 0 .27-.045.361-.135s.135-.225.135-.361v-5.048c0-.135-.045-.27-.135-.361s-.225-.135-.361-.135h-2.524zm-5.633 7.076c-.361 0-.721-.135-.992-.406s-.406-.631-.406-.992v-5.138c0-.361.135-.721.406-.992s.586-.406.946-.406h2.569c.361 0 .721.135.992.406s.406.631.406.992v5.093c0 .361-.135.721-.406.992s-.631.406-.992.406h-2.524zm.045-7.076c-.045 0-.045 0 0 0-.18 0-.316.045-.406.18a.512.512 0 0 0-.135.361v5.093c0 .135.045.27.135.361s.225.135.361.135h2.524c.135 0 .27-.045.361-.135s.135-.225.135-.361v-5.093c0-.135-.045-.27-.135-.361s-.225-.135-.361-.135h-2.479zm-.045-.451zM6.22 18.073c-.361 0-.721-.135-.992-.406s-.406-.631-.406-.992v-5.138c0-.361.135-.721.406-.992s.586-.406.946-.406h2.569c.361 0 .721.135.992.406s.406.631.406.992v5.093c0 .361-.135.721-.406.992s-.631.406-.992.406H6.219zm.045-7.076s-.045 0 0 0c-.18 0-.316.045-.406.18a.512.512 0 0 0-.135.361v5.093c0 .135.045.27.135.361s.225.135.361.135h2.524c.135 0 .27-.045.361-.135s.135-.225.135-.361v-5.093c0-.135-.045-.27-.135-.361s-.225-.135-.361-.135H6.265zm-.045-.451zm2.388-3.921c-.406 0-.721-.135-.992-.406s-.406-.631-.406-.992V4.1c0-.361.135-.721.406-.992.225-.27.586-.406.992-.406h9.059c.361 0 .721.135.992.406s.406.631.406.992v1.082c0 .361-.135.721-.406.992s-.631.406-.992.406H8.608zm0-3.019c-.135 0-.27.045-.361.135s-.135.225-.135.361v1.082c0 .135.045.27.135.361s.225.135.361.135h9.059c.135 0 .27-.045.361-.135s.135-.225.135-.361V4.102c0-.135-.045-.27-.135-.361s-.225-.135-.361-.135H8.608z"/></symbol><symbol viewBox="0 0 24 24" id="star" xmlns="http://www.w3.org/2000/svg"><path d="M9.153 5.408C10.42 3.136 11.053 2 12 2c.947 0 1.58 1.136 2.847 3.408l.328.588c.36.646.54.969.82 1.182.28.213.63.292 1.33.45l.636.144c2.46.557 3.689.835 3.982 1.776.292.94-.546 1.921-2.223 3.882l-.434.507c-.476.557-.715.836-.822 1.18-.107.345-.071.717.001 1.46l.066.677c.253 2.617.38 3.925-.386 4.506-.766.582-1.918.051-4.22-1.009l-.597-.274c-.654-.302-.981-.452-1.328-.452-.347 0-.674.15-1.329.452l-.595.274c-2.303 1.06-3.455 1.59-4.22 1.01-.767-.582-.64-1.89-.387-4.507l.066-.676c.072-.744.108-1.116 0-1.46-.106-.345-.345-.624-.821-1.18l-.434-.508c-1.677-1.96-2.515-2.941-2.223-3.882.293-.941 1.523-1.22 3.983-1.776l.636-.144c.699-.158 1.048-.237 1.329-.45.28-.213.46-.536.82-1.182l.328-.588Z"/></symbol><symbol class="bgbi bgbi-twitter-x" viewBox="0 0 16 16" id="twitter-x" xmlns="http://www.w3.org/2000/svg"><path d="M12.6.75h2.454l-5.36 6.142L16 15.25h-4.937l-3.867-5.07-4.425 5.07H.316l5.733-6.57L0 .75h5.063l3.495 4.633L12.601.75Zm-.86 13.028h1.36L4.323 2.145H2.865z"/></symbol><symbol viewBox="0 0 20 20" id="user-x-fill" xmlns="http://www.w3.org/2000/svg"><path fill-rule="evenodd" clip-rule="evenodd" d="M9.167 1.667a4.167 4.167 0 1 0 0 8.333 4.167 4.167 0 0 0 0-8.333Zm0 9.167c-1.996 0-3.813.578-5.148 1.392-.667.408-1.237.888-1.649 1.408-.405.514-.703 1.127-.703 1.783 0 .704.342 1.26.836 1.655.466.375 1.082.623 1.736.797 1.315.347 3.07.465 4.928.465.192 0 .383-.002.57-.005a.834.834 0 0 0 .742-1.19A4.978 4.978 0 0 1 10 15c0-1.043.32-2.01.864-2.81a.833.833 0 0 0-.6-1.298 10.332 10.332 0 0 0-1.097-.058Z"/><path d="M15.592 11.924a.834.834 0 0 1 .249.58v1.666h1.666a.833.833 0 0 1 0 1.666h-1.666v1.667a.834.834 0 1 1-1.667 0v-1.667h-1.666a.832.832 0 1 1 0-1.666h1.666v-1.666a.834.834 0 0 1 1.418-.58Z"/></symbol><symbol viewBox="0 0 71 71" xml:space="preserve" id="video-poker" xmlns="http://www.w3.org/2000/svg"><path class="bist0" d="M57.9 58.3H13.1c-2.9 0-5.3-2.4-5.3-5.3v-5.3c0-1.4.6-2.8 1.6-3.8l1.7-1.7c.6-.6.9-1.4.9-2.2V8.2c0-2.9 2.4-5.3 5.3-5.3h36.4c2.9 0 5.3 2.4 5.3 5.3v31.9c0 .8.3 1.6.9 2.2l1.7 1.7c1 1 1.6 2.3 1.6 3.8V53c0 2.9-2.4 5.3-5.3 5.3zM17.3 5.1c-1.7 0-3.1 1.4-3.1 3.1v31.9c0 1.4-.6 2.8-1.6 3.8l-1.7 1.7c-.6.6-.9 1.4-.9 2.2V53c0 1.7 1.4 3.1 3.1 3.1h44.8c1.7 0 3.1-1.4 3.1-3.1v-5.3c0-.8-.3-1.6-.9-2.2l-1.7-1.7c-1-1-1.6-2.3-1.6-3.8V8.2c0-1.7-1.4-3.1-3.1-3.1H17.3z"/><path class="bist0" d="M49.6 43.7H21.4c-2 0-3.6-1.6-3.6-3.6V12.3c0-2 1.6-3.6 3.6-3.6h28.1c2 0 3.6 1.6 3.6 3.6V40c.1 2.1-1.5 3.7-3.5 3.7zM21.4 10.5c-1 0-1.8.8-1.8 1.8V40c0 1 .8 1.8 1.8 1.8h28.1c1 0 1.8-.8 1.8-1.8V12.3c0-1-.8-1.8-1.8-1.8H21.4zm30.9 57.6h-35c-2.9 0-5.3-2.4-5.3-5.3V60h2.2v2.8c0 1.7 1.4 3.1 3.1 3.1h35c1.7 0 3.1-1.4 3.1-3.1V60h2.2v2.8c0 2.9-2.4 5.3-5.3 5.3z"/><path class="bist0" d="M40.8 33.3c-1.7 0-3.3-.7-4.5-1.8l-.4-.4-.5.5c-1.2 1.2-2.7 1.8-4.4 1.8-1.7 0-3.2-.6-4.4-1.8-1.2-1.2-1.8-2.7-1.8-4.4 0-1.7.7-3.2 1.8-4.4l8.4-8.4c.4-.4 1.1-.4 1.6 0l8.4 8.4c2.4 2.4 2.5 6.4.1 8.8-1.1 1.1-2.6 1.7-4.3 1.7zm-4.9-4.9c.3 0 .6.1.8.3l1.2 1.2c1.6 1.6 4.1 1.6 5.6.1s1.5-4.1-.1-5.6l-7.6-7.6-7.6 7.6c-.8.8-1.2 1.8-1.2 2.8 0 1.1.4 2.1 1.1 2.8s1.7 1.2 2.8 1.1c1.1 0 2.1-.4 2.8-1.2l1.2-1.2c.5-.2.8-.3 1-.3zm4.1 8.3h-8c-.6 0-1.1-.5-1.1-1.1s.5-1.1 1.1-1.1h8c.6 0 1.1.5 1.1 1.1s-.5 1.1-1.1 1.1zM25.2 51.6h-5.9c-.8 0-1.4-.6-1.4-1.4v-1.9c0-.8.6-1.4 1.4-1.4h5.9c.8 0 1.4.6 1.4 1.4v1.9c-.1.7-.7 1.4-1.4 1.4zm13.3 0h-5.9c-.8 0-1.4-.6-1.4-1.4v-1.9c0-.8.6-1.4 1.4-1.4h5.9c.8 0 1.4.6 1.4 1.4v1.9c-.1.7-.7 1.4-1.4 1.4zm13.3 0h-5.9c-.8 0-1.4-.6-1.4-1.4v-1.9c0-.8.6-1.4 1.4-1.4h5.9c.8 0 1.4.6 1.4 1.4v1.9c0 .7-.7 1.4-1.4 1.4z"/></symbol><symbol viewBox="0 0 512 512" xml:space="preserve" id="youtube" xmlns="http://www.w3.org/2000/svg"><path d="M34.354.5h45.959l29.604 91.096h2.863L141.013.5h46.353l-53.107 133.338v94.589H88.641V138.08L34.354.5zm157.839 98.157c0-13.374 5.495-24.003 16.493-31.938 10.984-7.934 25.749-11.901 44.3-11.901 16.893 0 30.728 4.192 41.506 12.55 10.805 8.358 16.193 19.112 16.193 32.287v89.2c0 14.771-5.301 26.373-15.868 34.782-10.579 8.408-25.151 12.625-43.684 12.625-17.859 0-32.143-4.342-42.866-13.024-10.709-8.683-16.074-20.36-16.074-35.057V98.657zm42.012 92.767c0 4.766 1.44 8.409 4.354 11.029 2.907 2.595 7.055 3.867 12.451 3.867 5.532 0 9.93-1.297 13.18-3.942 3.256-2.669 4.891-6.313 4.891-10.954V97.359c0-3.768-1.672-6.812-4.99-9.132-3.318-2.321-7.679-3.494-13.081-3.494-4.972 0-9.027 1.173-12.133 3.494-3.119 2.32-4.672 5.364-4.672 9.132v94.065zM459.992 57.588v172.711h-40.883v-19.063c-7.547 7.037-15.381 12.375-23.541 16.069-8.146 3.643-16.068 5.489-23.729 5.489-9.455 0-16.592-2.57-21.383-7.71-4.791-5.141-7.186-12.85-7.186-23.13V57.588h40.895v132.39c0 4.117.861 7.061 2.57 8.907 1.723 1.822 4.492 2.745 8.322 2.745 3.018 0 6.824-1.223 11.4-3.643 4.604-2.42 8.82-5.514 12.65-9.282V57.588h40.885zM421.68 363.262c-2.008-2.221-5.203-3.368-9.594-3.368-4.59 0-7.883 1.147-9.879 3.368-1.996 2.245-2.994 5.963-2.994 11.153v10.754h25.473v-10.754c0-5.19-.998-8.908-3.006-11.153zm-120.825 80.966c2.195.898 4.516 1.322 6.961 1.322 3.543 0 6.113-.849 7.785-2.595 1.67-1.722 2.494-4.591 2.494-8.533v-62.178c0-4.191-1.023-7.36-3.068-9.531-2.059-2.171-5.064-3.244-8.957-3.244-2.059 0-4.092.399-6.102 1.198-2.008.823-3.991 2.096-5.95 3.792v75.402c2.346 2.046 4.628 3.493 6.837 4.367zm189.641-131.641c0-29.941-30.754-54.219-68.654-54.219-54.068-1.822-109.396-2.62-165.842-2.521-56.427-.1-111.756.698-165.843 2.521-37.881 0-68.633 24.277-68.633 54.219-2.277 23.678-3.263 47.381-3.175 71.085-.087 23.703.898 47.406 3.175 71.11 0 29.916 30.752 54.192 68.633 54.192 54.087 1.797 109.416 2.596 165.843 2.521 56.446.075 111.774-.724 165.842-2.521 37.9 0 68.654-24.276 68.654-54.192 2.27-23.704 3.254-47.407 3.154-71.11.1-23.704-.884-47.407-3.154-71.085zM121.251 463.465v1.797H88.778V321.644H55.182v-26.147h99.672v26.147h-33.603v141.821zM236.768 341.33v123.932h-28.831v-13.698c-5.327 5.064-10.848 8.882-16.592 11.527-5.757 2.619-11.334 3.942-16.748 3.942-6.662 0-11.684-1.847-15.065-5.515-3.387-3.692-5.078-9.231-5.078-16.617V339.558h28.844v94.988c0 2.92.599 5.065 1.802 6.363 1.217 1.322 3.175 1.971 5.876 1.971 2.127 0 4.803-.873 8.047-2.595 3.231-1.747 6.2-3.967 8.914-6.662v-94.065h28.831v1.772zm111.007 29.517v68.74c0 8.808-2.258 15.544-6.773 20.235-4.518 4.641-11.055 6.986-19.588 6.986-5.639 0-10.652-.898-15.07-2.695-4.428-1.821-8.532-4.616-12.325-8.384v9.532h-29.105V295.496h29.105v54.068c3.893-3.793 8.009-6.662 12.376-8.608 4.379-1.971 8.809-2.969 13.273-2.969 9.107 0 16.094 2.645 20.896 7.935 4.803 5.289 7.211 12.999 7.211 23.13v1.795zm106.59 3.793v31.564h-55.152v21.581c0 6.513.947 11.029 2.844 13.549 1.908 2.521 5.152 3.793 9.742 3.793 4.779 0 8.135-1.073 10.043-3.219 1.896-2.121 2.844-6.837 2.844-14.123v-8.607h29.68v11.102c0 12.7-3.605 22.257-10.84 28.694-7.225 6.438-18.016 9.631-32.375 9.631-12.912 0-23.066-3.418-30.49-10.229-7.41-6.812-11.127-16.193-11.127-28.096v-57.411c0-10.754 4.078-19.512 12.213-26.299 8.146-6.762 18.689-10.155 31.588-10.155 13.199 0 23.328 3.144 30.416 9.406 7.061 6.264 10.615 15.296 10.615 27.048v1.771z"/></symbol><symbol viewBox="0 0 34 33" id="zoom" xmlns="http://www.w3.org/2000/svg"><path d="M4.008 21.727a1 1 0 0 0-1-1H.982v11.964h12.076v-1.988a1 1 0 0 0-1-1h-8.05v-7.976Zm26.151 7.976h-8.05a1 1 0 0 0-1 1v1.988h12.075V20.727h-2.025a1 1 0 0 0-1 1v7.976ZM.982.826V12.76h2.026a1 1 0 0 0 1-1V3.775h8.05a1 1 0 0 0 1-1V.797H.982v.029ZM21.108.797v1.978a1 1 0 0 0 1 1h8.05v7.986a1 1 0 0 0 1 1h2.026V.797H21.108Z"/></symbol></svg>